<svg width="473" height="837" viewBox="0 0 473 837" fill="none" xmlns="http://www.w3.org/2000/svg">
<g opacity="0.2">
<path d="M381.672 316.809C383.274 322.787 383.131 330.481 381.02 341.239C375.149 369.863 344.14 405.91 311.336 443.987C293.332 464.939 274.702 486.574 260.206 507.187C232.567 539.021 219.667 583.892 207.148 627.328C198.016 659.062 189.358 689.034 175.488 714.168L175.457 714.219C164.536 733.23 151.979 744.12 137.096 747.506C108.054 754.127 74.4189 731.014 35.4752 704.206L31.7287 701.64C2.74844 681.795 -35.4662 657.372 -92.1268 622.366L-96.8009 619.361C-146.137 587.683 -207.543 548.229 -254.4 488.362C-357.276 370.868 -337.43 238.597 -291.542 186.22C-236.641 129.707 -166.356 114.487 -22.7905 127.97C126.928 142.255 262.28 226.491 313.51 262.048C331.397 277.426 345.932 286.175 356.544 292.535C369.961 300.637 378.748 305.895 381.672 316.809ZM170.513 711.716C184.081 687.137 192.636 657.45 201.717 626.031C214.37 582.086 227.465 536.603 255.731 504.086C270.216 483.432 288.951 461.683 307.028 440.669C339.341 403.11 369.87 367.622 375.487 340.399C380.675 313.592 373.808 309.454 353.418 297.156C342.638 290.67 327.839 281.776 309.836 266.301C259.177 231.193 124.837 147.546 -23.5463 133.376C-165.04 120.069 -234.098 134.832 -287.443 189.766C-331.942 240.61 -350.977 369.697 -250.048 484.959C-203.626 544.212 -142.652 583.394 -93.6853 614.871L-89.022 617.836C-32.3087 652.871 5.95869 677.323 35.0024 697.236L38.7489 699.802C76.5951 725.872 109.291 748.334 135.835 742.296C149.101 739.258 160.413 729.26 170.513 711.716Z" fill="#A7CEFC"/>
<path d="M345.828 335.144C348.042 343.409 347.616 352.899 345.931 366.252L345.911 366.516C339.974 392.878 315.621 419.014 289.87 446.643C272.252 465.512 254.093 485.043 239.487 506.589C214.851 538.048 198.659 573.652 182.996 608.039C172.498 631.151 162.561 652.994 150.458 672.966L150.197 673.337C113.424 717.251 87.3377 699.814 39.9571 668.213C34.8074 664.776 29.3834 661.155 23.6118 657.412C13.4968 649.715 2.32832 641.612 -9.51584 633.002C-62.1809 594.775 -134.301 542.366 -203.587 459.738C-280.721 356.721 -271.2 258.61 -227.578 207.012C-181.711 154.727 -110.589 151.195 12.9659 163.03C138.855 178.539 234.862 242.697 286.433 277.174L292.184 281.009C327.185 307.54 341.527 319.094 345.828 335.144ZM340.356 365.596C344.898 329.157 340.214 324.434 288.805 285.355L283.212 281.607C232.032 247.412 136.742 183.75 12.2834 168.373C-109.2 156.714 -179.041 159.989 -223.217 210.359C-265.441 260.293 -274.368 355.749 -199.046 456.371C-130.279 538.406 -58.4542 590.551 -6.042 628.673C5.80218 637.283 16.9707 645.386 27.0222 653.014C32.6356 656.671 38.0596 660.292 43.2512 663.718C90.6846 695.347 112.381 709.833 145.743 670.144C157.617 650.491 167.429 628.853 177.854 605.976C193.61 571.263 209.959 535.402 234.897 503.562C249.627 481.81 267.965 462.103 285.717 443.068C310.874 416.071 334.663 390.517 340.356 365.596Z" fill="#A7CEFC"/>
<path d="M315.99 350.708C318.817 361.261 317.495 372.108 314.048 386.106C306.666 409.931 284.484 433.421 261.048 458.279C247.096 473.027 232.705 488.323 220.149 504.761C199.871 528.472 184.051 554.386 168.71 579.397C156.126 599.929 144.272 619.318 131.054 635.633L130.845 635.861C94.7565 671.42 68.2159 651.782 20.012 616.101L19.4524 615.692L11.2033 608.914C-35.6311 570.287 -99.788 517.378 -157.584 436.832C-221.224 340.521 -203.295 263.552 -168.674 226.881C-131.756 187.702 -70.569 178.489 42.5148 195.064C121.692 207.996 199.131 242.982 272.671 299.01C299.384 321.139 311.947 335.621 315.99 350.708ZM126.693 632.286C139.629 616.262 151.4 597.066 163.817 576.752C179.241 551.546 195.238 525.456 215.684 501.528C228.291 484.947 242.839 469.566 256.896 454.704C279.925 430.342 301.647 407.319 308.617 384.809C316.539 352.926 312.536 339.161 269.028 303.212C196.238 247.799 119.663 213.184 41.4749 200.418C-69.4524 184.167 -129.161 192.855 -164.606 230.479C-200.522 268.529 -210.859 346.129 -152.946 433.826C-95.5954 513.717 -31.7764 566.372 14.8675 604.793L23.4546 611.825C71.9964 647.759 94.2192 664.21 126.693 632.286Z" fill="#A7CEFC"/>
<path d="M288.12 362.217C291.281 374.014 290.009 386.225 285.01 400.81L284.989 400.901C276.631 423.096 255.552 444.828 233.283 467.826C222.952 478.464 212.319 489.484 202.446 500.989C187.69 516.769 174.599 533.394 161.989 549.459C146.49 569.18 131.835 587.858 116.447 601.615C83.0852 627.369 57.292 609.681 18.6736 577.539C-18.7144 543.777 -73.3182 490.76 -116.293 419.359C-151.994 349.751 -154.06 291 -122.197 253.777C-87.881 213.618 -19.2615 202.93 66.0842 224.443C165.094 244.403 234.718 299.245 253.671 315.583C273.136 333.161 284.142 347.371 288.12 362.217ZM279.682 399.227C288.977 371.965 286.888 353.086 249.807 319.629C231.149 303.555 162.434 249.417 64.6656 229.726C-18.5537 208.761 -85.065 218.755 -117.867 257.176C-148.217 292.66 -145.859 349.312 -111.274 416.767C-68.7243 487.422 -14.5326 540.076 22.5488 573.533C62.2765 606.625 84.1644 619.812 112.902 597.619C127.736 584.312 142.224 565.851 157.588 546.295C170.302 530.115 183.413 513.4 198.284 497.545C208.147 486 218.905 474.946 229.267 464.257C251.055 441.646 271.706 420.33 279.682 399.227Z" fill="#A7CEFC"/>
<path d="M262.333 371.407C265.688 383.926 264.282 396.645 258.504 411.009L258.296 411.409C222.085 470.181 125.57 554.057 106.613 570.276L106.152 570.571C77.18 587.021 53.9771 573.628 21.3072 543.203C-8.14852 514.197 -49.4116 466.98 -78.951 406.602C-104.323 350.526 -103.085 303.102 -75.4769 272.998C-44.7991 239.576 13.3272 231.699 84 251.339C151.34 267.27 206.205 302.628 235.065 330.417C249.867 345.03 258.774 358.125 262.333 371.407ZM253.363 408.946C264.306 381.457 258.246 361.191 231.021 334.296C202.7 307.007 148.774 272.301 82.4339 256.575C14.8248 237.792 -42.5998 245.266 -71.2937 276.521C-97.3772 304.927 -98.3023 350.331 -73.815 404.279C-44.6058 463.929 -3.75587 510.611 25.3513 539.324C56.5945 568.454 77.2569 580.593 103.193 566.074C157.649 519.486 225.623 453.837 253.363 408.946Z" fill="#A7CEFC"/>
<path d="M238.611 380.085C242.202 393.487 240.651 406.332 233.981 417.537C207.764 462.235 142.396 518.972 100.083 541.878C90.1052 546.444 79.2284 546.649 67.7059 542.597C32.1905 530.095 -10.0169 476.164 -45.1898 398.287C-62.1592 353.592 -58.4552 315.872 -34.7619 291.977C-7.91363 264.914 40.1673 259.17 97.0982 276.213C169.429 298.849 221.452 335.183 236.364 373.376C237.281 375.625 238.02 377.878 238.611 380.085ZM-45.4938 379.187C-44.0101 384.725 -42.1788 390.384 -39.958 396.154C-5.44547 472.574 35.5891 525.486 69.7455 537.449C79.8777 541.013 89.2413 540.87 97.6158 537.034C139.059 514.576 203.382 458.808 229.13 414.88C236.008 403.275 236.703 389.585 231.131 375.338C216.795 338.624 166.03 303.458 95.3212 281.334C41.328 265.181 -5.78857 270.495 -30.7251 295.626C-49.8113 314.889 -54.8798 344.158 -45.4938 379.187Z" fill="#A7CEFC"/>
<path d="M215.193 385.027C218.526 397.466 217.264 409.544 211.411 420.273C190.663 458.517 137.067 503.111 96.7411 515.637L96.6572 515.659C59.1452 525.925 12.2968 474.486 -14.6556 393.373C-24.9446 358.5 -19.6662 329.175 0.307634 310.706C23.1974 289.521 61.7239 285.39 106.045 299.361C160.036 316.848 199.919 346.156 212.764 377.808C213.735 380.257 214.559 382.659 215.193 385.027ZM95.1756 510.465C134.284 498.266 186.301 454.998 206.436 417.822C212.621 406.488 212.984 393.403 207.522 379.9C195.243 349.689 156.606 321.508 104.142 304.516C61.8849 291.196 25.3947 294.867 4.09366 314.594C-14.2494 331.594 -19.0667 358.946 -9.33681 391.733C16.2661 468.648 61.2205 519.736 95.1756 510.465Z" fill="#A7CEFC"/>
<path d="M192.84 389.08C195.754 399.954 194.872 410.598 190.127 420.256C173.609 454.141 130.492 486.638 95.9312 491.297C62.6167 495.235 26.2084 451.362 13.0265 391.589C7.63401 365.252 13.6812 343.161 29.9938 329.329C48.6906 313.481 78.3427 310.482 111.304 321.175C149.931 333.876 179.401 356.385 190.145 381.373C191.285 383.949 192.152 386.512 192.84 389.08ZM20.7782 399.532C34.8196 451.936 66.5644 489.317 95.3417 485.907C127.603 481.563 169.537 449.856 185.079 418.039C190.187 407.553 190.147 395.651 184.966 383.535C174.808 359.895 146.544 338.525 109.39 326.289C78.3983 316.23 50.7931 318.81 33.6334 333.342C18.931 345.797 13.5667 366.071 18.5055 390.379C19.2387 393.451 19.9718 396.523 20.7782 399.532Z" fill="#A7CEFC"/>
<path d="M171.38 392.596C173.724 401.343 173.208 409.996 169.83 418.04C158.09 445.915 125.508 468.536 97.1933 468.468C69.1401 468.2 43.3358 434.689 38.4457 392.262C36.4089 373.412 42.2522 357.612 54.9103 347.769C69.2421 336.618 90.628 334.5 113.585 341.939C139.817 350.521 159.828 366.103 168.453 384.693C169.688 387.286 170.67 389.947 171.38 392.596ZM97.3604 463.047C123.069 463.126 153.881 441.624 164.637 416.12C168.461 407.054 168.012 396.982 163.348 386.964C155.416 369.952 136.113 354.997 111.702 347.002C90.6201 340.179 71.2187 341.98 58.4035 351.908C47.304 360.516 42.2178 374.608 44.0537 391.534C48.525 430.718 72.4603 462.795 97.3604 463.047Z" fill="#A7CEFC"/>
<path d="M150.556 395.809C152.18 401.868 152.112 408.165 149.963 414.245C142.938 434.534 120.408 449.172 99.7842 446.914C79.2334 444.594 62.2242 421.241 61.8864 394.796C61.7184 382.585 66.5755 372.338 75.4812 365.952C85.2975 358.935 99.1201 357.468 113.357 361.911C132.911 368.068 146.664 381.284 150.556 395.809ZM144.677 412.651C150.741 395.157 135.904 374.705 111.538 367.043C99.0702 363.158 87.0955 364.302 78.7968 370.268C71.398 375.562 67.3721 384.209 67.5083 394.623C67.8305 418.491 82.6504 439.55 100.551 441.548C118.672 443.531 138.458 430.574 144.677 412.651Z" fill="#A7CEFC"/>
<path d="M130.208 399.283C131.09 402.573 131.152 405.997 130.258 409.376C127.196 420.948 115.06 428.543 103.16 426.27C91.4063 424.044 82.7238 411.619 83.8333 398.635C84.3633 392.386 87.3585 387.111 92.3312 383.843C97.5654 380.377 104.528 379.5 111.403 381.485C121.121 384.343 128.068 391.298 130.208 399.283ZM90.1451 406.577C92.0911 413.84 97.5813 419.723 104.41 421.032C113.365 422.719 122.537 416.993 124.817 408.21C127.151 399.457 120.334 389.801 109.659 386.727C104.342 385.184 99.3214 385.755 95.4272 388.347C91.9098 390.665 89.778 394.462 89.3852 399.04C89.222 401.621 89.5 404.17 90.1451 406.577Z" fill="#A7CEFC"/>
</g>
</svg>
