<svg width="392" height="225" viewBox="0 0 392 225" fill="none" xmlns="http://www.w3.org/2000/svg">
<mask id="path-1-inside-1_1_1304" fill="white">
<path d="M0 0.769592H391.667V224.23H0V0.769592Z"/>
</mask>
<path d="M391.667 223.23H0V225.23H391.667V223.23Z" fill="#212529" mask="url(#path-1-inside-1_1_1304)"/>
<path d="M85.9999 13.4556L83.241 0.769592C63.3756 1.67962 49.6051 9.94494 49.6051 34.2517V62.2299H84.3105V27.0654H71.1667C71.1669 19.2662 76.0604 14.6789 85.9999 13.4556Z" fill="#043873"/>
<path d="M36.3949 13.4559L33.6359 0.769928C13.7705 1.67995 0 9.9455 0 34.2522V62.2304H34.7068V27.0658H21.5548C21.5548 19.2665 26.4483 14.6793 36.3949 13.4559Z" fill="#043873"/>
<path d="M3.96307 116.23L0.383523 103.139H1.99432L4.73011 113.801H4.85795L7.64489 103.139H9.43466L12.2216 113.801H12.3494L15.0852 103.139H16.696L13.1165 116.23H11.4801L8.59091 105.799H8.48864L5.59943 116.23H3.96307ZM19.6151 110.324V116.23H18.1066V103.139H19.6151V107.946H19.743C19.9731 107.439 20.3183 107.037 20.7785 106.738C21.243 106.436 21.8609 106.284 22.6322 106.284C23.3012 106.284 23.8872 106.419 24.39 106.687C24.8928 106.951 25.2828 107.358 25.5597 107.908C25.841 108.453 25.9816 109.148 25.9816 109.992V116.23H24.4731V110.094C24.4731 109.314 24.2707 108.711 23.8659 108.285C23.4653 107.855 22.9092 107.639 22.1975 107.639C21.7032 107.639 21.26 107.744 20.868 107.953C20.4802 108.162 20.1734 108.466 19.9475 108.867C19.7259 109.267 19.6151 109.753 19.6151 110.324ZM28.3814 116.23V106.412H29.8899V116.23H28.3814ZM29.1484 104.776C28.8544 104.776 28.6008 104.676 28.3878 104.475C28.179 104.275 28.0746 104.034 28.0746 103.753C28.0746 103.472 28.179 103.231 28.3878 103.031C28.6008 102.831 28.8544 102.73 29.1484 102.73C29.4425 102.73 29.6939 102.831 29.9027 103.031C30.1158 103.231 30.2223 103.472 30.2223 103.753C30.2223 104.034 30.1158 104.275 29.9027 104.475C29.6939 104.676 29.4425 104.776 29.1484 104.776ZM36.5628 106.412V107.691H31.4747V106.412H36.5628ZM32.9576 104.06H34.4662V113.418C34.4662 113.844 34.528 114.164 34.6515 114.377C34.7794 114.586 34.9413 114.726 35.1373 114.799C35.3376 114.867 35.5486 114.901 35.7701 114.901C35.9363 114.901 36.0727 114.892 36.1792 114.875C36.2858 114.854 36.371 114.837 36.4349 114.824L36.7417 116.179C36.6395 116.218 36.4967 116.256 36.3135 116.294C36.1302 116.337 35.898 116.358 35.6167 116.358C35.1906 116.358 34.773 116.267 34.3639 116.083C33.9591 115.9 33.6224 115.621 33.3539 115.246C33.0897 114.871 32.9576 114.398 32.9576 113.827V104.06ZM42.4829 116.435C41.5369 116.435 40.7209 116.226 40.0348 115.809C39.353 115.387 38.8267 114.799 38.456 114.044C38.0895 113.286 37.9062 112.404 37.9062 111.398C37.9062 110.392 38.0895 109.506 38.456 108.739C38.8267 107.968 39.3423 107.367 40.0028 106.936C40.6676 106.502 41.4432 106.284 42.3295 106.284C42.8409 106.284 43.3459 106.37 43.8444 106.54C44.343 106.711 44.7969 106.988 45.206 107.371C45.615 107.75 45.941 108.253 46.1839 108.88C46.4268 109.506 46.5483 110.277 46.5483 111.193V111.833H38.9801V110.529H45.0142C45.0142 109.975 44.9034 109.48 44.6818 109.046C44.4645 108.611 44.1534 108.268 43.7486 108.017C43.348 107.765 42.875 107.639 42.3295 107.639C41.7287 107.639 41.2088 107.789 40.7699 108.087C40.3352 108.381 40.0007 108.764 39.7663 109.238C39.5319 109.711 39.4148 110.218 39.4148 110.759V111.628C39.4148 112.37 39.5426 112.998 39.7983 113.514C40.0582 114.025 40.4183 114.415 40.8785 114.684C41.3388 114.948 41.8736 115.08 42.4829 115.08C42.8792 115.08 43.2372 115.024 43.5568 114.914C43.8807 114.799 44.1598 114.628 44.3942 114.402C44.6285 114.172 44.8096 113.887 44.9375 113.546L46.3949 113.955C46.2415 114.449 45.9837 114.884 45.6214 115.259C45.2592 115.63 44.8118 115.919 44.2791 116.128C43.7464 116.333 43.1477 116.435 42.4829 116.435ZM48.483 119.912V106.412H49.9404V107.972H50.1194C50.2302 107.801 50.3836 107.584 50.5796 107.32C50.7799 107.051 51.0654 106.813 51.4362 106.604C51.8112 106.391 52.3183 106.284 52.9575 106.284C53.7842 106.284 54.5129 106.491 55.1435 106.904C55.7742 107.318 56.2664 107.904 56.6201 108.662C56.9738 109.421 57.1506 110.316 57.1506 111.347C57.1506 112.387 56.9738 113.288 56.6201 114.051C56.2664 114.809 55.7764 115.397 55.1499 115.815C54.5235 116.228 53.8012 116.435 52.983 116.435C52.3523 116.435 51.8474 116.331 51.4681 116.122C51.0889 115.909 50.7969 115.668 50.5924 115.399C50.3879 115.127 50.2302 114.901 50.1194 114.722H49.9915V119.912H48.483ZM49.966 111.321C49.966 112.063 50.0746 112.717 50.292 113.284C50.5093 113.846 50.8268 114.287 51.2444 114.607C51.662 114.922 52.1734 115.08 52.7785 115.08C53.4092 115.08 53.9354 114.914 54.3573 114.581C54.7835 114.245 55.1031 113.793 55.3161 113.226C55.5335 112.655 55.6421 112.02 55.6421 111.321C55.6421 110.631 55.5356 110.009 55.3225 109.455C55.1137 108.897 54.7962 108.456 54.3701 108.132C53.9482 107.804 53.4177 107.639 52.7785 107.639C52.1648 107.639 51.6492 107.795 51.2316 108.106C50.814 108.413 50.4987 108.843 50.2856 109.397C50.0725 109.947 49.966 110.588 49.966 111.321ZM61.981 116.461C61.3588 116.461 60.7942 116.343 60.2871 116.109C59.78 115.87 59.3773 115.527 59.079 115.08C58.7807 114.628 58.6315 114.083 58.6315 113.443C58.6315 112.881 58.7423 112.425 58.9639 112.076C59.1855 111.722 59.4817 111.445 59.8524 111.245C60.2232 111.044 60.6323 110.895 61.0797 110.797C61.5314 110.695 61.9852 110.614 62.4412 110.554C63.0378 110.478 63.5215 110.42 63.8922 110.382C64.2672 110.339 64.5399 110.269 64.7104 110.171C64.8851 110.073 64.9725 109.902 64.9725 109.659V109.608C64.9725 108.978 64.7999 108.488 64.4547 108.138C64.1138 107.789 63.596 107.614 62.9014 107.614C62.1813 107.614 61.6166 107.772 61.2075 108.087C60.7985 108.402 60.5108 108.739 60.3446 109.097L58.9128 108.586C59.1685 107.989 59.5094 107.524 59.9355 107.192C60.3659 106.855 60.8347 106.621 61.3418 106.489C61.8531 106.353 62.356 106.284 62.8503 106.284C63.1656 106.284 63.5279 106.323 63.9369 106.399C64.3503 106.472 64.7487 106.623 65.1323 106.853C65.52 107.083 65.8418 107.431 66.0975 107.895C66.3531 108.36 66.481 108.982 66.481 109.762V116.23H64.9725V114.901H64.8958C64.7935 115.114 64.623 115.342 64.3844 115.585C64.1458 115.828 63.8283 116.034 63.432 116.205C63.0357 116.375 62.552 116.461 61.981 116.461ZM62.2111 115.105C62.8077 115.105 63.3105 114.988 63.7196 114.754C64.133 114.519 64.444 114.217 64.6529 113.846C64.8659 113.475 64.9725 113.086 64.9725 112.676V111.296C64.9085 111.372 64.7679 111.443 64.5506 111.507C64.3375 111.566 64.0904 111.62 63.8091 111.666C63.5321 111.709 63.2615 111.747 62.9973 111.782C62.7374 111.811 62.5264 111.837 62.3645 111.858C61.9725 111.909 61.606 111.992 61.2651 112.108C60.9284 112.218 60.6557 112.387 60.4469 112.613C60.2423 112.834 60.1401 113.137 60.1401 113.52C60.1401 114.044 60.334 114.441 60.7217 114.709C61.1138 114.973 61.6102 115.105 62.2111 115.105ZM73.1442 106.412V107.691H68.0562V106.412H73.1442ZM69.5391 104.06H71.0477V113.418C71.0477 113.844 71.1094 114.164 71.233 114.377C71.3609 114.586 71.5228 114.726 71.7188 114.799C71.9191 114.867 72.13 114.901 72.3516 114.901C72.5178 114.901 72.6542 114.892 72.7607 114.875C72.8673 114.854 72.9525 114.837 73.0164 114.824L73.3232 116.179C73.2209 116.218 73.0782 116.256 72.895 116.294C72.7117 116.337 72.4795 116.358 72.1982 116.358C71.7721 116.358 71.3545 116.267 70.9454 116.083C70.5406 115.9 70.2039 115.621 69.9354 115.246C69.6712 114.871 69.5391 114.398 69.5391 113.827V104.06ZM79.0644 116.435C78.1184 116.435 77.3024 116.226 76.6163 115.809C75.9345 115.387 75.4082 114.799 75.0374 114.044C74.671 113.286 74.4877 112.404 74.4877 111.398C74.4877 110.392 74.671 109.506 75.0374 108.739C75.4082 107.968 75.9238 107.367 76.5843 106.936C77.2491 106.502 78.0247 106.284 78.911 106.284C79.4224 106.284 79.9274 106.37 80.4259 106.54C80.9245 106.711 81.3783 106.988 81.7874 107.371C82.1965 107.75 82.5225 108.253 82.7654 108.88C83.0083 109.506 83.1298 110.277 83.1298 111.193V111.833H75.5616V110.529H81.5957C81.5957 109.975 81.4849 109.48 81.2633 109.046C81.046 108.611 80.7349 108.268 80.3301 108.017C79.9295 107.765 79.4565 107.639 78.911 107.639C78.3102 107.639 77.7903 107.789 77.3514 108.087C76.9167 108.381 76.5822 108.764 76.3478 109.238C76.1134 109.711 75.9962 110.218 75.9962 110.759V111.628C75.9962 112.37 76.1241 112.998 76.3798 113.514C76.6397 114.025 76.9998 114.415 77.46 114.684C77.9203 114.948 78.4551 115.08 79.0644 115.08C79.4607 115.08 79.8187 115.024 80.1383 114.914C80.4622 114.799 80.7413 114.628 80.9756 114.402C81.21 114.172 81.3911 113.887 81.519 113.546L82.9764 113.955C82.823 114.449 82.5651 114.884 82.2029 115.259C81.8407 115.63 81.3933 115.919 80.8606 116.128C80.3279 116.333 79.7292 116.435 79.0644 116.435ZM89.767 116.23V106.412H91.2755V116.23H89.767ZM90.5341 104.776C90.24 104.776 89.9865 104.676 89.7734 104.475C89.5646 104.275 89.4602 104.034 89.4602 103.753C89.4602 103.472 89.5646 103.231 89.7734 103.031C89.9865 102.831 90.24 102.73 90.5341 102.73C90.8281 102.73 91.0795 102.831 91.2883 103.031C91.5014 103.231 91.6079 103.472 91.6079 103.753C91.6079 104.034 91.5014 104.275 91.2883 104.475C91.0795 104.676 90.8281 104.776 90.5341 104.776ZM100.633 108.611L99.2779 108.995C99.1927 108.769 99.067 108.549 98.9008 108.336C98.7389 108.119 98.5173 107.94 98.236 107.799C97.9548 107.659 97.5947 107.588 97.1558 107.588C96.5549 107.588 96.0542 107.727 95.6536 108.004C95.2573 108.277 95.0592 108.624 95.0592 109.046C95.0592 109.421 95.1955 109.717 95.4683 109.934C95.741 110.152 96.1671 110.333 96.7467 110.478L98.2041 110.836C99.0819 111.049 99.736 111.375 100.166 111.814C100.597 112.248 100.812 112.809 100.812 113.495C100.812 114.057 100.65 114.56 100.326 115.003C100.007 115.446 99.5592 115.796 98.9839 116.051C98.4086 116.307 97.7396 116.435 96.9768 116.435C95.9754 116.435 95.1465 116.218 94.4903 115.783C93.834 115.348 93.4186 114.713 93.2438 113.878L94.6757 113.52C94.812 114.049 95.0698 114.445 95.4491 114.709C95.8326 114.973 96.3333 115.105 96.9512 115.105C97.6543 115.105 98.2126 114.956 98.6259 114.658C99.0436 114.355 99.2524 113.993 99.2524 113.571C99.2524 113.23 99.133 112.945 98.8944 112.715C98.6558 112.48 98.2893 112.306 97.795 112.191L96.1586 111.807C95.2595 111.594 94.5989 111.264 94.1771 110.816C93.7595 110.365 93.5507 109.8 93.5507 109.122C93.5507 108.568 93.7062 108.078 94.0173 107.652C94.3326 107.226 94.7609 106.892 95.3021 106.649C95.8475 106.406 96.4654 106.284 97.1558 106.284C98.1274 106.284 98.8901 106.497 99.4441 106.924C100.002 107.35 100.399 107.912 100.633 108.611ZM111.133 116.435C110.314 116.435 109.592 116.228 108.966 115.815C108.339 115.397 107.849 114.809 107.496 114.051C107.142 113.288 106.965 112.387 106.965 111.347C106.965 110.316 107.142 109.421 107.496 108.662C107.849 107.904 108.341 107.318 108.972 106.904C109.603 106.491 110.332 106.284 111.158 106.284C111.797 106.284 112.302 106.391 112.673 106.604C113.048 106.813 113.334 107.051 113.53 107.32C113.73 107.584 113.886 107.801 113.996 107.972H114.124V103.139H115.633V116.23H114.175V114.722H113.996C113.886 114.901 113.728 115.127 113.523 115.399C113.319 115.668 113.027 115.909 112.648 116.122C112.268 116.331 111.763 116.435 111.133 116.435ZM111.337 115.08C111.942 115.08 112.454 114.922 112.871 114.607C113.289 114.287 113.606 113.846 113.824 113.284C114.041 112.717 114.15 112.063 114.15 111.321C114.15 110.588 114.043 109.947 113.83 109.397C113.617 108.843 113.302 108.413 112.884 108.106C112.466 107.795 111.951 107.639 111.337 107.639C110.698 107.639 110.165 107.804 109.739 108.132C109.317 108.456 109 108.897 108.787 109.455C108.578 110.009 108.474 110.631 108.474 111.321C108.474 112.02 108.58 112.655 108.793 113.226C109.011 113.793 109.33 114.245 109.752 114.581C110.178 114.914 110.707 115.08 111.337 115.08ZM122.361 116.435C121.415 116.435 120.599 116.226 119.913 115.809C119.231 115.387 118.705 114.799 118.334 114.044C117.968 113.286 117.785 112.404 117.785 111.398C117.785 110.392 117.968 109.506 118.334 108.739C118.705 107.968 119.221 107.367 119.881 106.936C120.546 106.502 121.322 106.284 122.208 106.284C122.719 106.284 123.224 106.37 123.723 106.54C124.222 106.711 124.675 106.988 125.084 107.371C125.494 107.75 125.82 108.253 126.062 108.88C126.305 109.506 126.427 110.277 126.427 111.193V111.833H118.859V110.529H124.893C124.893 109.975 124.782 109.48 124.56 109.046C124.343 108.611 124.032 108.268 123.627 108.017C123.227 107.765 122.754 107.639 122.208 107.639C121.607 107.639 121.087 107.789 120.648 108.087C120.214 108.381 119.879 108.764 119.645 109.238C119.41 109.711 119.293 110.218 119.293 110.759V111.628C119.293 112.37 119.421 112.998 119.677 113.514C119.937 114.025 120.297 114.415 120.757 114.684C121.217 114.948 121.752 115.08 122.361 115.08C122.758 115.08 123.116 115.024 123.435 114.914C123.759 114.799 124.038 114.628 124.273 114.402C124.507 114.172 124.688 113.887 124.816 113.546L126.273 113.955C126.12 114.449 125.862 114.884 125.5 115.259C125.138 115.63 124.69 115.919 124.158 116.128C123.625 116.333 123.026 116.435 122.361 116.435ZM135.316 108.611L133.961 108.995C133.876 108.769 133.75 108.549 133.584 108.336C133.422 108.119 133.2 107.94 132.919 107.799C132.638 107.659 132.278 107.588 131.839 107.588C131.238 107.588 130.737 107.727 130.337 108.004C129.94 108.277 129.742 108.624 129.742 109.046C129.742 109.421 129.879 109.717 130.151 109.934C130.424 110.152 130.85 110.333 131.43 110.478L132.887 110.836C133.765 111.049 134.419 111.375 134.849 111.814C135.28 112.248 135.495 112.809 135.495 113.495C135.495 114.057 135.333 114.56 135.009 115.003C134.69 115.446 134.242 115.796 133.667 116.051C133.092 116.307 132.423 116.435 131.66 116.435C130.658 116.435 129.83 116.218 129.173 115.783C128.517 115.348 128.102 114.713 127.927 113.878L129.359 113.52C129.495 114.049 129.753 114.445 130.132 114.709C130.516 114.973 131.016 115.105 131.634 115.105C132.337 115.105 132.896 114.956 133.309 114.658C133.727 114.355 133.935 113.993 133.935 113.571C133.935 113.23 133.816 112.945 133.577 112.715C133.339 112.48 132.972 112.306 132.478 112.191L130.842 111.807C129.943 111.594 129.282 111.264 128.86 110.816C128.443 110.365 128.234 109.8 128.234 109.122C128.234 108.568 128.389 108.078 128.7 107.652C129.016 107.226 129.444 106.892 129.985 106.649C130.531 106.406 131.148 106.284 131.839 106.284C132.81 106.284 133.573 106.497 134.127 106.924C134.685 107.35 135.082 107.912 135.316 108.611ZM137.406 116.23V106.412H138.914V116.23H137.406ZM138.173 104.776C137.879 104.776 137.625 104.676 137.412 104.475C137.203 104.275 137.099 104.034 137.099 103.753C137.099 103.472 137.203 103.231 137.412 103.031C137.625 102.831 137.879 102.73 138.173 102.73C138.467 102.73 138.718 102.831 138.927 103.031C139.14 103.231 139.247 103.472 139.247 103.753C139.247 104.034 139.14 104.275 138.927 104.475C138.718 104.676 138.467 104.776 138.173 104.776ZM145.28 120.117C144.552 120.117 143.925 120.023 143.401 119.836C142.877 119.652 142.44 119.409 142.091 119.107C141.746 118.809 141.471 118.489 141.266 118.148L142.468 117.304C142.604 117.483 142.777 117.688 142.986 117.918C143.194 118.152 143.48 118.355 143.842 118.525C144.209 118.7 144.688 118.787 145.28 118.787C146.073 118.787 146.727 118.595 147.243 118.212C147.758 117.828 148.016 117.228 148.016 116.409V114.415H147.888C147.778 114.594 147.62 114.816 147.415 115.08C147.215 115.34 146.925 115.572 146.546 115.777C146.171 115.977 145.664 116.077 145.025 116.077C144.232 116.077 143.52 115.889 142.89 115.514C142.263 115.139 141.767 114.594 141.4 113.878C141.038 113.162 140.857 112.293 140.857 111.27C140.857 110.264 141.034 109.389 141.388 108.643C141.741 107.893 142.234 107.314 142.864 106.904C143.495 106.491 144.224 106.284 145.05 106.284C145.689 106.284 146.197 106.391 146.572 106.604C146.951 106.813 147.241 107.051 147.441 107.32C147.645 107.584 147.803 107.801 147.914 107.972H148.067V106.412H149.525V116.512C149.525 117.355 149.333 118.041 148.949 118.57C148.57 119.103 148.059 119.492 147.415 119.74C146.776 119.991 146.064 120.117 145.28 120.117ZM145.229 114.722C145.834 114.722 146.346 114.583 146.763 114.306C147.181 114.029 147.498 113.631 147.716 113.111C147.933 112.591 148.042 111.969 148.042 111.245C148.042 110.537 147.935 109.913 147.722 109.372C147.509 108.831 147.194 108.407 146.776 108.1C146.359 107.793 145.843 107.639 145.229 107.639C144.59 107.639 144.057 107.801 143.631 108.125C143.209 108.449 142.892 108.884 142.679 109.429C142.47 109.975 142.366 110.58 142.366 111.245C142.366 111.926 142.472 112.529 142.685 113.054C142.903 113.573 143.222 113.983 143.644 114.281C144.07 114.575 144.599 114.722 145.229 114.722ZM153.435 110.324V116.23H151.926V106.412H153.383V107.946H153.511C153.741 107.448 154.091 107.047 154.56 106.745C155.028 106.438 155.633 106.284 156.375 106.284C157.04 106.284 157.621 106.421 158.12 106.693C158.619 106.962 159.006 107.371 159.283 107.921C159.56 108.466 159.699 109.157 159.699 109.992V116.23H158.19V110.094C158.19 109.323 157.99 108.722 157.589 108.291C157.189 107.857 156.639 107.639 155.94 107.639C155.459 107.639 155.028 107.744 154.649 107.953C154.274 108.162 153.978 108.466 153.761 108.867C153.543 109.267 153.435 109.753 153.435 110.324ZM166.212 116.435C165.266 116.435 164.45 116.226 163.764 115.809C163.082 115.387 162.556 114.799 162.185 114.044C161.818 113.286 161.635 112.404 161.635 111.398C161.635 110.392 161.818 109.506 162.185 108.739C162.556 107.968 163.071 107.367 163.732 106.936C164.397 106.502 165.172 106.284 166.058 106.284C166.57 106.284 167.075 106.37 167.573 106.54C168.072 106.711 168.526 106.988 168.935 107.371C169.344 107.75 169.67 108.253 169.913 108.88C170.156 109.506 170.277 110.277 170.277 111.193V111.833H162.709V110.529H168.743C168.743 109.975 168.632 109.48 168.411 109.046C168.193 108.611 167.882 108.268 167.477 108.017C167.077 107.765 166.604 107.639 166.058 107.639C165.458 107.639 164.938 107.789 164.499 108.087C164.064 108.381 163.73 108.764 163.495 109.238C163.261 109.711 163.144 110.218 163.144 110.759V111.628C163.144 112.37 163.272 112.998 163.527 113.514C163.787 114.025 164.147 114.415 164.607 114.684C165.068 114.948 165.602 115.08 166.212 115.08C166.608 115.08 166.966 115.024 167.286 114.914C167.61 114.799 167.889 114.628 168.123 114.402C168.357 114.172 168.539 113.887 168.666 113.546L170.124 113.955C169.97 114.449 169.713 114.884 169.35 115.259C168.988 115.63 168.541 115.919 168.008 116.128C167.475 116.333 166.877 116.435 166.212 116.435ZM175.919 116.435C175.101 116.435 174.379 116.228 173.752 115.815C173.126 115.397 172.636 114.809 172.282 114.051C171.929 113.288 171.752 112.387 171.752 111.347C171.752 110.316 171.929 109.421 172.282 108.662C172.636 107.904 173.128 107.318 173.759 106.904C174.389 106.491 175.118 106.284 175.945 106.284C176.584 106.284 177.089 106.391 177.46 106.604C177.835 106.813 178.12 107.051 178.316 107.32C178.517 107.584 178.672 107.801 178.783 107.972H178.911V103.139H180.419V116.23H178.962V114.722H178.783C178.672 114.901 178.514 115.127 178.31 115.399C178.105 115.668 177.813 115.909 177.434 116.122C177.055 116.331 176.55 116.435 175.919 116.435ZM176.124 115.08C176.729 115.08 177.24 114.922 177.658 114.607C178.076 114.287 178.393 113.846 178.61 113.284C178.828 112.717 178.936 112.063 178.936 111.321C178.936 110.588 178.83 109.947 178.617 109.397C178.404 108.843 178.088 108.413 177.671 108.106C177.253 107.795 176.738 107.639 176.124 107.639C175.485 107.639 174.952 107.804 174.526 108.132C174.104 108.456 173.787 108.897 173.573 109.455C173.365 110.009 173.26 110.631 173.26 111.321C173.26 112.02 173.367 112.655 173.58 113.226C173.797 113.793 174.117 114.245 174.539 114.581C174.965 114.914 175.493 115.08 176.124 115.08ZM190.623 116.461C190.001 116.461 189.437 116.343 188.929 116.109C188.422 115.87 188.02 115.527 187.721 115.08C187.423 114.628 187.274 114.083 187.274 113.443C187.274 112.881 187.385 112.425 187.606 112.076C187.828 111.722 188.124 111.445 188.495 111.245C188.866 111.044 189.275 110.895 189.722 110.797C190.174 110.695 190.628 110.614 191.084 110.554C191.68 110.478 192.164 110.42 192.535 110.382C192.91 110.339 193.182 110.269 193.353 110.171C193.527 110.073 193.615 109.902 193.615 109.659V109.608C193.615 108.978 193.442 108.488 193.097 108.138C192.756 107.789 192.238 107.614 191.544 107.614C190.824 107.614 190.259 107.772 189.85 108.087C189.441 108.402 189.153 108.739 188.987 109.097L187.555 108.586C187.811 107.989 188.152 107.524 188.578 107.192C189.008 106.855 189.477 106.621 189.984 106.489C190.495 106.353 190.998 106.284 191.493 106.284C191.808 106.284 192.17 106.323 192.579 106.399C192.993 106.472 193.391 106.623 193.775 106.853C194.162 107.083 194.484 107.431 194.74 107.895C194.995 108.36 195.123 108.982 195.123 109.762V116.23H193.615V114.901H193.538C193.436 115.114 193.265 115.342 193.027 115.585C192.788 115.828 192.471 116.034 192.074 116.205C191.678 116.375 191.194 116.461 190.623 116.461ZM190.853 115.105C191.45 115.105 191.953 114.988 192.362 114.754C192.775 114.519 193.086 114.217 193.295 113.846C193.508 113.475 193.615 113.086 193.615 112.676V111.296C193.551 111.372 193.41 111.443 193.193 111.507C192.98 111.566 192.733 111.62 192.451 111.666C192.174 111.709 191.904 111.747 191.64 111.782C191.38 111.811 191.169 111.837 191.007 111.858C190.615 111.909 190.248 111.992 189.907 112.108C189.571 112.218 189.298 112.387 189.089 112.613C188.885 112.834 188.782 113.137 188.782 113.52C188.782 114.044 188.976 114.441 189.364 114.709C189.756 114.973 190.253 115.105 190.853 115.105ZM204.471 108.611L203.116 108.995C203.031 108.769 202.905 108.549 202.739 108.336C202.577 108.119 202.355 107.94 202.074 107.799C201.793 107.659 201.433 107.588 200.994 107.588C200.393 107.588 199.892 107.727 199.492 108.004C199.096 108.277 198.897 108.624 198.897 109.046C198.897 109.421 199.034 109.717 199.306 109.934C199.579 110.152 200.005 110.333 200.585 110.478L202.042 110.836C202.92 111.049 203.574 111.375 204.005 111.814C204.435 112.248 204.65 112.809 204.65 113.495C204.65 114.057 204.488 114.56 204.164 115.003C203.845 115.446 203.397 115.796 202.822 116.051C202.247 116.307 201.578 116.435 200.815 116.435C199.814 116.435 198.985 116.218 198.328 115.783C197.672 115.348 197.257 114.713 197.082 113.878L198.514 113.52C198.65 114.049 198.908 114.445 199.287 114.709C199.671 114.973 200.172 115.105 200.789 115.105C201.493 115.105 202.051 114.956 202.464 114.658C202.882 114.355 203.091 113.993 203.091 113.571C203.091 113.23 202.971 112.945 202.733 112.715C202.494 112.48 202.127 112.306 201.633 112.191L199.997 111.807C199.098 111.594 198.437 111.264 198.015 110.816C197.598 110.365 197.389 109.8 197.389 109.122C197.389 108.568 197.544 108.078 197.855 107.652C198.171 107.226 198.599 106.892 199.14 106.649C199.686 106.406 200.304 106.284 200.994 106.284C201.966 106.284 202.728 106.497 203.282 106.924C203.841 107.35 204.237 107.912 204.471 108.611ZM214.153 116.461C213.531 116.461 212.966 116.343 212.459 116.109C211.952 115.87 211.549 115.527 211.251 115.08C210.952 114.628 210.803 114.083 210.803 113.443C210.803 112.881 210.914 112.425 211.136 112.076C211.357 111.722 211.653 111.445 212.024 111.245C212.395 111.044 212.804 110.895 213.251 110.797C213.703 110.695 214.157 110.614 214.613 110.554C215.21 110.478 215.693 110.42 216.064 110.382C216.439 110.339 216.712 110.269 216.882 110.171C217.057 110.073 217.144 109.902 217.144 109.659V109.608C217.144 108.978 216.972 108.488 216.626 108.138C216.286 107.789 215.768 107.614 215.073 107.614C214.353 107.614 213.788 107.772 213.379 108.087C212.97 108.402 212.683 108.739 212.516 109.097L211.085 108.586C211.34 107.989 211.681 107.524 212.107 107.192C212.538 106.855 213.006 106.621 213.513 106.489C214.025 106.353 214.528 106.284 215.022 106.284C215.337 106.284 215.7 106.323 216.109 106.399C216.522 106.472 216.92 106.623 217.304 106.853C217.692 107.083 218.013 107.431 218.269 107.895C218.525 108.36 218.653 108.982 218.653 109.762V116.23H217.144V114.901H217.067C216.965 115.114 216.795 115.342 216.556 115.585C216.317 115.828 216 116.034 215.604 116.205C215.207 116.375 214.724 116.461 214.153 116.461ZM214.383 115.105C214.979 115.105 215.482 114.988 215.891 114.754C216.305 114.519 216.616 114.217 216.825 113.846C217.038 113.475 217.144 113.086 217.144 112.676V111.296C217.08 111.372 216.94 111.443 216.722 111.507C216.509 111.566 216.262 111.62 215.981 111.666C215.704 111.709 215.433 111.747 215.169 111.782C214.909 111.811 214.698 111.837 214.536 111.858C214.144 111.909 213.778 111.992 213.437 112.108C213.1 112.218 212.827 112.387 212.619 112.613C212.414 112.834 212.312 113.137 212.312 113.52C212.312 114.044 212.506 114.441 212.893 114.709C213.286 114.973 213.782 115.105 214.383 115.105ZM229.737 116.435C228.817 116.435 228.024 116.218 227.359 115.783C226.695 115.348 226.183 114.75 225.825 113.987C225.467 113.224 225.288 112.353 225.288 111.372C225.288 110.375 225.472 109.495 225.838 108.733C226.209 107.965 226.724 107.367 227.385 106.936C228.05 106.502 228.825 106.284 229.712 106.284C230.402 106.284 231.024 106.412 231.578 106.668C232.132 106.924 232.586 107.282 232.94 107.742C233.293 108.202 233.513 108.739 233.598 109.353H232.089C231.974 108.905 231.719 108.509 231.322 108.164C230.93 107.814 230.402 107.639 229.737 107.639C229.149 107.639 228.634 107.793 228.19 108.1C227.751 108.402 227.408 108.831 227.161 109.385C226.918 109.934 226.797 110.58 226.797 111.321C226.797 112.08 226.916 112.74 227.155 113.303C227.398 113.865 227.739 114.302 228.178 114.613C228.621 114.924 229.141 115.08 229.737 115.08C230.129 115.08 230.485 115.012 230.805 114.875C231.124 114.739 231.395 114.543 231.616 114.287C231.838 114.032 231.996 113.725 232.089 113.367H233.598C233.513 113.946 233.302 114.468 232.965 114.933C232.633 115.393 232.192 115.76 231.642 116.032C231.097 116.301 230.462 116.435 229.737 116.435ZM239.432 116.435C238.546 116.435 237.768 116.224 237.099 115.802C236.434 115.38 235.914 114.79 235.539 114.032C235.168 113.273 234.983 112.387 234.983 111.372C234.983 110.35 235.168 109.457 235.539 108.694C235.914 107.931 236.434 107.339 237.099 106.917C237.768 106.495 238.546 106.284 239.432 106.284C240.318 106.284 241.094 106.495 241.759 106.917C242.428 107.339 242.948 107.931 243.318 108.694C243.693 109.457 243.881 110.35 243.881 111.372C243.881 112.387 243.693 113.273 243.318 114.032C242.948 114.79 242.428 115.38 241.759 115.802C241.094 116.224 240.318 116.435 239.432 116.435ZM239.432 115.08C240.105 115.08 240.659 114.907 241.094 114.562C241.528 114.217 241.85 113.763 242.059 113.201C242.268 112.638 242.372 112.029 242.372 111.372C242.372 110.716 242.268 110.105 242.059 109.538C241.85 108.971 241.528 108.513 241.094 108.164C240.659 107.814 240.105 107.639 239.432 107.639C238.759 107.639 238.205 107.814 237.77 108.164C237.335 108.513 237.014 108.971 236.805 109.538C236.596 110.105 236.492 110.716 236.492 111.372C236.492 112.029 236.596 112.638 236.805 113.201C237.014 113.763 237.335 114.217 237.77 114.562C238.205 114.907 238.759 115.08 239.432 115.08ZM247.332 103.139V116.23H245.823V103.139H247.332ZM251.243 103.139V116.23H249.735V103.139H251.243ZM256.536 116.461C255.914 116.461 255.349 116.343 254.842 116.109C254.335 115.87 253.932 115.527 253.634 115.08C253.335 114.628 253.186 114.083 253.186 113.443C253.186 112.881 253.297 112.425 253.519 112.076C253.74 111.722 254.036 111.445 254.407 111.245C254.778 111.044 255.187 110.895 255.634 110.797C256.086 110.695 256.54 110.614 256.996 110.554C257.592 110.478 258.076 110.42 258.447 110.382C258.822 110.339 259.095 110.269 259.265 110.171C259.44 110.073 259.527 109.902 259.527 109.659V109.608C259.527 108.978 259.355 108.488 259.009 108.138C258.668 107.789 258.151 107.614 257.456 107.614C256.736 107.614 256.171 107.772 255.762 108.087C255.353 108.402 255.065 108.739 254.899 109.097L253.467 108.586C253.723 107.989 254.064 107.524 254.49 107.192C254.921 106.855 255.389 106.621 255.896 106.489C256.408 106.353 256.911 106.284 257.405 106.284C257.72 106.284 258.083 106.323 258.492 106.399C258.905 106.472 259.303 106.623 259.687 106.853C260.075 107.083 260.396 107.431 260.652 107.895C260.908 108.36 261.036 108.982 261.036 109.762V116.23H259.527V114.901H259.45C259.348 115.114 259.178 115.342 258.939 115.585C258.7 115.828 258.383 116.034 257.987 116.205C257.59 116.375 257.107 116.461 256.536 116.461ZM256.766 115.105C257.362 115.105 257.865 114.988 258.274 114.754C258.688 114.519 258.999 114.217 259.208 113.846C259.421 113.475 259.527 113.086 259.527 112.676V111.296C259.463 111.372 259.323 111.443 259.105 111.507C258.892 111.566 258.645 111.62 258.364 111.666C258.087 111.709 257.816 111.747 257.552 111.782C257.292 111.811 257.081 111.837 256.919 111.858C256.527 111.909 256.161 111.992 255.82 112.108C255.483 112.218 255.21 112.387 255.002 112.613C254.797 112.834 254.695 113.137 254.695 113.52C254.695 114.044 254.889 114.441 255.276 114.709C255.668 114.973 256.165 115.105 256.766 115.105ZM263.634 116.23V103.139H265.142V107.972H265.27C265.381 107.801 265.534 107.584 265.73 107.32C265.93 107.051 266.216 106.813 266.587 106.604C266.962 106.391 267.469 106.284 268.108 106.284C268.935 106.284 269.663 106.491 270.294 106.904C270.925 107.318 271.417 107.904 271.771 108.662C272.124 109.421 272.301 110.316 272.301 111.347C272.301 112.387 272.124 113.288 271.771 114.051C271.417 114.809 270.927 115.397 270.301 115.815C269.674 116.228 268.952 116.435 268.134 116.435C267.503 116.435 266.998 116.331 266.619 116.122C266.239 115.909 265.948 115.668 265.743 115.399C265.538 115.127 265.381 114.901 265.27 114.722H265.091V116.23H263.634ZM265.117 111.321C265.117 112.063 265.225 112.717 265.443 113.284C265.66 113.846 265.977 114.287 266.395 114.607C266.813 114.922 267.324 115.08 267.929 115.08C268.56 115.08 269.086 114.914 269.508 114.581C269.934 114.245 270.254 113.793 270.467 113.226C270.684 112.655 270.793 112.02 270.793 111.321C270.793 110.631 270.686 110.009 270.473 109.455C270.264 108.897 269.947 108.456 269.521 108.132C269.099 107.804 268.568 107.639 267.929 107.639C267.315 107.639 266.8 107.795 266.382 108.106C265.965 108.413 265.649 108.843 265.436 109.397C265.223 109.947 265.117 110.588 265.117 111.321ZM278.237 116.435C277.351 116.435 276.573 116.224 275.904 115.802C275.239 115.38 274.72 114.79 274.345 114.032C273.974 113.273 273.788 112.387 273.788 111.372C273.788 110.35 273.974 109.457 274.345 108.694C274.72 107.931 275.239 107.339 275.904 106.917C276.573 106.495 277.351 106.284 278.237 106.284C279.124 106.284 279.899 106.495 280.564 106.917C281.233 107.339 281.753 107.931 282.124 108.694C282.499 109.457 282.686 110.35 282.686 111.372C282.686 112.387 282.499 113.273 282.124 114.032C281.753 114.79 281.233 115.38 280.564 115.802C279.899 116.224 279.124 116.435 278.237 116.435ZM278.237 115.08C278.911 115.08 279.465 114.907 279.899 114.562C280.334 114.217 280.656 113.763 280.864 113.201C281.073 112.638 281.178 112.029 281.178 111.372C281.178 110.716 281.073 110.105 280.864 109.538C280.656 108.971 280.334 108.513 279.899 108.164C279.465 107.814 278.911 107.639 278.237 107.639C277.564 107.639 277.01 107.814 276.575 108.164C276.141 108.513 275.819 108.971 275.61 109.538C275.401 110.105 275.297 110.716 275.297 111.372C275.297 112.029 275.401 112.638 275.61 113.201C275.819 113.763 276.141 114.217 276.575 114.562C277.01 114.907 277.564 115.08 278.237 115.08ZM284.629 116.23V106.412H286.086V107.895H286.189C286.368 107.409 286.691 107.015 287.16 106.713C287.629 106.41 288.157 106.259 288.745 106.259C288.856 106.259 288.995 106.261 289.161 106.265C289.327 106.269 289.453 106.276 289.538 106.284V107.818C289.487 107.806 289.37 107.787 289.187 107.761C289.008 107.731 288.818 107.716 288.618 107.716C288.14 107.716 287.714 107.816 287.339 108.017C286.968 108.213 286.674 108.485 286.457 108.835C286.244 109.18 286.137 109.574 286.137 110.017V116.23H284.629ZM293.855 116.461C293.233 116.461 292.669 116.343 292.162 116.109C291.654 115.87 291.252 115.527 290.953 115.08C290.655 114.628 290.506 114.083 290.506 113.443C290.506 112.881 290.617 112.425 290.838 112.076C291.06 111.722 291.356 111.445 291.727 111.245C292.098 111.044 292.507 110.895 292.954 110.797C293.406 110.695 293.86 110.614 294.316 110.554C294.912 110.478 295.396 110.42 295.767 110.382C296.142 110.339 296.414 110.269 296.585 110.171C296.76 110.073 296.847 109.902 296.847 109.659V109.608C296.847 108.978 296.674 108.488 296.329 108.138C295.988 107.789 295.47 107.614 294.776 107.614C294.056 107.614 293.491 107.772 293.082 108.087C292.673 108.402 292.385 108.739 292.219 109.097L290.787 108.586C291.043 107.989 291.384 107.524 291.81 107.192C292.24 106.855 292.709 106.621 293.216 106.489C293.728 106.353 294.23 106.284 294.725 106.284C295.04 106.284 295.402 106.323 295.811 106.399C296.225 106.472 296.623 106.623 297.007 106.853C297.394 107.083 297.716 107.431 297.972 107.895C298.228 108.36 298.355 108.982 298.355 109.762V116.23H296.847V114.901H296.77C296.668 115.114 296.497 115.342 296.259 115.585C296.02 115.828 295.703 116.034 295.306 116.205C294.91 116.375 294.426 116.461 293.855 116.461ZM294.086 115.105C294.682 115.105 295.185 114.988 295.594 114.754C296.007 114.519 296.318 114.217 296.527 113.846C296.74 113.475 296.847 113.086 296.847 112.676V111.296C296.783 111.372 296.642 111.443 296.425 111.507C296.212 111.566 295.965 111.62 295.684 111.666C295.407 111.709 295.136 111.747 294.872 111.782C294.612 111.811 294.401 111.837 294.239 111.858C293.847 111.909 293.48 111.992 293.14 112.108C292.803 112.218 292.53 112.387 292.321 112.613C292.117 112.834 292.015 113.137 292.015 113.52C292.015 114.044 292.208 114.441 292.596 114.709C292.988 114.973 293.485 115.105 294.086 115.105ZM305.019 106.412V107.691H299.931V106.412H305.019ZM301.414 104.06H302.922V113.418C302.922 113.844 302.984 114.164 303.107 114.377C303.235 114.586 303.397 114.726 303.593 114.799C303.794 114.867 304.004 114.901 304.226 114.901C304.392 114.901 304.529 114.892 304.635 114.875C304.742 114.854 304.827 114.837 304.891 114.824L305.198 116.179C305.095 116.218 304.953 116.256 304.769 116.294C304.586 116.337 304.354 116.358 304.073 116.358C303.647 116.358 303.229 116.267 302.82 116.083C302.415 115.9 302.078 115.621 301.81 115.246C301.546 114.871 301.414 114.398 301.414 113.827V104.06ZM306.928 116.23V106.412H308.436V116.23H306.928ZM307.695 104.776C307.401 104.776 307.147 104.676 306.934 104.475C306.725 104.275 306.621 104.034 306.621 103.753C306.621 103.472 306.725 103.231 306.934 103.031C307.147 102.831 307.401 102.73 307.695 102.73C307.989 102.73 308.24 102.831 308.449 103.031C308.662 103.231 308.769 103.472 308.769 103.753C308.769 104.034 308.662 104.275 308.449 104.475C308.24 104.676 307.989 104.776 307.695 104.776ZM314.828 116.435C313.942 116.435 313.164 116.224 312.495 115.802C311.83 115.38 311.31 114.79 310.935 114.032C310.565 113.273 310.379 112.387 310.379 111.372C310.379 110.35 310.565 109.457 310.935 108.694C311.31 107.931 311.83 107.339 312.495 106.917C313.164 106.495 313.942 106.284 314.828 106.284C315.714 106.284 316.49 106.495 317.155 106.917C317.824 107.339 318.344 107.931 318.714 108.694C319.089 109.457 319.277 110.35 319.277 111.372C319.277 112.387 319.089 113.273 318.714 114.032C318.344 114.79 317.824 115.38 317.155 115.802C316.49 116.224 315.714 116.435 314.828 116.435ZM314.828 115.08C315.501 115.08 316.055 114.907 316.49 114.562C316.925 114.217 317.246 113.763 317.455 113.201C317.664 112.638 317.768 112.029 317.768 111.372C317.768 110.716 317.664 110.105 317.455 109.538C317.246 108.971 316.925 108.513 316.49 108.164C316.055 107.814 315.501 107.639 314.828 107.639C314.155 107.639 313.601 107.814 313.166 108.164C312.731 108.513 312.41 108.971 312.201 109.538C311.992 110.105 311.888 110.716 311.888 111.372C311.888 112.029 311.992 112.638 312.201 113.201C312.41 113.763 312.731 114.217 313.166 114.562C313.601 114.907 314.155 115.08 314.828 115.08ZM322.728 110.324V116.23H321.22V106.412H322.677V107.946H322.805C323.035 107.448 323.384 107.047 323.853 106.745C324.322 106.438 324.927 106.284 325.668 106.284C326.333 106.284 326.915 106.421 327.413 106.693C327.912 106.962 328.3 107.371 328.577 107.921C328.854 108.466 328.992 109.157 328.992 109.992V116.23H327.484V110.094C327.484 109.323 327.284 108.722 326.883 108.291C326.482 107.857 325.933 107.639 325.234 107.639C324.752 107.639 324.322 107.744 323.943 107.953C323.568 108.162 323.271 108.466 323.054 108.867C322.837 109.267 322.728 109.753 322.728 110.324ZM340.361 106.412V107.691H335.273V106.412H340.361ZM336.756 104.06H338.265V113.418C338.265 113.844 338.326 114.164 338.45 114.377C338.578 114.586 338.74 114.726 338.936 114.799C339.136 114.867 339.347 114.901 339.569 114.901C339.735 114.901 339.871 114.892 339.978 114.875C340.084 114.854 340.17 114.837 340.233 114.824L340.54 116.179C340.438 116.218 340.295 116.256 340.112 116.294C339.929 116.337 339.696 116.358 339.415 116.358C338.989 116.358 338.571 116.267 338.162 116.083C337.758 115.9 337.421 115.621 337.152 115.246C336.888 114.871 336.756 114.398 336.756 113.827V104.06ZM346.154 116.435C345.267 116.435 344.49 116.224 343.821 115.802C343.156 115.38 342.636 114.79 342.261 114.032C341.89 113.273 341.705 112.387 341.705 111.372C341.705 110.35 341.89 109.457 342.261 108.694C342.636 107.931 343.156 107.339 343.821 106.917C344.49 106.495 345.267 106.284 346.154 106.284C347.04 106.284 347.816 106.495 348.48 106.917C349.149 107.339 349.669 107.931 350.04 108.694C350.415 109.457 350.602 110.35 350.602 111.372C350.602 112.387 350.415 113.273 350.04 114.032C349.669 114.79 349.149 115.38 348.48 115.802C347.816 116.224 347.04 116.435 346.154 116.435ZM346.154 115.08C346.827 115.08 347.381 114.907 347.816 114.562C348.25 114.217 348.572 113.763 348.781 113.201C348.99 112.638 349.094 112.029 349.094 111.372C349.094 110.716 348.99 110.105 348.781 109.538C348.572 108.971 348.25 108.513 347.816 108.164C347.381 107.814 346.827 107.639 346.154 107.639C345.48 107.639 344.926 107.814 344.492 108.164C344.057 108.513 343.735 108.971 343.526 109.538C343.318 110.105 343.213 110.716 343.213 111.372C343.213 112.029 343.318 112.638 343.526 113.201C343.735 113.763 344.057 114.217 344.492 114.562C344.926 114.907 345.48 115.08 346.154 115.08ZM356.534 116.435C355.647 116.435 354.87 116.224 354.201 115.802C353.536 115.38 353.016 114.79 352.641 114.032C352.27 113.273 352.085 112.387 352.085 111.372C352.085 110.35 352.27 109.457 352.641 108.694C353.016 107.931 353.536 107.339 354.201 106.917C354.87 106.495 355.647 106.284 356.534 106.284C357.42 106.284 358.196 106.495 358.861 106.917C359.53 107.339 360.049 107.931 360.42 108.694C360.795 109.457 360.983 110.35 360.983 111.372C360.983 112.387 360.795 113.273 360.42 114.032C360.049 114.79 359.53 115.38 358.861 115.802C358.196 116.224 357.42 116.435 356.534 116.435ZM356.534 115.08C357.207 115.08 357.761 114.907 358.196 114.562C358.63 114.217 358.952 113.763 359.161 113.201C359.37 112.638 359.474 112.029 359.474 111.372C359.474 110.716 359.37 110.105 359.161 109.538C358.952 108.971 358.63 108.513 358.196 108.164C357.761 107.814 357.207 107.639 356.534 107.639C355.861 107.639 355.307 107.814 354.872 108.164C354.437 108.513 354.116 108.971 353.907 109.538C353.698 110.105 353.593 110.716 353.593 111.372C353.593 112.029 353.698 112.638 353.907 113.201C354.116 113.763 354.437 114.217 354.872 114.562C355.307 114.907 355.861 115.08 356.534 115.08ZM364.434 103.139V116.23H362.925V103.139H364.434ZM5.75284 136.412V137.691H0.460227V136.412H5.75284ZM2.04545 146.23V135.057C2.04545 134.495 2.17756 134.026 2.44176 133.651C2.70597 133.276 3.04901 132.995 3.47088 132.807C3.89276 132.62 4.33807 132.526 4.80682 132.526C5.17756 132.526 5.48011 132.556 5.71449 132.615C5.94886 132.675 6.12358 132.73 6.23864 132.782L5.80398 134.086C5.72727 134.06 5.62074 134.028 5.48438 133.99C5.35227 133.951 5.17756 133.932 4.96023 133.932C4.46165 133.932 4.10156 134.058 3.87997 134.309C3.66264 134.561 3.55398 134.929 3.55398 135.415V146.23H2.04545ZM11.0913 146.435C10.205 146.435 9.42729 146.224 8.75825 145.802C8.09348 145.38 7.57359 144.79 7.19859 144.032C6.82786 143.273 6.64249 142.387 6.64249 141.372C6.64249 140.35 6.82786 139.457 7.19859 138.694C7.57359 137.931 8.09348 137.339 8.75825 136.917C9.42729 136.495 10.205 136.284 11.0913 136.284C11.9777 136.284 12.7533 136.495 13.4181 136.917C14.0871 137.339 14.607 137.931 14.9777 138.694C15.3527 139.457 15.5402 140.35 15.5402 141.372C15.5402 142.387 15.3527 143.273 14.9777 144.032C14.607 144.79 14.0871 145.38 13.4181 145.802C12.7533 146.224 11.9777 146.435 11.0913 146.435ZM11.0913 145.08C11.7646 145.08 12.3186 144.907 12.7533 144.562C13.1879 144.217 13.5097 143.763 13.7185 143.201C13.9273 142.638 14.0317 142.029 14.0317 141.372C14.0317 140.716 13.9273 140.105 13.7185 139.538C13.5097 138.971 13.1879 138.513 12.7533 138.164C12.3186 137.814 11.7646 137.639 11.0913 137.639C10.4181 137.639 9.86408 137.814 9.42942 138.164C8.99476 138.513 8.67303 138.971 8.46422 139.538C8.25541 140.105 8.15101 140.716 8.15101 141.372C8.15101 142.029 8.25541 142.638 8.46422 143.201C8.67303 143.763 8.99476 144.217 9.42942 144.562C9.86408 144.907 10.4181 145.08 11.0913 145.08ZM17.4829 146.23V136.412H18.9403V137.895H19.0426C19.2216 137.409 19.5454 137.015 20.0142 136.713C20.4829 136.41 21.0114 136.259 21.5994 136.259C21.7102 136.259 21.8487 136.261 22.0149 136.265C22.1811 136.269 22.3068 136.276 22.392 136.284V137.818C22.3409 137.806 22.2237 137.787 22.0405 137.761C21.8615 137.731 21.6719 137.716 21.4716 137.716C20.9943 137.716 20.5682 137.816 20.1932 138.017C19.8224 138.213 19.5284 138.485 19.3111 138.835C19.098 139.18 18.9915 139.574 18.9915 140.017V146.23H17.4829ZM28.7273 146.23V133.139H30.2358V137.972H30.3636C30.4744 137.801 30.6278 137.584 30.8238 137.32C31.0241 137.051 31.3096 136.813 31.6804 136.604C32.0554 136.391 32.5625 136.284 33.2017 136.284C34.0284 136.284 34.7571 136.491 35.3878 136.904C36.0185 137.318 36.5106 137.904 36.8643 138.662C37.218 139.421 37.3949 140.316 37.3949 141.347C37.3949 142.387 37.218 143.288 36.8643 144.051C36.5106 144.809 36.0206 145.397 35.3942 145.815C34.7677 146.228 34.0454 146.435 33.2273 146.435C32.5966 146.435 32.0916 146.331 31.7123 146.122C31.3331 145.909 31.0412 145.668 30.8366 145.399C30.6321 145.127 30.4744 144.901 30.3636 144.722H30.1846V146.23H28.7273ZM30.2102 141.321C30.2102 142.063 30.3189 142.717 30.5362 143.284C30.7535 143.846 31.071 144.287 31.4886 144.607C31.9062 144.922 32.4176 145.08 33.0227 145.08C33.6534 145.08 34.1797 144.914 34.6015 144.581C35.0277 144.245 35.3473 143.793 35.5604 143.226C35.7777 142.655 35.8863 142.02 35.8863 141.321C35.8863 140.631 35.7798 140.009 35.5667 139.455C35.3579 138.897 35.0405 138.456 34.6143 138.132C34.1925 137.804 33.6619 137.639 33.0227 137.639C32.4091 137.639 31.8935 137.795 31.4758 138.106C31.0582 138.413 30.7429 138.843 30.5298 139.397C30.3167 139.947 30.2102 140.588 30.2102 141.321ZM45.5299 142.216V136.412H47.0384V146.23H45.5299V144.568H45.4276C45.1975 145.067 44.8396 145.491 44.3538 145.84C43.868 146.186 43.2543 146.358 42.5129 146.358C41.8992 146.358 41.3538 146.224 40.8765 145.956C40.3992 145.683 40.0242 145.274 39.7515 144.728C39.4788 144.179 39.3424 143.486 39.3424 142.651V136.412H40.8509V142.549C40.8509 143.264 41.0512 143.836 41.4518 144.262C41.8566 144.688 42.3722 144.901 42.9987 144.901C43.3737 144.901 43.755 144.805 44.1428 144.613C44.5349 144.421 44.863 144.127 45.1272 143.731C45.3957 143.335 45.5299 142.83 45.5299 142.216ZM56.3959 138.611L55.0408 138.995C54.9556 138.769 54.8299 138.549 54.6637 138.336C54.5018 138.119 54.2802 137.94 53.9989 137.799C53.7177 137.659 53.3576 137.588 52.9187 137.588C52.3178 137.588 51.8171 137.727 51.4165 138.004C51.0202 138.277 50.8221 138.624 50.8221 139.046C50.8221 139.421 50.9584 139.717 51.2312 139.934C51.5039 140.152 51.93 140.333 52.5096 140.478L53.967 140.836C54.8448 141.049 55.4989 141.375 55.9293 141.814C56.3597 142.248 56.5749 142.809 56.5749 143.495C56.5749 144.057 56.413 144.56 56.0891 145.003C55.7695 145.446 55.3221 145.796 54.7468 146.051C54.1715 146.307 53.5025 146.435 52.7397 146.435C51.7383 146.435 50.9094 146.218 50.2532 145.783C49.5969 145.348 49.1814 144.713 49.0067 143.878L50.4385 143.52C50.5749 144.049 50.8327 144.445 51.212 144.709C51.5955 144.973 52.0962 145.105 52.7141 145.105C53.4172 145.105 53.9755 144.956 54.3888 144.658C54.8064 144.355 55.0152 143.993 55.0152 143.571C55.0152 143.23 54.8959 142.945 54.6573 142.715C54.4187 142.48 54.0522 142.306 53.5579 142.191L51.9215 141.807C51.0224 141.594 50.3618 141.264 49.94 140.816C49.5224 140.365 49.3135 139.8 49.3135 139.122C49.3135 138.568 49.4691 138.078 49.7802 137.652C50.0955 137.226 50.5238 136.892 51.065 136.649C51.6104 136.406 52.2283 136.284 52.9187 136.284C53.8902 136.284 54.653 136.497 55.207 136.924C55.7652 137.35 56.1616 137.912 56.3959 138.611ZM58.4857 146.23V136.412H59.9942V146.23H58.4857ZM59.2527 134.776C58.9587 134.776 58.7051 134.676 58.4921 134.475C58.2833 134.275 58.1789 134.034 58.1789 133.753C58.1789 133.472 58.2833 133.231 58.4921 133.031C58.7051 132.831 58.9587 132.73 59.2527 132.73C59.5468 132.73 59.7982 132.831 60.007 133.031C60.2201 133.231 60.3266 133.472 60.3266 133.753C60.3266 134.034 60.2201 134.275 60.007 134.475C59.7982 134.676 59.5468 134.776 59.2527 134.776ZM63.9057 140.324V146.23H62.3972V136.412H63.8546V137.946H63.9824C64.2125 137.448 64.5619 137.047 65.0307 136.745C65.4994 136.438 66.1046 136.284 66.846 136.284C67.5108 136.284 68.0925 136.421 68.5911 136.693C69.0896 136.962 69.4774 137.371 69.7544 137.921C70.0314 138.466 70.1699 139.157 70.1699 139.992V146.23H68.6614V140.094C68.6614 139.323 68.4611 138.722 68.0605 138.291C67.6599 137.857 67.1102 137.639 66.4114 137.639C65.9298 137.639 65.4994 137.744 65.1202 137.953C64.7452 138.162 64.449 138.466 64.2317 138.867C64.0144 139.267 63.9057 139.753 63.9057 140.324ZM76.6829 146.435C75.7369 146.435 74.9209 146.226 74.2348 145.809C73.553 145.387 73.0267 144.799 72.656 144.044C72.2895 143.286 72.1062 142.404 72.1062 141.398C72.1062 140.392 72.2895 139.506 72.656 138.739C73.0267 137.968 73.5423 137.367 74.2028 136.936C74.8676 136.502 75.6432 136.284 76.5295 136.284C77.0409 136.284 77.5459 136.37 78.0444 136.54C78.543 136.711 78.9969 136.988 79.406 137.371C79.815 137.75 80.141 138.253 80.3839 138.88C80.6268 139.506 80.7483 140.277 80.7483 141.193V141.833H73.1801V140.529H79.2142C79.2142 139.975 79.1034 139.48 78.8818 139.046C78.6645 138.611 78.3534 138.268 77.9486 138.017C77.548 137.765 77.075 137.639 76.5295 137.639C75.9287 137.639 75.4088 137.789 74.9699 138.087C74.5352 138.381 74.2007 138.764 73.9663 139.238C73.7319 139.711 73.6148 140.218 73.6148 140.759V141.628C73.6148 142.37 73.7426 142.998 73.9983 143.514C74.2582 144.025 74.6183 144.415 75.0785 144.684C75.5388 144.948 76.0736 145.08 76.6829 145.08C77.0792 145.08 77.4372 145.024 77.7568 144.914C78.0807 144.799 78.3598 144.628 78.5942 144.402C78.8285 144.172 79.0096 143.887 79.1375 143.546L80.5949 143.955C80.4415 144.449 80.1837 144.884 79.8214 145.259C79.4592 145.63 79.0118 145.919 78.4791 146.128C77.9464 146.333 77.3477 146.435 76.6829 146.435ZM89.6376 138.611L88.2825 138.995C88.1972 138.769 88.0715 138.549 87.9053 138.336C87.7434 138.119 87.5218 137.94 87.2406 137.799C86.9593 137.659 86.5992 137.588 86.1603 137.588C85.5594 137.588 85.0587 137.727 84.6582 138.004C84.2619 138.277 84.0637 138.624 84.0637 139.046C84.0637 139.421 84.2001 139.717 84.4728 139.934C84.7455 140.152 85.1717 140.333 85.7512 140.478L87.2086 140.836C88.0864 141.049 88.7406 141.375 89.171 141.814C89.6014 142.248 89.8166 142.809 89.8166 143.495C89.8166 144.057 89.6546 144.56 89.3308 145.003C89.0112 145.446 88.5637 145.796 87.9884 146.051C87.4131 146.307 86.7441 146.435 85.9813 146.435C84.9799 146.435 84.1511 146.218 83.4948 145.783C82.8386 145.348 82.4231 144.713 82.2484 143.878L83.6802 143.52C83.8165 144.049 84.0744 144.445 84.4536 144.709C84.8371 144.973 85.3379 145.105 85.9558 145.105C86.6589 145.105 87.2171 144.956 87.6305 144.658C88.0481 144.355 88.2569 143.993 88.2569 143.571C88.2569 143.23 88.1376 142.945 87.8989 142.715C87.6603 142.48 87.2938 142.306 86.7995 142.191L85.1631 141.807C84.264 141.594 83.6035 141.264 83.1816 140.816C82.764 140.365 82.5552 139.8 82.5552 139.122C82.5552 138.568 82.7107 138.078 83.0218 137.652C83.3371 137.226 83.7654 136.892 84.3066 136.649C84.8521 136.406 85.47 136.284 86.1603 136.284C87.1319 136.284 87.8947 136.497 88.4487 136.924C89.0069 137.35 89.4032 137.912 89.6376 138.611ZM98.6819 138.611L97.3268 138.995C97.2415 138.769 97.1158 138.549 96.9496 138.336C96.7877 138.119 96.5661 137.94 96.2849 137.799C96.0036 137.659 95.6435 137.588 95.2046 137.588C94.6037 137.588 94.103 137.727 93.7025 138.004C93.3062 138.277 93.108 138.624 93.108 139.046C93.108 139.421 93.2444 139.717 93.5171 139.934C93.7898 140.152 94.216 140.333 94.7955 140.478L96.2529 140.836C97.1307 141.049 97.7849 141.375 98.2152 141.814C98.6456 142.248 98.8608 142.809 98.8608 143.495C98.8608 144.057 98.6989 144.56 98.3751 145.003C98.0554 145.446 97.608 145.796 97.0327 146.051C96.4574 146.307 95.7884 146.435 95.0256 146.435C94.0242 146.435 93.1954 146.218 92.5391 145.783C91.8829 145.348 91.4674 144.713 91.2927 143.878L92.7245 143.52C92.8608 144.049 93.1187 144.445 93.4979 144.709C93.8814 144.973 94.3822 145.105 95.0001 145.105C95.7032 145.105 96.2614 144.956 96.6748 144.658C97.0924 144.355 97.3012 143.993 97.3012 143.571C97.3012 143.23 97.1819 142.945 96.9432 142.715C96.7046 142.48 96.3381 142.306 95.8438 142.191L94.2074 141.807C93.3083 141.594 92.6478 141.264 92.2259 140.816C91.8083 140.365 91.5995 139.8 91.5995 139.122C91.5995 138.568 91.755 138.078 92.0661 137.652C92.3814 137.226 92.8097 136.892 93.3509 136.649C93.8964 136.406 94.5143 136.284 95.2046 136.284C96.1762 136.284 96.939 136.497 97.4929 136.924C98.0512 137.35 98.4475 137.912 98.6819 138.611ZM104.888 146.435C103.942 146.435 103.126 146.226 102.44 145.809C101.758 145.387 101.232 144.799 100.861 144.044C100.495 143.286 100.311 142.404 100.311 141.398C100.311 140.392 100.495 139.506 100.861 138.739C101.232 137.968 101.747 137.367 102.408 136.936C103.073 136.502 103.848 136.284 104.735 136.284C105.246 136.284 105.751 136.37 106.25 136.54C106.748 136.711 107.202 136.988 107.611 137.371C108.02 137.75 108.346 138.253 108.589 138.88C108.832 139.506 108.953 140.277 108.953 141.193V141.833H101.385V140.529H107.419C107.419 139.975 107.309 139.48 107.087 139.046C106.87 138.611 106.559 138.268 106.154 138.017C105.753 137.765 105.28 137.639 104.735 137.639C104.134 137.639 103.614 137.789 103.175 138.087C102.74 138.381 102.406 138.764 102.171 139.238C101.937 139.711 101.82 140.218 101.82 140.759V141.628C101.82 142.37 101.948 142.998 102.203 143.514C102.463 144.025 102.823 144.415 103.284 144.684C103.744 144.948 104.279 145.08 104.888 145.08C105.284 145.08 105.642 145.024 105.962 144.914C106.286 144.799 106.565 144.628 106.799 144.402C107.034 144.172 107.215 143.887 107.343 143.546L108.8 143.955C108.647 144.449 108.389 144.884 108.027 145.259C107.664 145.63 107.217 145.919 106.684 146.128C106.152 146.333 105.553 146.435 104.888 146.435ZM117.843 138.611L116.488 138.995C116.402 138.769 116.277 138.549 116.11 138.336C115.949 138.119 115.727 137.94 115.446 137.799C115.164 137.659 114.804 137.588 114.365 137.588C113.765 137.588 113.264 137.727 112.863 138.004C112.467 138.277 112.269 138.624 112.269 139.046C112.269 139.421 112.405 139.717 112.678 139.934C112.951 140.152 113.377 140.333 113.956 140.478L115.414 140.836C116.292 141.049 116.946 141.375 117.376 141.814C117.807 142.248 118.022 142.809 118.022 143.495C118.022 144.057 117.86 144.56 117.536 145.003C117.216 145.446 116.769 145.796 116.194 146.051C115.618 146.307 114.949 146.435 114.186 146.435C113.185 146.435 112.356 146.218 111.7 145.783C111.044 145.348 110.628 144.713 110.454 143.878L111.885 143.52C112.022 144.049 112.28 144.445 112.659 144.709C113.042 144.973 113.543 145.105 114.161 145.105C114.864 145.105 115.422 144.956 115.836 144.658C116.253 144.355 116.462 143.993 116.462 143.571C116.462 143.23 116.343 142.945 116.104 142.715C115.865 142.48 115.499 142.306 115.005 142.191L113.368 141.807C112.469 141.594 111.809 141.264 111.387 140.816C110.969 140.365 110.76 139.8 110.76 139.122C110.76 138.568 110.916 138.078 111.227 137.652C111.542 137.226 111.971 136.892 112.512 136.649C113.057 136.406 113.675 136.284 114.365 136.284C115.337 136.284 116.1 136.497 116.654 136.924C117.212 137.35 117.608 137.912 117.843 138.611ZM128.905 136.412V137.691H123.817V136.412H128.905ZM125.3 134.06H126.808V143.418C126.808 143.844 126.87 144.164 126.994 144.377C127.121 144.586 127.283 144.726 127.479 144.799C127.68 144.867 127.891 144.901 128.112 144.901C128.278 144.901 128.415 144.892 128.521 144.875C128.628 144.854 128.713 144.837 128.777 144.824L129.084 146.179C128.982 146.218 128.839 146.256 128.656 146.294C128.472 146.337 128.24 146.358 127.959 146.358C127.533 146.358 127.115 146.267 126.706 146.083C126.301 145.9 125.965 145.621 125.696 145.246C125.432 144.871 125.3 144.398 125.3 143.827V134.06ZM132.534 140.324V146.23H131.025V133.139H132.534V137.946H132.661C132.891 137.439 133.237 137.037 133.697 136.738C134.161 136.436 134.779 136.284 135.551 136.284C136.22 136.284 136.806 136.419 137.308 136.687C137.811 136.951 138.201 137.358 138.478 137.908C138.759 138.453 138.9 139.148 138.9 139.992V146.23H137.391V140.094C137.391 139.314 137.189 138.711 136.784 138.285C136.384 137.855 135.828 137.639 135.116 137.639C134.622 137.639 134.178 137.744 133.786 137.953C133.399 138.162 133.092 138.466 132.866 138.867C132.644 139.267 132.534 139.753 132.534 140.324ZM144.189 146.461C143.567 146.461 143.002 146.343 142.495 146.109C141.988 145.87 141.585 145.527 141.287 145.08C140.989 144.628 140.84 144.083 140.84 143.443C140.84 142.881 140.95 142.425 141.172 142.076C141.393 141.722 141.69 141.445 142.06 141.245C142.431 141.044 142.84 140.895 143.288 140.797C143.739 140.695 144.193 140.614 144.649 140.554C145.246 140.478 145.729 140.42 146.1 140.382C146.475 140.339 146.748 140.269 146.918 140.171C147.093 140.073 147.18 139.902 147.18 139.659V139.608C147.18 138.978 147.008 138.488 146.663 138.138C146.322 137.789 145.804 137.614 145.109 137.614C144.389 137.614 143.825 137.772 143.416 138.087C143.006 138.402 142.719 138.739 142.553 139.097L141.121 138.586C141.376 137.989 141.717 137.524 142.143 137.192C142.574 136.855 143.043 136.621 143.55 136.489C144.061 136.353 144.564 136.284 145.058 136.284C145.374 136.284 145.736 136.323 146.145 136.399C146.558 136.472 146.957 136.623 147.34 136.853C147.728 137.083 148.05 137.431 148.305 137.895C148.561 138.36 148.689 138.982 148.689 139.762V146.23H147.18V144.901H147.104C147.001 145.114 146.831 145.342 146.592 145.585C146.354 145.828 146.036 146.034 145.64 146.205C145.244 146.375 144.76 146.461 144.189 146.461ZM144.419 145.105C145.016 145.105 145.518 144.988 145.928 144.754C146.341 144.519 146.652 144.217 146.861 143.846C147.074 143.475 147.18 143.086 147.18 142.676V141.296C147.117 141.372 146.976 141.443 146.759 141.507C146.545 141.566 146.298 141.62 146.017 141.666C145.74 141.709 145.469 141.747 145.205 141.782C144.945 141.811 144.734 141.837 144.572 141.858C144.18 141.909 143.814 141.992 143.473 142.108C143.136 142.218 142.864 142.387 142.655 142.613C142.45 142.834 142.348 143.137 142.348 143.52C142.348 144.044 142.542 144.441 142.93 144.709C143.322 144.973 143.818 145.105 144.419 145.105ZM155.352 136.412V137.691H150.264V136.412H155.352ZM151.747 134.06H153.256V143.418C153.256 143.844 153.317 144.164 153.441 144.377C153.569 144.586 153.731 144.726 153.927 144.799C154.127 144.867 154.338 144.901 154.56 144.901C154.726 144.901 154.862 144.892 154.969 144.875C155.075 144.854 155.16 144.837 155.224 144.824L155.531 146.179C155.429 146.218 155.286 146.256 155.103 146.294C154.92 146.337 154.687 146.358 154.406 146.358C153.98 146.358 153.562 146.267 153.153 146.083C152.749 145.9 152.412 145.621 152.143 145.246C151.879 144.871 151.747 144.398 151.747 143.827V134.06ZM161.964 146.23V136.412H163.472V146.23H161.964ZM162.731 134.776C162.437 134.776 162.183 134.676 161.97 134.475C161.761 134.275 161.657 134.034 161.657 133.753C161.657 133.472 161.761 133.231 161.97 133.031C162.183 132.831 162.437 132.73 162.731 132.73C163.025 132.73 163.276 132.831 163.485 133.031C163.698 133.231 163.805 133.472 163.805 133.753C163.805 134.034 163.698 134.275 163.485 134.475C163.276 134.676 163.025 134.776 162.731 134.776ZM172.83 138.611L171.475 138.995C171.39 138.769 171.264 138.549 171.098 138.336C170.936 138.119 170.714 137.94 170.433 137.799C170.152 137.659 169.792 137.588 169.353 137.588C168.752 137.588 168.251 137.727 167.851 138.004C167.454 138.277 167.256 138.624 167.256 139.046C167.256 139.421 167.392 139.717 167.665 139.934C167.938 140.152 168.364 140.333 168.944 140.478L170.401 140.836C171.279 141.049 171.933 141.375 172.363 141.814C172.794 142.248 173.009 142.809 173.009 143.495C173.009 144.057 172.847 144.56 172.523 145.003C172.203 145.446 171.756 145.796 171.181 146.051C170.605 146.307 169.936 146.435 169.174 146.435C168.172 146.435 167.343 146.218 166.687 145.783C166.031 145.348 165.615 144.713 165.441 143.878L166.873 143.52C167.009 144.049 167.267 144.445 167.646 144.709C168.029 144.973 168.53 145.105 169.148 145.105C169.851 145.105 170.409 144.956 170.823 144.658C171.24 144.355 171.449 143.993 171.449 143.571C171.449 143.23 171.33 142.945 171.091 142.715C170.853 142.48 170.486 142.306 169.992 142.191L168.355 141.807C167.456 141.594 166.796 141.264 166.374 140.816C165.956 140.365 165.748 139.8 165.748 139.122C165.748 138.568 165.903 138.078 166.214 137.652C166.529 137.226 166.958 136.892 167.499 136.649C168.044 136.406 168.662 136.284 169.353 136.284C170.324 136.284 171.087 136.497 171.641 136.924C172.199 137.35 172.596 137.912 172.83 138.611ZM182.511 146.461C181.889 146.461 181.325 146.343 180.817 146.109C180.31 145.87 179.908 145.527 179.609 145.08C179.311 144.628 179.162 144.083 179.162 143.443C179.162 142.881 179.273 142.425 179.494 142.076C179.716 141.722 180.012 141.445 180.383 141.245C180.754 141.044 181.163 140.895 181.61 140.797C182.062 140.695 182.516 140.614 182.972 140.554C183.568 140.478 184.052 140.42 184.423 140.382C184.798 140.339 185.07 140.269 185.241 140.171C185.415 140.073 185.503 139.902 185.503 139.659V139.608C185.503 138.978 185.33 138.488 184.985 138.138C184.644 137.789 184.126 137.614 183.432 137.614C182.712 137.614 182.147 137.772 181.738 138.087C181.329 138.402 181.041 138.739 180.875 139.097L179.443 138.586C179.699 137.989 180.04 137.524 180.466 137.192C180.896 136.855 181.365 136.621 181.872 136.489C182.384 136.353 182.886 136.284 183.381 136.284C183.696 136.284 184.058 136.323 184.467 136.399C184.881 136.472 185.279 136.623 185.663 136.853C186.05 137.083 186.372 137.431 186.628 137.895C186.884 138.36 187.011 138.982 187.011 139.762V146.23H185.503V144.901H185.426C185.324 145.114 185.153 145.342 184.915 145.585C184.676 145.828 184.359 146.034 183.962 146.205C183.566 146.375 183.082 146.461 182.511 146.461ZM182.741 145.105C183.338 145.105 183.841 144.988 184.25 144.754C184.663 144.519 184.974 144.217 185.183 143.846C185.396 143.475 185.503 143.086 185.503 142.676V141.296C185.439 141.372 185.298 141.443 185.081 141.507C184.868 141.566 184.621 141.62 184.339 141.666C184.063 141.709 183.792 141.747 183.528 141.782C183.268 141.811 183.057 141.837 182.895 141.858C182.503 141.909 182.136 141.992 181.795 142.108C181.459 142.218 181.186 142.387 180.977 142.613C180.773 142.834 180.67 143.137 180.67 143.52C180.67 144.044 180.864 144.441 181.252 144.709C181.644 144.973 182.141 145.105 182.741 145.105ZM198.479 136.412V137.691H193.187V136.412H198.479ZM194.772 146.23V135.057C194.772 134.495 194.904 134.026 195.168 133.651C195.433 133.276 195.776 132.995 196.197 132.807C196.619 132.62 197.065 132.526 197.533 132.526C197.904 132.526 198.207 132.556 198.441 132.615C198.675 132.675 198.85 132.73 198.965 132.782L198.531 134.086C198.454 134.06 198.347 134.028 198.211 133.99C198.079 133.951 197.904 133.932 197.687 133.932C197.188 133.932 196.828 134.058 196.607 134.309C196.389 134.561 196.281 134.929 196.281 135.415V146.23H194.772ZM206.421 142.216V136.412H207.93V146.23H206.421V144.568H206.319C206.089 145.067 205.731 145.491 205.245 145.84C204.759 146.186 204.146 146.358 203.404 146.358C202.79 146.358 202.245 146.224 201.768 145.956C201.29 145.683 200.915 145.274 200.643 144.728C200.37 144.179 200.234 143.486 200.234 142.651V136.412H201.742V142.549C201.742 143.264 201.942 143.836 202.343 144.262C202.748 144.688 203.263 144.901 203.89 144.901C204.265 144.901 204.646 144.805 205.034 144.613C205.426 144.421 205.754 144.127 206.018 143.731C206.287 143.335 206.421 142.83 206.421 142.216ZM211.841 133.139V146.23H210.333V133.139H211.841ZM215.753 133.139V146.23H214.244V133.139H215.753ZM222.858 149.912V136.412H224.315V137.972H224.494C224.605 137.801 224.759 137.584 224.955 137.32C225.155 137.051 225.44 136.813 225.811 136.604C226.186 136.391 226.693 136.284 227.332 136.284C228.159 136.284 228.888 136.491 229.519 136.904C230.149 137.318 230.641 137.904 230.995 138.662C231.349 139.421 231.526 140.316 231.526 141.347C231.526 142.387 231.349 143.288 230.995 144.051C230.641 144.809 230.151 145.397 229.525 145.815C228.899 146.228 228.176 146.435 227.358 146.435C226.727 146.435 226.222 146.331 225.843 146.122C225.464 145.909 225.172 145.668 224.967 145.399C224.763 145.127 224.605 144.901 224.494 144.722H224.367V149.912H222.858ZM224.341 141.321C224.341 142.063 224.45 142.717 224.667 143.284C224.884 143.846 225.202 144.287 225.619 144.607C226.037 144.922 226.548 145.08 227.153 145.08C227.784 145.08 228.31 144.914 228.732 144.581C229.158 144.245 229.478 143.793 229.691 143.226C229.908 142.655 230.017 142.02 230.017 141.321C230.017 140.631 229.911 140.009 229.698 139.455C229.489 138.897 229.171 138.456 228.745 138.132C228.323 137.804 227.793 137.639 227.153 137.639C226.54 137.639 226.024 137.795 225.607 138.106C225.189 138.413 224.874 138.843 224.661 139.397C224.448 139.947 224.341 140.588 224.341 141.321ZM233.467 146.23V136.412H234.924V137.895H235.026C235.205 137.409 235.529 137.015 235.998 136.713C236.467 136.41 236.995 136.259 237.583 136.259C237.694 136.259 237.833 136.261 237.999 136.265C238.165 136.269 238.291 136.276 238.376 136.284V137.818C238.325 137.806 238.208 137.787 238.024 137.761C237.845 137.731 237.656 137.716 237.455 137.716C236.978 137.716 236.552 137.816 236.177 138.017C235.806 138.213 235.512 138.485 235.295 138.835C235.082 139.18 234.975 139.574 234.975 140.017V146.23H233.467ZM243.494 146.435C242.607 146.435 241.83 146.224 241.161 145.802C240.496 145.38 239.976 144.79 239.601 144.032C239.23 143.273 239.045 142.387 239.045 141.372C239.045 140.35 239.23 139.457 239.601 138.694C239.976 137.931 240.496 137.339 241.161 136.917C241.83 136.495 242.607 136.284 243.494 136.284C244.38 136.284 245.156 136.495 245.821 136.917C246.49 137.339 247.009 137.931 247.38 138.694C247.755 139.457 247.943 140.35 247.943 141.372C247.943 142.387 247.755 143.273 247.38 144.032C247.009 144.79 246.49 145.38 245.821 145.802C245.156 146.224 244.38 146.435 243.494 146.435ZM243.494 145.08C244.167 145.08 244.721 144.907 245.156 144.562C245.59 144.217 245.912 143.763 246.121 143.201C246.33 142.638 246.434 142.029 246.434 141.372C246.434 140.716 246.33 140.105 246.121 139.538C245.912 138.971 245.59 138.513 245.156 138.164C244.721 137.814 244.167 137.639 243.494 137.639C242.821 137.639 242.267 137.814 241.832 138.164C241.397 138.513 241.076 138.971 240.867 139.538C240.658 140.105 240.554 140.716 240.554 141.372C240.554 142.029 240.658 142.638 240.867 143.201C241.076 143.763 241.397 144.217 241.832 144.562C242.267 144.907 242.821 145.08 243.494 145.08ZM249.885 136.412H251.394V146.946C251.394 147.551 251.29 148.076 251.081 148.519C250.876 148.962 250.565 149.305 250.148 149.548C249.734 149.791 249.212 149.912 248.581 149.912C248.53 149.912 248.479 149.912 248.428 149.912C248.377 149.912 248.326 149.912 248.275 149.912V148.506C248.326 148.506 248.373 148.506 248.415 148.506C248.458 148.506 248.505 148.506 248.556 148.506C249.016 148.506 249.353 148.37 249.566 148.097C249.779 147.828 249.885 147.445 249.885 146.946V136.412ZM250.627 134.776C250.333 134.776 250.079 134.676 249.866 134.475C249.657 134.275 249.553 134.034 249.553 133.753C249.553 133.472 249.657 133.231 249.866 133.031C250.079 132.831 250.333 132.73 250.627 132.73C250.921 132.73 251.172 132.831 251.381 133.031C251.594 133.231 251.701 133.472 251.701 133.753C251.701 134.034 251.594 134.275 251.381 134.475C251.172 134.676 250.921 134.776 250.627 134.776ZM257.913 146.435C256.967 146.435 256.151 146.226 255.465 145.809C254.783 145.387 254.257 144.799 253.886 144.044C253.52 143.286 253.337 142.404 253.337 141.398C253.337 140.392 253.52 139.506 253.886 138.739C254.257 137.968 254.773 137.367 255.433 136.936C256.098 136.502 256.874 136.284 257.76 136.284C258.271 136.284 258.776 136.37 259.275 136.54C259.773 136.711 260.227 136.988 260.636 137.371C261.046 137.75 261.372 138.253 261.614 138.88C261.857 139.506 261.979 140.277 261.979 141.193V141.833H254.411V140.529H260.445C260.445 139.975 260.334 139.48 260.112 139.046C259.895 138.611 259.584 138.268 259.179 138.017C258.778 137.765 258.305 137.639 257.76 137.639C257.159 137.639 256.639 137.789 256.2 138.087C255.766 138.381 255.431 138.764 255.197 139.238C254.962 139.711 254.845 140.218 254.845 140.759V141.628C254.845 142.37 254.973 142.998 255.229 143.514C255.489 144.025 255.849 144.415 256.309 144.684C256.769 144.948 257.304 145.08 257.913 145.08C258.31 145.08 258.668 145.024 258.987 144.914C259.311 144.799 259.59 144.628 259.825 144.402C260.059 144.172 260.24 143.887 260.368 143.546L261.825 143.955C261.672 144.449 261.414 144.884 261.052 145.259C260.69 145.63 260.242 145.919 259.71 146.128C259.177 146.333 258.578 146.435 257.913 146.435ZM267.902 146.435C266.982 146.435 266.189 146.218 265.524 145.783C264.86 145.348 264.348 144.75 263.99 143.987C263.632 143.224 263.453 142.353 263.453 141.372C263.453 140.375 263.636 139.495 264.003 138.733C264.374 137.965 264.889 137.367 265.55 136.936C266.215 136.502 266.99 136.284 267.877 136.284C268.567 136.284 269.189 136.412 269.743 136.668C270.297 136.924 270.751 137.282 271.105 137.742C271.458 138.202 271.678 138.739 271.763 139.353H270.254C270.139 138.905 269.884 138.509 269.487 138.164C269.095 137.814 268.567 137.639 267.902 137.639C267.314 137.639 266.798 137.793 266.355 138.1C265.916 138.402 265.573 138.831 265.326 139.385C265.083 139.934 264.962 140.58 264.962 141.321C264.962 142.08 265.081 142.74 265.32 143.303C265.563 143.865 265.904 144.302 266.342 144.613C266.786 144.924 267.306 145.08 267.902 145.08C268.294 145.08 268.65 145.012 268.97 144.875C269.289 144.739 269.56 144.543 269.781 144.287C270.003 144.032 270.161 143.725 270.254 143.367H271.763C271.678 143.946 271.467 144.468 271.13 144.933C270.798 145.393 270.357 145.76 269.807 146.032C269.261 146.301 268.627 146.435 267.902 146.435ZM277.878 136.412V137.691H272.79V136.412H277.878ZM274.273 134.06H275.781V143.418C275.781 143.844 275.843 144.164 275.967 144.377C276.095 144.586 276.257 144.726 276.453 144.799C276.653 144.867 276.864 144.901 277.085 144.901C277.252 144.901 277.388 144.892 277.495 144.875C277.601 144.854 277.686 144.837 277.75 144.824L278.057 146.179C277.955 146.218 277.812 146.256 277.629 146.294C277.446 146.337 277.213 146.358 276.932 146.358C276.506 146.358 276.088 146.267 275.679 146.083C275.274 145.9 274.938 145.621 274.669 145.246C274.405 144.871 274.273 144.398 274.273 143.827V134.06ZM284.49 146.23V136.412H285.947V137.946H286.075C286.28 137.422 286.61 137.015 287.066 136.725C287.522 136.431 288.069 136.284 288.709 136.284C289.356 136.284 289.895 136.431 290.326 136.725C290.76 137.015 291.099 137.422 291.342 137.946H291.444C291.696 137.439 292.073 137.037 292.576 136.738C293.079 136.436 293.682 136.284 294.385 136.284C295.262 136.284 295.981 136.559 296.539 137.109C297.097 137.654 297.376 138.505 297.376 139.659V146.23H295.868V139.659C295.868 138.935 295.669 138.417 295.273 138.106C294.877 137.795 294.41 137.639 293.873 137.639C293.183 137.639 292.648 137.848 292.269 138.266C291.89 138.679 291.7 139.203 291.7 139.838V146.23H290.166V139.506C290.166 138.948 289.985 138.498 289.623 138.157C289.26 137.812 288.794 137.639 288.223 137.639C287.831 137.639 287.464 137.744 287.123 137.953C286.787 138.162 286.514 138.451 286.305 138.822C286.101 139.189 285.998 139.613 285.998 140.094V146.23H284.49ZM302.663 146.461C302.041 146.461 301.477 146.343 300.97 146.109C300.462 145.87 300.06 145.527 299.761 145.08C299.463 144.628 299.314 144.083 299.314 143.443C299.314 142.881 299.425 142.425 299.646 142.076C299.868 141.722 300.164 141.445 300.535 141.245C300.906 141.044 301.315 140.895 301.762 140.797C302.214 140.695 302.668 140.614 303.124 140.554C303.72 140.478 304.204 140.42 304.575 140.382C304.95 140.339 305.222 140.269 305.393 140.171C305.568 140.073 305.655 139.902 305.655 139.659V139.608C305.655 138.978 305.482 138.488 305.137 138.138C304.796 137.789 304.279 137.614 303.584 137.614C302.864 137.614 302.299 137.772 301.89 138.087C301.481 138.402 301.193 138.739 301.027 139.097L299.595 138.586C299.851 137.989 300.192 137.524 300.618 137.192C301.048 136.855 301.517 136.621 302.024 136.489C302.536 136.353 303.038 136.284 303.533 136.284C303.848 136.284 304.21 136.323 304.619 136.399C305.033 136.472 305.431 136.623 305.815 136.853C306.203 137.083 306.524 137.431 306.78 137.895C307.036 138.36 307.163 138.982 307.163 139.762V146.23H305.655V144.901H305.578C305.476 145.114 305.306 145.342 305.067 145.585C304.828 145.828 304.511 146.034 304.114 146.205C303.718 146.375 303.234 146.461 302.663 146.461ZM302.894 145.105C303.49 145.105 303.993 144.988 304.402 144.754C304.815 144.519 305.127 144.217 305.335 143.846C305.548 143.475 305.655 143.086 305.655 142.676V141.296C305.591 141.372 305.45 141.443 305.233 141.507C305.02 141.566 304.773 141.62 304.492 141.666C304.215 141.709 303.944 141.747 303.68 141.782C303.42 141.811 303.209 141.837 303.047 141.858C302.655 141.909 302.288 141.992 301.948 142.108C301.611 142.218 301.338 142.387 301.129 142.613C300.925 142.834 300.823 143.137 300.823 143.52C300.823 144.044 301.016 144.441 301.404 144.709C301.796 144.973 302.293 145.105 302.894 145.105ZM311.065 140.324V146.23H309.557V136.412H311.014V137.946H311.142C311.372 137.448 311.722 137.047 312.19 136.745C312.659 136.438 313.264 136.284 314.006 136.284C314.67 136.284 315.252 136.421 315.751 136.693C316.249 136.962 316.637 137.371 316.914 137.921C317.191 138.466 317.33 139.157 317.33 139.992V146.23H315.821V140.094C315.821 139.323 315.621 138.722 315.22 138.291C314.82 137.857 314.27 137.639 313.571 137.639C313.09 137.639 312.659 137.744 312.28 137.953C311.905 138.162 311.609 138.466 311.391 138.867C311.174 139.267 311.065 139.753 311.065 140.324ZM322.615 146.461C321.993 146.461 321.429 146.343 320.921 146.109C320.414 145.87 320.012 145.527 319.713 145.08C319.415 144.628 319.266 144.083 319.266 143.443C319.266 142.881 319.377 142.425 319.598 142.076C319.82 141.722 320.116 141.445 320.487 141.245C320.858 141.044 321.267 140.895 321.714 140.797C322.166 140.695 322.62 140.614 323.076 140.554C323.672 140.478 324.156 140.42 324.527 140.382C324.902 140.339 325.174 140.269 325.345 140.171C325.519 140.073 325.607 139.902 325.607 139.659V139.608C325.607 138.978 325.434 138.488 325.089 138.138C324.748 137.789 324.23 137.614 323.536 137.614C322.816 137.614 322.251 137.772 321.842 138.087C321.433 138.402 321.145 138.739 320.979 139.097L319.547 138.586C319.803 137.989 320.144 137.524 320.57 137.192C321 136.855 321.469 136.621 321.976 136.489C322.488 136.353 322.99 136.284 323.485 136.284C323.8 136.284 324.162 136.323 324.571 136.399C324.985 136.472 325.383 136.623 325.767 136.853C326.154 137.083 326.476 137.431 326.732 137.895C326.988 138.36 327.115 138.982 327.115 139.762V146.23H325.607V144.901H325.53C325.428 145.114 325.257 145.342 325.019 145.585C324.78 145.828 324.463 146.034 324.066 146.205C323.67 146.375 323.186 146.461 322.615 146.461ZM322.845 145.105C323.442 145.105 323.945 144.988 324.354 144.754C324.767 144.519 325.078 144.217 325.287 143.846C325.5 143.475 325.607 143.086 325.607 142.676V141.296C325.543 141.372 325.402 141.443 325.185 141.507C324.972 141.566 324.725 141.62 324.443 141.666C324.166 141.709 323.896 141.747 323.632 141.782C323.372 141.811 323.161 141.837 322.999 141.858C322.607 141.909 322.24 141.992 321.899 142.108C321.563 142.218 321.29 142.387 321.081 142.613C320.877 142.834 320.774 143.137 320.774 143.52C320.774 144.044 320.968 144.441 321.356 144.709C321.748 144.973 322.245 145.105 322.845 145.105ZM333.472 150.117C332.743 150.117 332.117 150.023 331.593 149.836C331.068 149.652 330.632 149.409 330.282 149.107C329.937 148.809 329.662 148.489 329.458 148.148L330.659 147.304C330.796 147.483 330.968 147.688 331.177 147.918C331.386 148.152 331.671 148.355 332.034 148.525C332.4 148.7 332.879 148.787 333.472 148.787C334.264 148.787 334.919 148.595 335.434 148.212C335.95 147.828 336.208 147.228 336.208 146.409V144.415H336.08C335.969 144.594 335.811 144.816 335.607 145.08C335.406 145.34 335.117 145.572 334.737 145.777C334.362 145.977 333.855 146.077 333.216 146.077C332.424 146.077 331.712 145.889 331.081 145.514C330.455 145.139 329.958 144.594 329.592 143.878C329.23 143.162 329.049 142.293 329.049 141.27C329.049 140.264 329.225 139.389 329.579 138.643C329.933 137.893 330.425 137.314 331.056 136.904C331.686 136.491 332.415 136.284 333.242 136.284C333.881 136.284 334.388 136.391 334.763 136.604C335.142 136.813 335.432 137.051 335.632 137.32C335.837 137.584 335.995 137.801 336.105 137.972H336.259V136.412H337.716V146.512C337.716 147.355 337.524 148.041 337.141 148.57C336.762 149.103 336.25 149.492 335.607 149.74C334.968 149.991 334.256 150.117 333.472 150.117ZM333.421 144.722C334.026 144.722 334.537 144.583 334.955 144.306C335.372 144.029 335.69 143.631 335.907 143.111C336.125 142.591 336.233 141.969 336.233 141.245C336.233 140.537 336.127 139.913 335.914 139.372C335.7 138.831 335.385 138.407 334.968 138.1C334.55 137.793 334.034 137.639 333.421 137.639C332.781 137.639 332.249 137.801 331.823 138.125C331.401 138.449 331.083 138.884 330.87 139.429C330.661 139.975 330.557 140.58 330.557 141.245C330.557 141.926 330.664 142.529 330.877 143.054C331.094 143.573 331.414 143.983 331.835 144.281C332.262 144.575 332.79 144.722 333.421 144.722ZM344.234 146.435C343.288 146.435 342.472 146.226 341.786 145.809C341.104 145.387 340.578 144.799 340.207 144.044C339.84 143.286 339.657 142.404 339.657 141.398C339.657 140.392 339.84 139.506 340.207 138.739C340.578 137.968 341.093 137.367 341.754 136.936C342.419 136.502 343.194 136.284 344.081 136.284C344.592 136.284 345.097 136.37 345.595 136.54C346.094 136.711 346.548 136.988 346.957 137.371C347.366 137.75 347.692 138.253 347.935 138.88C348.178 139.506 348.299 140.277 348.299 141.193V141.833H340.731V140.529H346.765C346.765 139.975 346.654 139.48 346.433 139.046C346.215 138.611 345.904 138.268 345.5 138.017C345.099 137.765 344.626 137.639 344.081 137.639C343.48 137.639 342.96 137.789 342.521 138.087C342.086 138.381 341.752 138.764 341.517 139.238C341.283 139.711 341.166 140.218 341.166 140.759V141.628C341.166 142.37 341.294 142.998 341.549 143.514C341.809 144.025 342.169 144.415 342.63 144.684C343.09 144.948 343.625 145.08 344.234 145.08C344.63 145.08 344.988 145.024 345.308 144.914C345.632 144.799 345.911 144.628 346.145 144.402C346.38 144.172 346.561 143.887 346.688 143.546L348.146 143.955C347.992 144.449 347.735 144.884 347.372 145.259C347.01 145.63 346.563 145.919 346.03 146.128C345.497 146.333 344.899 146.435 344.234 146.435ZM350.234 146.23V136.412H351.691V137.946H351.819C352.024 137.422 352.354 137.015 352.81 136.725C353.266 136.431 353.814 136.284 354.453 136.284C355.101 136.284 355.64 136.431 356.07 136.725C356.505 137.015 356.843 137.422 357.086 137.946H357.189C357.44 137.439 357.817 137.037 358.32 136.738C358.823 136.436 359.426 136.284 360.129 136.284C361.007 136.284 361.725 136.559 362.283 137.109C362.841 137.654 363.12 138.505 363.12 139.659V146.23H361.612V139.659C361.612 138.935 361.414 138.417 361.017 138.106C360.621 137.795 360.154 137.639 359.618 137.639C358.927 137.639 358.392 137.848 358.013 138.266C357.634 138.679 357.444 139.203 357.444 139.838V146.23H355.91V139.506C355.91 138.948 355.729 138.498 355.367 138.157C355.005 137.812 354.538 137.639 353.967 137.639C353.575 137.639 353.208 137.744 352.868 137.953C352.531 138.162 352.258 138.451 352.049 138.822C351.845 139.189 351.743 139.613 351.743 140.094V146.23H350.234ZM369.635 146.435C368.689 146.435 367.873 146.226 367.187 145.809C366.505 145.387 365.979 144.799 365.608 144.044C365.242 143.286 365.058 142.404 365.058 141.398C365.058 140.392 365.242 139.506 365.608 138.739C365.979 137.968 366.494 137.367 367.155 136.936C367.82 136.502 368.595 136.284 369.482 136.284C369.993 136.284 370.498 136.37 370.997 136.54C371.495 136.711 371.949 136.988 372.358 137.371C372.767 137.75 373.093 138.253 373.336 138.88C373.579 139.506 373.7 140.277 373.7 141.193V141.833H366.132V140.529H372.166C372.166 139.975 372.055 139.48 371.834 139.046C371.617 138.611 371.305 138.268 370.901 138.017C370.5 137.765 370.027 137.639 369.482 137.639C368.881 137.639 368.361 137.789 367.922 138.087C367.487 138.381 367.153 138.764 366.918 139.238C366.684 139.711 366.567 140.218 366.567 140.759V141.628C366.567 142.37 366.695 142.998 366.95 143.514C367.21 144.025 367.57 144.415 368.031 144.684C368.491 144.948 369.026 145.08 369.635 145.08C370.031 145.08 370.389 145.024 370.709 144.914C371.033 144.799 371.312 144.628 371.546 144.402C371.781 144.172 371.962 143.887 372.09 143.546L373.547 143.955C373.394 144.449 373.136 144.884 372.774 145.259C372.411 145.63 371.964 145.919 371.431 146.128C370.899 146.333 370.3 146.435 369.635 146.435ZM377.144 140.324V146.23H375.635V136.412H377.093V137.946H377.22C377.45 137.448 377.8 137.047 378.269 136.745C378.737 136.438 379.343 136.284 380.084 136.284C380.749 136.284 381.33 136.421 381.829 136.693C382.328 136.962 382.715 137.371 382.992 137.921C383.269 138.466 383.408 139.157 383.408 139.992V146.23H381.899V140.094C381.899 139.323 381.699 138.722 381.298 138.291C380.898 137.857 380.348 137.639 379.649 137.639C379.168 137.639 378.737 137.744 378.358 137.953C377.983 138.162 377.687 138.466 377.47 138.867C377.252 139.267 377.144 139.753 377.144 140.324ZM390.074 136.412V137.691H384.986V136.412H390.074ZM386.469 134.06H387.978V143.418C387.978 143.844 388.04 144.164 388.163 144.377C388.291 144.586 388.453 144.726 388.649 144.799C388.849 144.867 389.06 144.901 389.282 144.901C389.448 144.901 389.584 144.892 389.691 144.875C389.797 144.854 389.883 144.837 389.946 144.824L390.253 146.179C390.151 146.218 390.008 146.256 389.825 146.294C389.642 146.337 389.41 146.358 389.128 146.358C388.702 146.358 388.285 146.267 387.875 146.083C387.471 145.9 387.134 145.621 386.865 145.246C386.601 144.871 386.469 144.398 386.469 143.827V134.06ZM8.33523 168.611L6.98011 168.995C6.89489 168.769 6.76918 168.549 6.60298 168.336C6.44105 168.119 6.21946 167.94 5.93821 167.799C5.65696 167.659 5.29688 167.588 4.85795 167.588C4.2571 167.588 3.75639 167.727 3.35582 168.004C2.95952 168.277 2.76136 168.624 2.76136 169.046C2.76136 169.421 2.89773 169.717 3.17045 169.934C3.44318 170.152 3.86932 170.333 4.44886 170.478L5.90625 170.836C6.78409 171.049 7.43821 171.375 7.86861 171.814C8.29901 172.248 8.5142 172.809 8.5142 173.495C8.5142 174.057 8.35227 174.56 8.02841 175.003C7.70881 175.446 7.26136 175.796 6.68608 176.051C6.1108 176.307 5.44176 176.435 4.67898 176.435C3.67756 176.435 2.84872 176.218 2.19247 175.783C1.53622 175.348 1.12074 174.713 0.946023 173.878L2.37784 173.52C2.5142 174.049 2.77202 174.445 3.15128 174.709C3.5348 174.973 4.03551 175.105 4.65341 175.105C5.35653 175.105 5.91477 174.956 6.32812 174.658C6.74574 174.355 6.95455 173.993 6.95455 173.571C6.95455 173.23 6.83523 172.945 6.59659 172.715C6.35795 172.48 5.99148 172.306 5.49716 172.191L3.8608 171.807C2.96165 171.594 2.30114 171.264 1.87926 170.816C1.46165 170.365 1.25284 169.8 1.25284 169.122C1.25284 168.568 1.40838 168.078 1.71946 167.652C2.0348 167.226 2.46307 166.892 3.00426 166.649C3.54972 166.406 4.16761 166.284 4.85795 166.284C5.82955 166.284 6.59233 166.497 7.14631 166.924C7.70455 167.35 8.10085 167.912 8.33523 168.611ZM14.4136 176.435C13.5273 176.435 12.7496 176.224 12.0805 175.802C11.4157 175.38 10.8959 174.79 10.5209 174.032C10.1501 173.273 9.96475 172.387 9.96475 171.372C9.96475 170.35 10.1501 169.457 10.5209 168.694C10.8959 167.931 11.4157 167.339 12.0805 166.917C12.7496 166.495 13.5273 166.284 14.4136 166.284C15.3 166.284 16.0755 166.495 16.7403 166.917C17.4094 167.339 17.9292 167.931 18.3 168.694C18.675 169.457 18.8625 170.35 18.8625 171.372C18.8625 172.387 18.675 173.273 18.3 174.032C17.9292 174.79 17.4094 175.38 16.7403 175.802C16.0755 176.224 15.3 176.435 14.4136 176.435ZM14.4136 175.08C15.0869 175.08 15.6409 174.907 16.0755 174.562C16.5102 174.217 16.8319 173.763 17.0407 173.201C17.2496 172.638 17.354 172.029 17.354 171.372C17.354 170.716 17.2496 170.105 17.0407 169.538C16.8319 168.971 16.5102 168.513 16.0755 168.164C15.6409 167.814 15.0869 167.639 14.4136 167.639C13.7403 167.639 13.1863 167.814 12.7517 168.164C12.317 168.513 11.9953 168.971 11.7865 169.538C11.5777 170.105 11.4733 170.716 11.4733 171.372C11.4733 172.029 11.5777 172.638 11.7865 173.201C11.9953 173.763 12.317 174.217 12.7517 174.562C13.1863 174.907 13.7403 175.08 14.4136 175.08ZM22.3137 163.139V176.23H20.8052V163.139H22.3137ZM30.9042 172.216V166.412H32.4127V176.23H30.9042V174.568H30.8019C30.5718 175.067 30.2139 175.491 29.7281 175.84C29.2423 176.186 28.6286 176.358 27.8872 176.358C27.2735 176.358 26.7281 176.224 26.2508 175.956C25.7735 175.683 25.3985 175.274 25.1258 174.728C24.8531 174.179 24.7167 173.486 24.7167 172.651V166.412H26.2252V172.549C26.2252 173.264 26.4255 173.836 26.8261 174.262C27.2309 174.688 27.7465 174.901 28.3729 174.901C28.7479 174.901 29.1293 174.805 29.5171 174.613C29.9092 174.421 30.2373 174.127 30.5015 173.731C30.77 173.335 30.9042 172.83 30.9042 172.216ZM39.0856 166.412V167.691H33.9975V166.412H39.0856ZM35.4805 164.06H36.989V173.418C36.989 173.844 37.0508 174.164 37.1743 174.377C37.3022 174.586 37.4641 174.726 37.6601 174.799C37.8604 174.867 38.0714 174.901 38.293 174.901C38.4591 174.901 38.5955 174.892 38.702 174.875C38.8086 174.854 38.8938 174.837 38.9577 174.824L39.2645 176.179C39.1623 176.218 39.0195 176.256 38.8363 176.294C38.653 176.337 38.4208 176.358 38.1395 176.358C37.7134 176.358 37.2958 176.267 36.8867 176.083C36.4819 175.9 36.1452 175.621 35.8768 175.246C35.6126 174.871 35.4805 174.398 35.4805 173.827V164.06ZM40.9947 176.23V166.412H42.5033V176.23H40.9947ZM41.7618 164.776C41.4678 164.776 41.2142 164.676 41.0011 164.475C40.7923 164.275 40.6879 164.034 40.6879 163.753C40.6879 163.472 40.7923 163.231 41.0011 163.031C41.2142 162.831 41.4678 162.73 41.7618 162.73C42.0558 162.73 42.3072 162.831 42.5161 163.031C42.7291 163.231 42.8357 163.472 42.8357 163.753C42.8357 164.034 42.7291 164.275 42.5161 164.475C42.3072 164.676 42.0558 164.776 41.7618 164.776ZM48.8949 176.435C48.0085 176.435 47.2308 176.224 46.5618 175.802C45.897 175.38 45.3771 174.79 45.0021 174.032C44.6314 173.273 44.446 172.387 44.446 171.372C44.446 170.35 44.6314 169.457 45.0021 168.694C45.3771 167.931 45.897 167.339 46.5618 166.917C47.2308 166.495 48.0085 166.284 48.8949 166.284C49.7812 166.284 50.5568 166.495 51.2216 166.917C51.8906 167.339 52.4105 167.931 52.7812 168.694C53.1562 169.457 53.3437 170.35 53.3437 171.372C53.3437 172.387 53.1562 173.273 52.7812 174.032C52.4105 174.79 51.8906 175.38 51.2216 175.802C50.5568 176.224 49.7812 176.435 48.8949 176.435ZM48.8949 175.08C49.5682 175.08 50.1221 174.907 50.5568 174.562C50.9915 174.217 51.3132 173.763 51.522 173.201C51.7308 172.638 51.8352 172.029 51.8352 171.372C51.8352 170.716 51.7308 170.105 51.522 169.538C51.3132 168.971 50.9915 168.513 50.5568 168.164C50.1221 167.814 49.5682 167.639 48.8949 167.639C48.2216 167.639 47.6676 167.814 47.2329 168.164C46.7983 168.513 46.4765 168.971 46.2677 169.538C46.0589 170.105 45.9545 170.716 45.9545 171.372C45.9545 172.029 46.0589 172.638 46.2677 173.201C46.4765 173.763 46.7983 174.217 47.2329 174.562C47.6676 174.907 48.2216 175.08 48.8949 175.08ZM56.795 170.324V176.23H55.2865V166.412H56.7438V167.946H56.8717C57.1018 167.448 57.4512 167.047 57.92 166.745C58.3887 166.438 58.9938 166.284 59.7353 166.284C60.4001 166.284 60.9818 166.421 61.4804 166.693C61.9789 166.962 62.3667 167.371 62.6437 167.921C62.9207 168.466 63.0592 169.157 63.0592 169.992V176.23H61.5507V170.094C61.5507 169.323 61.3504 168.722 60.9498 168.291C60.5492 167.857 59.9995 167.639 59.3007 167.639C58.8191 167.639 58.3887 167.744 58.0095 167.953C57.6345 168.162 57.3383 168.466 57.121 168.867C56.9037 169.267 56.795 169.753 56.795 170.324ZM66.5552 176.333C66.2399 176.333 65.9693 176.22 65.7434 175.994C65.5176 175.768 65.4046 175.497 65.4046 175.182C65.4046 174.867 65.5176 174.596 65.7434 174.37C65.9693 174.144 66.2399 174.032 66.5552 174.032C66.8705 174.032 67.1411 174.144 67.367 174.37C67.5928 174.596 67.7058 174.867 67.7058 175.182C67.7058 175.391 67.6525 175.583 67.546 175.757C67.4437 175.932 67.3052 176.073 67.1305 176.179C66.96 176.282 66.7683 176.333 66.5552 176.333Z" fill="#212529"/>
</svg>
