<svg width="393" height="225" viewBox="0 0 393 225" fill="none" xmlns="http://www.w3.org/2000/svg">
<mask id="path-1-inside-1_1_1317" fill="white">
<path d="M0.666656 0.769592H392.333V224.23H0.666656V0.769592Z"/>
</mask>
<path d="M392.333 223.23H0.666656V225.23H392.333V223.23Z" fill="white" mask="url(#path-1-inside-1_1_1317)"/>
<path d="M86.6666 13.4556L83.9076 0.769592C64.0423 1.67962 50.2717 9.94494 50.2717 34.2517V62.2299H84.9772V27.0654H71.8333C71.8336 19.2662 76.7271 14.6789 86.6666 13.4556Z" fill="white"/>
<path d="M37.0615 13.4559L34.3026 0.769928C14.4372 1.67995 0.666656 9.9455 0.666656 34.2522V62.2304H35.3735V27.0658H22.2214C22.2214 19.2665 27.115 14.6793 37.0615 13.4559Z" fill="white"/>
<path d="M4.62972 116.23L1.05018 103.139H2.66097L5.39677 113.801H5.52461L8.31154 103.139H10.1013L12.8882 113.801H13.0161L15.7519 103.139H17.3627L13.7831 116.23H12.1468L9.25757 105.799H9.15529L6.26609 116.23H4.62972ZM20.2818 110.324V116.23H18.7733V103.139H20.2818V107.946H20.4096C20.6398 107.439 20.9849 107.037 21.4452 106.738C21.9096 106.436 22.5275 106.284 23.2988 106.284C23.9679 106.284 24.5538 106.419 25.0567 106.687C25.5595 106.951 25.9494 107.358 26.2264 107.908C26.5077 108.453 26.6483 109.148 26.6483 109.992V116.23H25.1398V110.094C25.1398 109.314 24.9373 108.711 24.5325 108.285C24.1319 107.855 23.5758 107.639 22.8642 107.639C22.3699 107.639 21.9267 107.744 21.5346 107.953C21.1469 108.162 20.84 108.466 20.6142 108.867C20.3926 109.267 20.2818 109.753 20.2818 110.324ZM29.048 116.23V106.412H30.5566V116.23H29.048ZM29.8151 104.776C29.5211 104.776 29.2675 104.676 29.0544 104.475C28.8456 104.275 28.7412 104.034 28.7412 103.753C28.7412 103.472 28.8456 103.231 29.0544 103.031C29.2675 102.831 29.5211 102.73 29.8151 102.73C30.1091 102.73 30.3605 102.831 30.5693 103.031C30.7824 103.231 30.889 103.472 30.889 103.753C30.889 104.034 30.7824 104.275 30.5693 104.475C30.3605 104.676 30.1091 104.776 29.8151 104.776ZM37.2294 106.412V107.691H32.1413V106.412H37.2294ZM33.6243 104.06H35.1328V113.418C35.1328 113.844 35.1946 114.164 35.3182 114.377C35.446 114.586 35.608 114.726 35.804 114.799C36.0043 114.867 36.2152 114.901 36.4368 114.901C36.603 114.901 36.7394 114.892 36.8459 114.875C36.9524 114.854 37.0377 114.837 37.1016 114.824L37.4084 116.179C37.3061 116.218 37.1634 116.256 36.9801 116.294C36.7969 116.337 36.5646 116.358 36.2834 116.358C35.8573 116.358 35.4396 116.267 35.0305 116.083C34.6257 115.9 34.2891 115.621 34.0206 115.246C33.7564 114.871 33.6243 114.398 33.6243 113.827V104.06ZM43.1496 116.435C42.2036 116.435 41.3875 116.226 40.7014 115.809C40.0196 115.387 39.4933 114.799 39.1226 114.044C38.7561 113.286 38.5729 112.404 38.5729 111.398C38.5729 110.392 38.7561 109.506 39.1226 108.739C39.4933 107.968 40.009 107.367 40.6695 106.936C41.3343 106.502 42.1098 106.284 42.9962 106.284C43.5076 106.284 44.0125 106.37 44.5111 106.54C45.0097 106.711 45.4635 106.988 45.8726 107.371C46.2817 107.75 46.6077 108.253 46.8506 108.88C47.0935 109.506 47.2149 110.277 47.2149 111.193V111.833H39.6468V110.529H45.6808C45.6808 109.975 45.5701 109.48 45.3485 109.046C45.1311 108.611 44.8201 108.268 44.4152 108.017C44.0147 107.765 43.5416 107.639 42.9962 107.639C42.3953 107.639 41.8755 107.789 41.4365 108.087C41.0019 108.381 40.6674 108.764 40.433 109.238C40.1986 109.711 40.0814 110.218 40.0814 110.759V111.628C40.0814 112.37 40.2093 112.998 40.4649 113.514C40.7249 114.025 41.085 114.415 41.5452 114.684C42.0054 114.948 42.5402 115.08 43.1496 115.08C43.5459 115.08 43.9039 115.024 44.2235 114.914C44.5473 114.799 44.8264 114.628 45.0608 114.402C45.2952 114.172 45.4763 113.887 45.6041 113.546L47.0615 113.955C46.9081 114.449 46.6503 114.884 46.2881 115.259C45.9259 115.63 45.4784 115.919 44.9458 116.128C44.4131 116.333 43.8144 116.435 43.1496 116.435ZM49.1497 119.912V106.412H50.6071V107.972H50.786C50.8968 107.801 51.0503 107.584 51.2463 107.32C51.4466 107.051 51.7321 106.813 52.1028 106.604C52.4778 106.391 52.9849 106.284 53.6241 106.284C54.4508 106.284 55.1795 106.491 55.8102 106.904C56.4409 107.318 56.9331 107.904 57.2868 108.662C57.6405 109.421 57.8173 110.316 57.8173 111.347C57.8173 112.387 57.6405 113.288 57.2868 114.051C56.9331 114.809 56.443 115.397 55.8166 115.815C55.1902 116.228 54.4679 116.435 53.6497 116.435C53.019 116.435 52.514 116.331 52.1348 116.122C51.7555 115.909 51.4636 115.668 51.2591 115.399C51.0545 115.127 50.8968 114.901 50.786 114.722H50.6582V119.912H49.1497ZM50.6326 111.321C50.6326 112.063 50.7413 112.717 50.9586 113.284C51.176 113.846 51.4934 114.287 51.911 114.607C52.3287 114.922 52.84 115.08 53.4451 115.08C54.0758 115.08 54.6021 114.914 55.024 114.581C55.4501 114.245 55.7697 113.793 55.9828 113.226C56.2001 112.655 56.3088 112.02 56.3088 111.321C56.3088 110.631 56.2022 110.009 55.9892 109.455C55.7804 108.897 55.4629 108.456 55.0368 108.132C54.6149 107.804 54.0843 107.639 53.4451 107.639C52.8315 107.639 52.3159 107.795 51.8983 108.106C51.4806 108.413 51.1653 108.843 50.9522 109.397C50.7392 109.947 50.6326 110.588 50.6326 111.321ZM62.6476 116.461C62.0255 116.461 61.4608 116.343 60.9537 116.109C60.4466 115.87 60.0439 115.527 59.7456 115.08C59.4474 114.628 59.2982 114.083 59.2982 113.443C59.2982 112.881 59.409 112.425 59.6306 112.076C59.8522 111.722 60.1483 111.445 60.5191 111.245C60.8898 111.044 61.2989 110.895 61.7464 110.797C62.1981 110.695 62.6519 110.614 63.1079 110.554C63.7045 110.478 64.1881 110.42 64.5589 110.382C64.9339 110.339 65.2066 110.269 65.377 110.171C65.5518 110.073 65.6391 109.902 65.6391 109.659V109.608C65.6391 108.978 65.4665 108.488 65.1214 108.138C64.7804 107.789 64.2627 107.614 63.5681 107.614C62.8479 107.614 62.2833 107.772 61.8742 108.087C61.4651 108.402 61.1775 108.739 61.0113 109.097L59.5795 108.586C59.8351 107.989 60.176 107.524 60.6022 107.192C61.0326 106.855 61.5013 106.621 62.0084 106.489C62.5198 106.353 63.0226 106.284 63.517 106.284C63.8323 106.284 64.1945 106.323 64.6036 106.399C65.017 106.472 65.4154 106.623 65.7989 106.853C66.1867 107.083 66.5084 107.431 66.7641 107.895C67.0198 108.36 67.1476 108.982 67.1476 109.762V116.23H65.6391V114.901H65.5624C65.4601 115.114 65.2897 115.342 65.051 115.585C64.8124 115.828 64.4949 116.034 64.0986 116.205C63.7023 116.375 63.2187 116.461 62.6476 116.461ZM62.8778 115.105C63.4743 115.105 63.9772 114.988 64.3863 114.754C64.7996 114.519 65.1107 114.217 65.3195 113.846C65.5326 113.475 65.6391 113.086 65.6391 112.676V111.296C65.5752 111.372 65.4346 111.443 65.2172 111.507C65.0042 111.566 64.757 111.62 64.4758 111.666C64.1988 111.709 63.9282 111.747 63.664 111.782C63.404 111.811 63.1931 111.837 63.0312 111.858C62.6391 111.909 62.2726 111.992 61.9317 112.108C61.5951 112.218 61.3224 112.387 61.1135 112.613C60.909 112.834 60.8067 113.137 60.8067 113.52C60.8067 114.044 61.0006 114.441 61.3884 114.709C61.7804 114.973 62.2769 115.105 62.8778 115.105ZM73.8109 106.412V107.691H68.7228V106.412H73.8109ZM70.2058 104.06H71.7143V113.418C71.7143 113.844 71.7761 114.164 71.8997 114.377C72.0275 114.586 72.1895 114.726 72.3855 114.799C72.5858 114.867 72.7967 114.901 73.0183 114.901C73.1845 114.901 73.3208 114.892 73.4274 114.875C73.5339 114.854 73.6191 114.837 73.6831 114.824L73.9899 116.179C73.8876 116.218 73.7448 116.256 73.5616 116.294C73.3784 116.337 73.1461 116.358 72.8649 116.358C72.4387 116.358 72.0211 116.267 71.612 116.083C71.2072 115.9 70.8706 115.621 70.6021 115.246C70.3379 114.871 70.2058 114.398 70.2058 113.827V104.06ZM79.7311 116.435C78.7851 116.435 77.969 116.226 77.2829 115.809C76.6011 115.387 76.0748 114.799 75.7041 114.044C75.3376 113.286 75.1544 112.404 75.1544 111.398C75.1544 110.392 75.3376 109.506 75.7041 108.739C76.0748 107.968 76.5905 107.367 77.251 106.936C77.9157 106.502 78.6913 106.284 79.5777 106.284C80.089 106.284 80.594 106.37 81.0926 106.54C81.5912 106.711 82.045 106.988 82.4541 107.371C82.8632 107.75 83.1892 108.253 83.4321 108.88C83.675 109.506 83.7964 110.277 83.7964 111.193V111.833H76.2282V110.529H82.2623C82.2623 109.975 82.1515 109.48 81.9299 109.046C81.7126 108.611 81.4015 108.268 80.9967 108.017C80.5961 107.765 80.1231 107.639 79.5777 107.639C78.9768 107.639 78.4569 107.789 78.018 108.087C77.5834 108.381 77.2488 108.764 77.0145 109.238C76.7801 109.711 76.6629 110.218 76.6629 110.759V111.628C76.6629 112.37 76.7907 112.998 77.0464 113.514C77.3064 114.025 77.6665 114.415 78.1267 114.684C78.5869 114.948 79.1217 115.08 79.7311 115.08C80.1274 115.08 80.4853 115.024 80.8049 114.914C81.1288 114.799 81.4079 114.628 81.6423 114.402C81.8767 114.172 82.0578 113.887 82.1856 113.546L83.643 113.955C83.4896 114.449 83.2318 114.884 82.8696 115.259C82.5074 115.63 82.0599 115.919 81.5272 116.128C80.9946 116.333 80.3959 116.435 79.7311 116.435ZM90.4337 116.23V106.412H91.9422V116.23H90.4337ZM91.2007 104.776C90.9067 104.776 90.6531 104.676 90.4401 104.475C90.2313 104.275 90.1268 104.034 90.1268 103.753C90.1268 103.472 90.2313 103.231 90.4401 103.031C90.6531 102.831 90.9067 102.73 91.2007 102.73C91.4947 102.73 91.7462 102.831 91.955 103.031C92.168 103.231 92.2746 103.472 92.2746 103.753C92.2746 104.034 92.168 104.275 91.955 104.475C91.7462 104.676 91.4947 104.776 91.2007 104.776ZM101.3 108.611L99.9446 108.995C99.8594 108.769 99.7336 108.549 99.5675 108.336C99.4055 108.119 99.1839 107.94 98.9027 107.799C98.6214 107.659 98.2613 107.588 97.8224 107.588C97.2216 107.588 96.7209 107.727 96.3203 108.004C95.924 108.277 95.7258 108.624 95.7258 109.046C95.7258 109.421 95.8622 109.717 96.1349 109.934C96.4077 110.152 96.8338 110.333 97.4133 110.478L98.8707 110.836C99.7486 111.049 100.403 111.375 100.833 111.814C101.263 112.248 101.479 112.809 101.479 113.495C101.479 114.057 101.317 114.56 100.993 115.003C100.673 115.446 100.226 115.796 99.6505 116.051C99.0753 116.307 98.4062 116.435 97.6434 116.435C96.642 116.435 95.8132 116.218 95.1569 115.783C94.5007 115.348 94.0852 114.713 93.9105 113.878L95.3423 113.52C95.4787 114.049 95.7365 114.445 96.1157 114.709C96.4993 114.973 97 115.105 97.6179 115.105C98.321 115.105 98.8792 114.956 99.2926 114.658C99.7102 114.355 99.919 113.993 99.919 113.571C99.919 113.23 99.7997 112.945 99.5611 112.715C99.3224 112.48 98.9559 112.306 98.4616 112.191L96.8253 111.807C95.9261 111.594 95.2656 111.264 94.8437 110.816C94.4261 110.365 94.2173 109.8 94.2173 109.122C94.2173 108.568 94.3729 108.078 94.6839 107.652C94.9993 107.226 95.4275 106.892 95.9687 106.649C96.5142 106.406 97.1321 106.284 97.8224 106.284C98.794 106.284 99.5568 106.497 100.111 106.924C100.669 107.35 101.065 107.912 101.3 108.611ZM111.799 116.435C110.981 116.435 110.259 116.228 109.632 115.815C109.006 115.397 108.516 114.809 108.162 114.051C107.809 113.288 107.632 112.387 107.632 111.347C107.632 110.316 107.809 109.421 108.162 108.662C108.516 107.904 109.008 107.318 109.639 106.904C110.27 106.491 110.998 106.284 111.825 106.284C112.464 106.284 112.969 106.391 113.34 106.604C113.715 106.813 114 107.051 114.196 107.32C114.397 107.584 114.552 107.801 114.663 107.972H114.791V103.139H116.299V116.23H114.842V114.722H114.663C114.552 114.901 114.395 115.127 114.19 115.399C113.985 115.668 113.694 115.909 113.314 116.122C112.935 116.331 112.43 116.435 111.799 116.435ZM112.004 115.08C112.609 115.08 113.12 114.922 113.538 114.607C113.956 114.287 114.273 113.846 114.49 113.284C114.708 112.717 114.816 112.063 114.816 111.321C114.816 110.588 114.71 109.947 114.497 109.397C114.284 108.843 113.968 108.413 113.551 108.106C113.133 107.795 112.618 107.639 112.004 107.639C111.365 107.639 110.832 107.804 110.406 108.132C109.984 108.456 109.667 108.897 109.453 109.455C109.245 110.009 109.14 110.631 109.14 111.321C109.14 112.02 109.247 112.655 109.46 113.226C109.677 113.793 109.997 114.245 110.419 114.581C110.845 114.914 111.373 115.08 112.004 115.08ZM123.028 116.435C122.082 116.435 121.266 116.226 120.58 115.809C119.898 115.387 119.372 114.799 119.001 114.044C118.635 113.286 118.451 112.404 118.451 111.398C118.451 110.392 118.635 109.506 119.001 108.739C119.372 107.968 119.887 107.367 120.548 106.936C121.213 106.502 121.988 106.284 122.875 106.284C123.386 106.284 123.891 106.37 124.39 106.54C124.888 106.711 125.342 106.988 125.751 107.371C126.16 107.75 126.486 108.253 126.729 108.88C126.972 109.506 127.093 110.277 127.093 111.193V111.833H119.525V110.529H125.559C125.559 109.975 125.449 109.48 125.227 109.046C125.01 108.611 124.699 108.268 124.294 108.017C123.893 107.765 123.42 107.639 122.875 107.639C122.274 107.639 121.754 107.789 121.315 108.087C120.88 108.381 120.546 108.764 120.311 109.238C120.077 109.711 119.96 110.218 119.96 110.759V111.628C119.96 112.37 120.088 112.998 120.343 113.514C120.603 114.025 120.963 114.415 121.424 114.684C121.884 114.948 122.419 115.08 123.028 115.08C123.424 115.08 123.782 115.024 124.102 114.914C124.426 114.799 124.705 114.628 124.939 114.402C125.174 114.172 125.355 113.887 125.483 113.546L126.94 113.955C126.787 114.449 126.529 114.884 126.167 115.259C125.804 115.63 125.357 115.919 124.824 116.128C124.292 116.333 123.693 116.435 123.028 116.435ZM135.983 108.611L134.628 108.995C134.542 108.769 134.417 108.549 134.25 108.336C134.089 108.119 133.867 107.94 133.586 107.799C133.304 107.659 132.944 107.588 132.505 107.588C131.905 107.588 131.404 107.727 131.003 108.004C130.607 108.277 130.409 108.624 130.409 109.046C130.409 109.421 130.545 109.717 130.818 109.934C131.091 110.152 131.517 110.333 132.096 110.478L133.554 110.836C134.432 111.049 135.086 111.375 135.516 111.814C135.947 112.248 136.162 112.809 136.162 113.495C136.162 114.057 136 114.56 135.676 115.003C135.356 115.446 134.909 115.796 134.334 116.051C133.758 116.307 133.089 116.435 132.326 116.435C131.325 116.435 130.496 116.218 129.84 115.783C129.184 115.348 128.768 114.713 128.594 113.878L130.025 113.52C130.162 114.049 130.42 114.445 130.799 114.709C131.182 114.973 131.683 115.105 132.301 115.105C133.004 115.105 133.562 114.956 133.976 114.658C134.393 114.355 134.602 113.993 134.602 113.571C134.602 113.23 134.483 112.945 134.244 112.715C134.005 112.48 133.639 112.306 133.145 112.191L131.508 111.807C130.609 111.594 129.949 111.264 129.527 110.816C129.109 110.365 128.9 109.8 128.9 109.122C128.9 108.568 129.056 108.078 129.367 107.652C129.682 107.226 130.111 106.892 130.652 106.649C131.197 106.406 131.815 106.284 132.505 106.284C133.477 106.284 134.24 106.497 134.794 106.924C135.352 107.35 135.748 107.912 135.983 108.611ZM138.073 116.23V106.412H139.581V116.23H138.073ZM138.84 104.776C138.546 104.776 138.292 104.676 138.079 104.475C137.87 104.275 137.766 104.034 137.766 103.753C137.766 103.472 137.87 103.231 138.079 103.031C138.292 102.831 138.546 102.73 138.84 102.73C139.134 102.73 139.385 102.831 139.594 103.031C139.807 103.231 139.913 103.472 139.913 103.753C139.913 104.034 139.807 104.275 139.594 104.475C139.385 104.676 139.134 104.776 138.84 104.776ZM145.947 120.117C145.218 120.117 144.592 120.023 144.068 119.836C143.544 119.652 143.107 119.409 142.757 119.107C142.412 118.809 142.137 118.489 141.933 118.148L143.135 117.304C143.271 117.483 143.444 117.688 143.652 117.918C143.861 118.152 144.147 118.355 144.509 118.525C144.875 118.7 145.355 118.787 145.947 118.787C146.74 118.787 147.394 118.595 147.909 118.212C148.425 117.828 148.683 117.228 148.683 116.409V114.415H148.555C148.444 114.594 148.287 114.816 148.082 115.08C147.882 115.34 147.592 115.572 147.213 115.777C146.838 115.977 146.331 116.077 145.691 116.077C144.899 116.077 144.187 115.889 143.556 115.514C142.93 115.139 142.434 114.594 142.067 113.878C141.705 113.162 141.524 112.293 141.524 111.27C141.524 110.264 141.701 109.389 142.054 108.643C142.408 107.893 142.9 107.314 143.531 106.904C144.162 106.491 144.89 106.284 145.717 106.284C146.356 106.284 146.863 106.391 147.238 106.604C147.618 106.813 147.907 107.051 148.108 107.32C148.312 107.584 148.47 107.801 148.581 107.972H148.734V106.412H150.191V116.512C150.191 117.355 150 118.041 149.616 118.57C149.237 119.103 148.725 119.492 148.082 119.74C147.443 119.991 146.731 120.117 145.947 120.117ZM145.896 114.722C146.501 114.722 147.012 114.583 147.43 114.306C147.848 114.029 148.165 113.631 148.382 113.111C148.6 112.591 148.708 111.969 148.708 111.245C148.708 110.537 148.602 109.913 148.389 109.372C148.176 108.831 147.86 108.407 147.443 108.1C147.025 107.793 146.51 107.639 145.896 107.639C145.257 107.639 144.724 107.801 144.298 108.125C143.876 108.449 143.559 108.884 143.345 109.429C143.137 109.975 143.032 110.58 143.032 111.245C143.032 111.926 143.139 112.529 143.352 113.054C143.569 113.573 143.889 113.983 144.311 114.281C144.737 114.575 145.265 114.722 145.896 114.722ZM154.101 110.324V116.23H152.593V106.412H154.05V107.946H154.178C154.408 107.448 154.758 107.047 155.226 106.745C155.695 106.438 156.3 106.284 157.042 106.284C157.706 106.284 158.288 106.421 158.787 106.693C159.285 106.962 159.673 107.371 159.95 107.921C160.227 108.466 160.365 109.157 160.365 109.992V116.23H158.857V110.094C158.857 109.323 158.657 108.722 158.256 108.291C157.856 107.857 157.306 107.639 156.607 107.639C156.125 107.639 155.695 107.744 155.316 107.953C154.941 108.162 154.645 108.466 154.427 108.867C154.21 109.267 154.101 109.753 154.101 110.324ZM166.879 116.435C165.932 116.435 165.116 116.226 164.43 115.809C163.749 115.387 163.222 114.799 162.852 114.044C162.485 113.286 162.302 112.404 162.302 111.398C162.302 110.392 162.485 109.506 162.852 108.739C163.222 107.968 163.738 107.367 164.398 106.936C165.063 106.502 165.839 106.284 166.725 106.284C167.236 106.284 167.741 106.37 168.24 106.54C168.739 106.711 169.192 106.988 169.602 107.371C170.011 107.75 170.337 108.253 170.58 108.88C170.822 109.506 170.944 110.277 170.944 111.193V111.833H163.376V110.529H169.41C169.41 109.975 169.299 109.48 169.077 109.046C168.86 108.611 168.549 108.268 168.144 108.017C167.744 107.765 167.271 107.639 166.725 107.639C166.124 107.639 165.604 107.789 165.165 108.087C164.731 108.381 164.396 108.764 164.162 109.238C163.928 109.711 163.81 110.218 163.81 110.759V111.628C163.81 112.37 163.938 112.998 164.194 113.514C164.454 114.025 164.814 114.415 165.274 114.684C165.734 114.948 166.269 115.08 166.879 115.08C167.275 115.08 167.633 115.024 167.952 114.914C168.276 114.799 168.555 114.628 168.79 114.402C169.024 114.172 169.205 113.887 169.333 113.546L170.79 113.955C170.637 114.449 170.379 114.884 170.017 115.259C169.655 115.63 169.207 115.919 168.675 116.128C168.142 116.333 167.543 116.435 166.879 116.435ZM176.586 116.435C175.768 116.435 175.045 116.228 174.419 115.815C173.793 115.397 173.303 114.809 172.949 114.051C172.595 113.288 172.418 112.387 172.418 111.347C172.418 110.316 172.595 109.421 172.949 108.662C173.303 107.904 173.795 107.318 174.425 106.904C175.056 106.491 175.785 106.284 176.612 106.284C177.251 106.284 177.756 106.391 178.126 106.604C178.501 106.813 178.787 107.051 178.983 107.32C179.183 107.584 179.339 107.801 179.45 107.972H179.577V103.139H181.086V116.23H179.629V114.722H179.45C179.339 114.901 179.181 115.127 178.977 115.399C178.772 115.668 178.48 115.909 178.101 116.122C177.722 116.331 177.217 116.435 176.586 116.435ZM176.791 115.08C177.396 115.08 177.907 114.922 178.325 114.607C178.742 114.287 179.06 113.846 179.277 113.284C179.494 112.717 179.603 112.063 179.603 111.321C179.603 110.588 179.496 109.947 179.283 109.397C179.07 108.843 178.755 108.413 178.337 108.106C177.92 107.795 177.404 107.639 176.791 107.639C176.151 107.639 175.619 107.804 175.193 108.132C174.771 108.456 174.453 108.897 174.24 109.455C174.031 110.009 173.927 110.631 173.927 111.321C173.927 112.02 174.033 112.655 174.246 113.226C174.464 113.793 174.783 114.245 175.205 114.581C175.631 114.914 176.16 115.08 176.791 115.08ZM191.29 116.461C190.668 116.461 190.103 116.343 189.596 116.109C189.089 115.87 188.686 115.527 188.388 115.08C188.09 114.628 187.941 114.083 187.941 113.443C187.941 112.881 188.051 112.425 188.273 112.076C188.495 111.722 188.791 111.445 189.161 111.245C189.532 111.044 189.941 110.895 190.389 110.797C190.84 110.695 191.294 110.614 191.75 110.554C192.347 110.478 192.83 110.42 193.201 110.382C193.576 110.339 193.849 110.269 194.019 110.171C194.194 110.073 194.281 109.902 194.281 109.659V109.608C194.281 108.978 194.109 108.488 193.764 108.138C193.423 107.789 192.905 107.614 192.21 107.614C191.49 107.614 190.926 107.772 190.517 108.087C190.107 108.402 189.82 108.739 189.654 109.097L188.222 108.586C188.477 107.989 188.818 107.524 189.245 107.192C189.675 106.855 190.144 106.621 190.651 106.489C191.162 106.353 191.665 106.284 192.159 106.284C192.475 106.284 192.837 106.323 193.246 106.399C193.659 106.472 194.058 106.623 194.441 106.853C194.829 107.083 195.151 107.431 195.406 107.895C195.662 108.36 195.79 108.982 195.79 109.762V116.23H194.281V114.901H194.205C194.102 115.114 193.932 115.342 193.693 115.585C193.455 115.828 193.137 116.034 192.741 116.205C192.345 116.375 191.861 116.461 191.29 116.461ZM191.52 115.105C192.117 115.105 192.62 114.988 193.029 114.754C193.442 114.519 193.753 114.217 193.962 113.846C194.175 113.475 194.281 113.086 194.281 112.676V111.296C194.218 111.372 194.077 111.443 193.86 111.507C193.647 111.566 193.399 111.62 193.118 111.666C192.841 111.709 192.571 111.747 192.306 111.782C192.046 111.811 191.835 111.837 191.674 111.858C191.281 111.909 190.915 111.992 190.574 112.108C190.237 112.218 189.965 112.387 189.756 112.613C189.551 112.834 189.449 113.137 189.449 113.52C189.449 114.044 189.643 114.441 190.031 114.709C190.423 114.973 190.919 115.105 191.52 115.105ZM205.138 108.611L203.783 108.995C203.698 108.769 203.572 108.549 203.406 108.336C203.244 108.119 203.022 107.94 202.741 107.799C202.46 107.659 202.1 107.588 201.661 107.588C201.06 107.588 200.559 107.727 200.158 108.004C199.762 108.277 199.564 108.624 199.564 109.046C199.564 109.421 199.7 109.717 199.973 109.934C200.246 110.152 200.672 110.333 201.252 110.478L202.709 110.836C203.587 111.049 204.241 111.375 204.671 111.814C205.102 112.248 205.317 112.809 205.317 113.495C205.317 114.057 205.155 114.56 204.831 115.003C204.511 115.446 204.064 115.796 203.489 116.051C202.913 116.307 202.244 116.435 201.482 116.435C200.48 116.435 199.651 116.218 198.995 115.783C198.339 115.348 197.923 114.713 197.749 113.878L199.181 113.52C199.317 114.049 199.575 114.445 199.954 114.709C200.337 114.973 200.838 115.105 201.456 115.105C202.159 115.105 202.717 114.956 203.131 114.658C203.548 114.355 203.757 113.993 203.757 113.571C203.757 113.23 203.638 112.945 203.399 112.715C203.161 112.48 202.794 112.306 202.3 112.191L200.663 111.807C199.764 111.594 199.104 111.264 198.682 110.816C198.264 110.365 198.056 109.8 198.056 109.122C198.056 108.568 198.211 108.078 198.522 107.652C198.837 107.226 199.266 106.892 199.807 106.649C200.352 106.406 200.97 106.284 201.661 106.284C202.632 106.284 203.395 106.497 203.949 106.924C204.507 107.35 204.904 107.912 205.138 108.611ZM214.819 116.461C214.197 116.461 213.633 116.343 213.125 116.109C212.618 115.87 212.216 115.527 211.917 115.08C211.619 114.628 211.47 114.083 211.47 113.443C211.47 112.881 211.581 112.425 211.802 112.076C212.024 111.722 212.32 111.445 212.691 111.245C213.062 111.044 213.471 110.895 213.918 110.797C214.37 110.695 214.824 110.614 215.28 110.554C215.876 110.478 216.36 110.42 216.731 110.382C217.106 110.339 217.378 110.269 217.549 110.171C217.723 110.073 217.811 109.902 217.811 109.659V109.608C217.811 108.978 217.638 108.488 217.293 108.138C216.952 107.789 216.434 107.614 215.74 107.614C215.02 107.614 214.455 107.772 214.046 108.087C213.637 108.402 213.349 108.739 213.183 109.097L211.751 108.586C212.007 107.989 212.348 107.524 212.774 107.192C213.204 106.855 213.673 106.621 214.18 106.489C214.692 106.353 215.194 106.284 215.689 106.284C216.004 106.284 216.366 106.323 216.775 106.399C217.189 106.472 217.587 106.623 217.971 106.853C218.358 107.083 218.68 107.431 218.936 107.895C219.192 108.36 219.319 108.982 219.319 109.762V116.23H217.811V114.901H217.734C217.632 115.114 217.461 115.342 217.223 115.585C216.984 115.828 216.667 116.034 216.27 116.205C215.874 116.375 215.39 116.461 214.819 116.461ZM215.049 115.105C215.646 115.105 216.149 114.988 216.558 114.754C216.971 114.519 217.282 114.217 217.491 113.846C217.704 113.475 217.811 113.086 217.811 112.676V111.296C217.747 111.372 217.606 111.443 217.389 111.507C217.176 111.566 216.929 111.62 216.647 111.666C216.37 111.709 216.1 111.747 215.836 111.782C215.576 111.811 215.365 111.837 215.203 111.858C214.811 111.909 214.444 111.992 214.103 112.108C213.767 112.218 213.494 112.387 213.285 112.613C213.081 112.834 212.978 113.137 212.978 113.52C212.978 114.044 213.172 114.441 213.56 114.709C213.952 114.973 214.449 115.105 215.049 115.105ZM230.404 116.435C229.483 116.435 228.691 116.218 228.026 115.783C227.361 115.348 226.85 114.75 226.492 113.987C226.134 113.224 225.955 112.353 225.955 111.372C225.955 110.375 226.138 109.495 226.505 108.733C226.875 107.965 227.391 107.367 228.052 106.936C228.716 106.502 229.492 106.284 230.378 106.284C231.069 106.284 231.691 106.412 232.245 106.668C232.799 106.924 233.253 107.282 233.606 107.742C233.96 108.202 234.179 108.739 234.265 109.353H232.756C232.641 108.905 232.385 108.509 231.989 108.164C231.597 107.814 231.069 107.639 230.404 107.639C229.816 107.639 229.3 107.793 228.857 108.1C228.418 108.402 228.075 108.831 227.828 109.385C227.585 109.934 227.464 110.58 227.464 111.321C227.464 112.08 227.583 112.74 227.821 113.303C228.064 113.865 228.405 114.302 228.844 114.613C229.287 114.924 229.807 115.08 230.404 115.08C230.796 115.08 231.152 115.012 231.471 114.875C231.791 114.739 232.062 114.543 232.283 114.287C232.505 114.032 232.662 113.725 232.756 113.367H234.265C234.179 113.946 233.968 114.468 233.632 114.933C233.299 115.393 232.858 115.76 232.309 116.032C231.763 116.301 231.128 116.435 230.404 116.435ZM240.099 116.435C239.212 116.435 238.434 116.224 237.765 115.802C237.101 115.38 236.581 114.79 236.206 114.032C235.835 113.273 235.65 112.387 235.65 111.372C235.65 110.35 235.835 109.457 236.206 108.694C236.581 107.931 237.101 107.339 237.765 106.917C238.434 106.495 239.212 106.284 240.099 106.284C240.985 106.284 241.76 106.495 242.425 106.917C243.094 107.339 243.614 107.931 243.985 108.694C244.36 109.457 244.547 110.35 244.547 111.372C244.547 112.387 244.36 113.273 243.985 114.032C243.614 114.79 243.094 115.38 242.425 115.802C241.76 116.224 240.985 116.435 240.099 116.435ZM240.099 115.08C240.772 115.08 241.326 114.907 241.76 114.562C242.195 114.217 242.517 113.763 242.726 113.201C242.934 112.638 243.039 112.029 243.039 111.372C243.039 110.716 242.934 110.105 242.726 109.538C242.517 108.971 242.195 108.513 241.76 108.164C241.326 107.814 240.772 107.639 240.099 107.639C239.425 107.639 238.871 107.814 238.437 108.164C238.002 108.513 237.68 108.971 237.471 109.538C237.263 110.105 237.158 110.716 237.158 111.372C237.158 112.029 237.263 112.638 237.471 113.201C237.68 113.763 238.002 114.217 238.437 114.562C238.871 114.907 239.425 115.08 240.099 115.08ZM247.999 103.139V116.23H246.49V103.139H247.999ZM251.91 103.139V116.23H250.402V103.139H251.91ZM257.202 116.461C256.58 116.461 256.016 116.343 255.508 116.109C255.001 115.87 254.599 115.527 254.3 115.08C254.002 114.628 253.853 114.083 253.853 113.443C253.853 112.881 253.964 112.425 254.185 112.076C254.407 111.722 254.703 111.445 255.074 111.245C255.445 111.044 255.854 110.895 256.301 110.797C256.753 110.695 257.207 110.614 257.663 110.554C258.259 110.478 258.743 110.42 259.114 110.382C259.489 110.339 259.761 110.269 259.932 110.171C260.106 110.073 260.194 109.902 260.194 109.659V109.608C260.194 108.978 260.021 108.488 259.676 108.138C259.335 107.789 258.817 107.614 258.123 107.614C257.403 107.614 256.838 107.772 256.429 108.087C256.02 108.402 255.732 108.739 255.566 109.097L254.134 108.586C254.39 107.989 254.731 107.524 255.157 107.192C255.587 106.855 256.056 106.621 256.563 106.489C257.074 106.353 257.577 106.284 258.072 106.284C258.387 106.284 258.749 106.323 259.158 106.399C259.572 106.472 259.97 106.623 260.354 106.853C260.741 107.083 261.063 107.431 261.319 107.895C261.574 108.36 261.702 108.982 261.702 109.762V116.23H260.194V114.901H260.117C260.015 115.114 259.844 115.342 259.606 115.585C259.367 115.828 259.05 116.034 258.653 116.205C258.257 116.375 257.773 116.461 257.202 116.461ZM257.432 115.105C258.029 115.105 258.532 114.988 258.941 114.754C259.354 114.519 259.665 114.217 259.874 113.846C260.087 113.475 260.194 113.086 260.194 112.676V111.296C260.13 111.372 259.989 111.443 259.772 111.507C259.559 111.566 259.312 111.62 259.03 111.666C258.753 111.709 258.483 111.747 258.219 111.782C257.959 111.811 257.748 111.837 257.586 111.858C257.194 111.909 256.827 111.992 256.486 112.108C256.15 112.218 255.877 112.387 255.668 112.613C255.464 112.834 255.361 113.137 255.361 113.52C255.361 114.044 255.555 114.441 255.943 114.709C256.335 114.973 256.832 115.105 257.432 115.105ZM264.3 116.23V103.139H265.809V107.972H265.937C266.047 107.801 266.201 107.584 266.397 107.32C266.597 107.051 266.883 106.813 267.253 106.604C267.628 106.391 268.135 106.284 268.775 106.284C269.601 106.284 270.33 106.491 270.961 106.904C271.591 107.318 272.084 107.904 272.437 108.662C272.791 109.421 272.968 110.316 272.968 111.347C272.968 112.387 272.791 113.288 272.437 114.051C272.084 114.809 271.594 115.397 270.967 115.815C270.341 116.228 269.618 116.435 268.8 116.435C268.17 116.435 267.665 116.331 267.285 116.122C266.906 115.909 266.614 115.668 266.41 115.399C266.205 115.127 266.047 114.901 265.937 114.722H265.758V116.23H264.3ZM265.783 111.321C265.783 112.063 265.892 112.717 266.109 113.284C266.327 113.846 266.644 114.287 267.062 114.607C267.479 114.922 267.991 115.08 268.596 115.08C269.226 115.08 269.753 114.914 270.175 114.581C270.601 114.245 270.92 113.793 271.133 113.226C271.351 112.655 271.459 112.02 271.459 111.321C271.459 110.631 271.353 110.009 271.14 109.455C270.931 108.897 270.613 108.456 270.187 108.132C269.765 107.804 269.235 107.639 268.596 107.639C267.982 107.639 267.466 107.795 267.049 108.106C266.631 108.413 266.316 108.843 266.103 109.397C265.89 109.947 265.783 110.588 265.783 111.321ZM278.904 116.435C278.018 116.435 277.24 116.224 276.571 115.802C275.906 115.38 275.386 114.79 275.011 114.032C274.641 113.273 274.455 112.387 274.455 111.372C274.455 110.35 274.641 109.457 275.011 108.694C275.386 107.931 275.906 107.339 276.571 106.917C277.24 106.495 278.018 106.284 278.904 106.284C279.79 106.284 280.566 106.495 281.231 106.917C281.9 107.339 282.42 107.931 282.79 108.694C283.165 109.457 283.353 110.35 283.353 111.372C283.353 112.387 283.165 113.273 282.79 114.032C282.42 114.79 281.9 115.38 281.231 115.802C280.566 116.224 279.79 116.435 278.904 116.435ZM278.904 115.08C279.577 115.08 280.131 114.907 280.566 114.562C281.001 114.217 281.322 113.763 281.531 113.201C281.74 112.638 281.844 112.029 281.844 111.372C281.844 110.716 281.74 110.105 281.531 109.538C281.322 108.971 281.001 108.513 280.566 108.164C280.131 107.814 279.577 107.639 278.904 107.639C278.231 107.639 277.677 107.814 277.242 108.164C276.807 108.513 276.486 108.971 276.277 109.538C276.068 110.105 275.964 110.716 275.964 111.372C275.964 112.029 276.068 112.638 276.277 113.201C276.486 113.763 276.807 114.217 277.242 114.562C277.677 114.907 278.231 115.08 278.904 115.08ZM285.296 116.23V106.412H286.753V107.895H286.855C287.034 107.409 287.358 107.015 287.827 106.713C288.296 106.41 288.824 106.259 289.412 106.259C289.523 106.259 289.661 106.261 289.828 106.265C289.994 106.269 290.119 106.276 290.205 106.284V107.818C290.154 107.806 290.036 107.787 289.853 107.761C289.674 107.731 289.485 107.716 289.284 107.716C288.807 107.716 288.381 107.816 288.006 108.017C287.635 108.213 287.341 108.485 287.124 108.835C286.911 109.18 286.804 109.574 286.804 110.017V116.23H285.296ZM294.522 116.461C293.9 116.461 293.335 116.343 292.828 116.109C292.321 115.87 291.918 115.527 291.62 115.08C291.322 114.628 291.173 114.083 291.173 113.443C291.173 112.881 291.283 112.425 291.505 112.076C291.727 111.722 292.023 111.445 292.394 111.245C292.764 111.044 293.173 110.895 293.621 110.797C294.073 110.695 294.526 110.614 294.982 110.554C295.579 110.478 296.063 110.42 296.433 110.382C296.808 110.339 297.081 110.269 297.251 110.171C297.426 110.073 297.514 109.902 297.514 109.659V109.608C297.514 108.978 297.341 108.488 296.996 108.138C296.655 107.789 296.137 107.614 295.443 107.614C294.722 107.614 294.158 107.772 293.749 108.087C293.34 108.402 293.052 108.739 292.886 109.097L291.454 108.586C291.71 107.989 292.05 107.524 292.477 107.192C292.907 106.855 293.376 106.621 293.883 106.489C294.394 106.353 294.897 106.284 295.391 106.284C295.707 106.284 296.069 106.323 296.478 106.399C296.891 106.472 297.29 106.623 297.673 106.853C298.061 107.083 298.383 107.431 298.639 107.895C298.894 108.36 299.022 108.982 299.022 109.762V116.23H297.514V114.901H297.437C297.335 115.114 297.164 115.342 296.925 115.585C296.687 115.828 296.369 116.034 295.973 116.205C295.577 116.375 295.093 116.461 294.522 116.461ZM294.752 115.105C295.349 115.105 295.852 114.988 296.261 114.754C296.674 114.519 296.985 114.217 297.194 113.846C297.407 113.475 297.514 113.086 297.514 112.676V111.296C297.45 111.372 297.309 111.443 297.092 111.507C296.879 111.566 296.631 111.62 296.35 111.666C296.073 111.709 295.803 111.747 295.538 111.782C295.278 111.811 295.068 111.837 294.906 111.858C294.514 111.909 294.147 111.992 293.806 112.108C293.47 112.218 293.197 112.387 292.988 112.613C292.783 112.834 292.681 113.137 292.681 113.52C292.681 114.044 292.875 114.441 293.263 114.709C293.655 114.973 294.151 115.105 294.752 115.105ZM305.685 106.412V107.691H300.597V106.412H305.685ZM302.08 104.06H303.589V113.418C303.589 113.844 303.651 114.164 303.774 114.377C303.902 114.586 304.064 114.726 304.26 114.799C304.46 114.867 304.671 114.901 304.893 114.901C305.059 114.901 305.195 114.892 305.302 114.875C305.408 114.854 305.494 114.837 305.558 114.824L305.864 116.179C305.762 116.218 305.619 116.256 305.436 116.294C305.253 116.337 305.021 116.358 304.739 116.358C304.313 116.358 303.896 116.267 303.486 116.083C303.082 115.9 302.745 115.621 302.477 115.246C302.212 114.871 302.08 114.398 302.08 113.827V104.06ZM307.595 116.23V106.412H309.103V116.23H307.595ZM308.362 104.776C308.068 104.776 307.814 104.676 307.601 104.475C307.392 104.275 307.288 104.034 307.288 103.753C307.288 103.472 307.392 103.231 307.601 103.031C307.814 102.831 308.068 102.73 308.362 102.73C308.656 102.73 308.907 102.831 309.116 103.031C309.329 103.231 309.435 103.472 309.435 103.753C309.435 104.034 309.329 104.275 309.116 104.475C308.907 104.676 308.656 104.776 308.362 104.776ZM315.495 116.435C314.608 116.435 313.831 116.224 313.162 115.802C312.497 115.38 311.977 114.79 311.602 114.032C311.231 113.273 311.046 112.387 311.046 111.372C311.046 110.35 311.231 109.457 311.602 108.694C311.977 107.931 312.497 107.339 313.162 106.917C313.831 106.495 314.608 106.284 315.495 106.284C316.381 106.284 317.157 106.495 317.821 106.917C318.49 107.339 319.01 107.931 319.381 108.694C319.756 109.457 319.944 110.35 319.944 111.372C319.944 112.387 319.756 113.273 319.381 114.032C319.01 114.79 318.49 115.38 317.821 115.802C317.157 116.224 316.381 116.435 315.495 116.435ZM315.495 115.08C316.168 115.08 316.722 114.907 317.157 114.562C317.591 114.217 317.913 113.763 318.122 113.201C318.331 112.638 318.435 112.029 318.435 111.372C318.435 110.716 318.331 110.105 318.122 109.538C317.913 108.971 317.591 108.513 317.157 108.164C316.722 107.814 316.168 107.639 315.495 107.639C314.821 107.639 314.267 107.814 313.833 108.164C313.398 108.513 313.076 108.971 312.868 109.538C312.659 110.105 312.554 110.716 312.554 111.372C312.554 112.029 312.659 112.638 312.868 113.201C313.076 113.763 313.398 114.217 313.833 114.562C314.267 114.907 314.821 115.08 315.495 115.08ZM323.395 110.324V116.23H321.886V106.412H323.344V107.946H323.471C323.702 107.448 324.051 107.047 324.52 106.745C324.989 106.438 325.594 106.284 326.335 106.284C327 106.284 327.582 106.421 328.08 106.693C328.579 106.962 328.966 107.371 329.243 107.921C329.52 108.466 329.659 109.157 329.659 109.992V116.23H328.15V110.094C328.15 109.323 327.95 108.722 327.55 108.291C327.149 107.857 326.599 107.639 325.9 107.639C325.419 107.639 324.989 107.744 324.609 107.953C324.234 108.162 323.938 108.466 323.721 108.867C323.503 109.267 323.395 109.753 323.395 110.324ZM341.028 106.412V107.691H335.94V106.412H341.028ZM337.423 104.06H338.931V113.418C338.931 113.844 338.993 114.164 339.117 114.377C339.245 114.586 339.406 114.726 339.602 114.799C339.803 114.867 340.014 114.901 340.235 114.901C340.401 114.901 340.538 114.892 340.644 114.875C340.751 114.854 340.836 114.837 340.9 114.824L341.207 116.179C341.105 116.218 340.962 116.256 340.779 116.294C340.595 116.337 340.363 116.358 340.082 116.358C339.656 116.358 339.238 116.267 338.829 116.083C338.424 115.9 338.088 115.621 337.819 115.246C337.555 114.871 337.423 114.398 337.423 113.827V104.06ZM346.82 116.435C345.934 116.435 345.156 116.224 344.487 115.802C343.822 115.38 343.303 114.79 342.928 114.032C342.557 113.273 342.371 112.387 342.371 111.372C342.371 110.35 342.557 109.457 342.928 108.694C343.303 107.931 343.822 107.339 344.487 106.917C345.156 106.495 345.934 106.284 346.82 106.284C347.707 106.284 348.482 106.495 349.147 106.917C349.816 107.339 350.336 107.931 350.707 108.694C351.082 109.457 351.269 110.35 351.269 111.372C351.269 112.387 351.082 113.273 350.707 114.032C350.336 114.79 349.816 115.38 349.147 115.802C348.482 116.224 347.707 116.435 346.82 116.435ZM346.82 115.08C347.494 115.08 348.048 114.907 348.482 114.562C348.917 114.217 349.239 113.763 349.447 113.201C349.656 112.638 349.761 112.029 349.761 111.372C349.761 110.716 349.656 110.105 349.447 109.538C349.239 108.971 348.917 108.513 348.482 108.164C348.048 107.814 347.494 107.639 346.82 107.639C346.147 107.639 345.593 107.814 345.158 108.164C344.724 108.513 344.402 108.971 344.193 109.538C343.984 110.105 343.88 110.716 343.88 111.372C343.88 112.029 343.984 112.638 344.193 113.201C344.402 113.763 344.724 114.217 345.158 114.562C345.593 114.907 346.147 115.08 346.82 115.08ZM357.2 116.435C356.314 116.435 355.536 116.224 354.867 115.802C354.203 115.38 353.683 114.79 353.308 114.032C352.937 113.273 352.752 112.387 352.752 111.372C352.752 110.35 352.937 109.457 353.308 108.694C353.683 107.931 354.203 107.339 354.867 106.917C355.536 106.495 356.314 106.284 357.2 106.284C358.087 106.284 358.862 106.495 359.527 106.917C360.196 107.339 360.716 107.931 361.087 108.694C361.462 109.457 361.649 110.35 361.649 111.372C361.649 112.387 361.462 113.273 361.087 114.032C360.716 114.79 360.196 115.38 359.527 115.802C358.862 116.224 358.087 116.435 357.2 116.435ZM357.2 115.08C357.874 115.08 358.428 114.907 358.862 114.562C359.297 114.217 359.619 113.763 359.828 113.201C360.036 112.638 360.141 112.029 360.141 111.372C360.141 110.716 360.036 110.105 359.828 109.538C359.619 108.971 359.297 108.513 358.862 108.164C358.428 107.814 357.874 107.639 357.2 107.639C356.527 107.639 355.973 107.814 355.539 108.164C355.104 108.513 354.782 108.971 354.573 109.538C354.365 110.105 354.26 110.716 354.26 111.372C354.26 112.029 354.365 112.638 354.573 113.201C354.782 113.763 355.104 114.217 355.539 114.562C355.973 114.907 356.527 115.08 357.2 115.08ZM365.101 103.139V116.23H363.592V103.139H365.101ZM6.4195 136.412V137.691H1.12688V136.412H6.4195ZM2.71211 146.23V135.057C2.71211 134.495 2.84421 134.026 3.10842 133.651C3.37262 133.276 3.71566 132.995 4.13754 132.807C4.55941 132.62 5.00472 132.526 5.47347 132.526C5.84421 132.526 6.14677 132.556 6.38115 132.615C6.61552 132.675 6.79024 132.73 6.90529 132.782L6.47063 134.086C6.39393 134.06 6.2874 134.028 6.15103 133.99C6.01893 133.951 5.84421 133.932 5.62688 133.932C5.1283 133.932 4.76822 134.058 4.54663 134.309C4.3293 134.561 4.22063 134.929 4.22063 135.415V146.23H2.71211ZM11.758 146.435C10.8716 146.435 10.0939 146.224 9.42491 145.802C8.76014 145.38 8.24025 144.79 7.86525 144.032C7.49451 143.273 7.30914 142.387 7.30914 141.372C7.30914 140.35 7.49451 139.457 7.86525 138.694C8.24025 137.931 8.76014 137.339 9.42491 136.917C10.0939 136.495 10.8716 136.284 11.758 136.284C12.6444 136.284 13.4199 136.495 14.0847 136.917C14.7537 137.339 15.2736 137.931 15.6444 138.694C16.0194 139.457 16.2069 140.35 16.2069 141.372C16.2069 142.387 16.0194 143.273 15.6444 144.032C15.2736 144.79 14.7537 145.38 14.0847 145.802C13.4199 146.224 12.6444 146.435 11.758 146.435ZM11.758 145.08C12.4313 145.08 12.9853 144.907 13.4199 144.562C13.8546 144.217 14.1763 143.763 14.3851 143.201C14.5939 142.638 14.6983 142.029 14.6983 141.372C14.6983 140.716 14.5939 140.105 14.3851 139.538C14.1763 138.971 13.8546 138.513 13.4199 138.164C12.9853 137.814 12.4313 137.639 11.758 137.639C11.0847 137.639 10.5307 137.814 10.0961 138.164C9.66142 138.513 9.33968 138.971 9.13088 139.538C8.92207 140.105 8.81766 140.716 8.81766 141.372C8.81766 142.029 8.92207 142.638 9.13088 143.201C9.33968 143.763 9.66142 144.217 10.0961 144.562C10.5307 144.907 11.0847 145.08 11.758 145.08ZM18.1496 146.23V136.412H19.607V137.895H19.7093C19.8882 137.409 20.2121 137.015 20.6809 136.713C21.1496 136.41 21.678 136.259 22.2661 136.259C22.3769 136.259 22.5154 136.261 22.6816 136.265C22.8478 136.269 22.9735 136.276 23.0587 136.284V137.818C23.0076 137.806 22.8904 137.787 22.7071 137.761C22.5282 137.731 22.3385 137.716 22.1382 137.716C21.661 137.716 21.2348 137.816 20.8598 138.017C20.4891 138.213 20.1951 138.485 19.9777 138.835C19.7647 139.18 19.6581 139.574 19.6581 140.017V146.23H18.1496ZM29.3939 146.23V133.139H30.9024V137.972H31.0303C31.1411 137.801 31.2945 137.584 31.4905 137.32C31.6908 137.051 31.9763 136.813 32.347 136.604C32.722 136.391 33.2291 136.284 33.8683 136.284C34.6951 136.284 35.4237 136.491 36.0544 136.904C36.6851 137.318 37.1773 137.904 37.531 138.662C37.8847 139.421 38.0615 140.316 38.0615 141.347C38.0615 142.387 37.8847 143.288 37.531 144.051C37.1773 144.809 36.6872 145.397 36.0608 145.815C35.4344 146.228 34.7121 146.435 33.8939 146.435C33.2632 146.435 32.7583 146.331 32.379 146.122C31.9997 145.909 31.7078 145.668 31.5033 145.399C31.2987 145.127 31.1411 144.901 31.0303 144.722H30.8513V146.23H29.3939ZM30.8769 141.321C30.8769 142.063 30.9855 142.717 31.2029 143.284C31.4202 143.846 31.7377 144.287 32.1553 144.607C32.5729 144.922 33.0843 145.08 33.6894 145.08C34.3201 145.08 34.8463 144.914 35.2682 144.581C35.6943 144.245 36.0139 143.793 36.227 143.226C36.4443 142.655 36.553 142.02 36.553 141.321C36.553 140.631 36.4465 140.009 36.2334 139.455C36.0246 138.897 35.7071 138.456 35.281 138.132C34.8591 137.804 34.3286 137.639 33.6894 137.639C33.0757 137.639 32.5601 137.795 32.1425 138.106C31.7249 138.413 31.4095 138.843 31.1965 139.397C30.9834 139.947 30.8769 140.588 30.8769 141.321ZM46.1966 142.216V136.412H47.7051V146.23H46.1966V144.568H46.0943C45.8642 145.067 45.5062 145.491 45.0204 145.84C44.5346 146.186 43.921 146.358 43.1795 146.358C42.5659 146.358 42.0204 146.224 41.5431 145.956C41.0659 145.683 40.6909 145.274 40.4181 144.728C40.1454 144.179 40.0091 143.486 40.0091 142.651V136.412H41.5176V142.549C41.5176 143.264 41.7179 143.836 42.1184 144.262C42.5233 144.688 43.0389 144.901 43.6653 144.901C44.0403 144.901 44.4217 144.805 44.8095 144.613C45.2015 144.421 45.5297 144.127 45.7939 143.731C46.0623 143.335 46.1966 142.83 46.1966 142.216ZM57.0626 138.611L55.7075 138.995C55.6222 138.769 55.4965 138.549 55.3303 138.336C55.1684 138.119 54.9468 137.94 54.6656 137.799C54.3843 137.659 54.0242 137.588 53.5853 137.588C52.9845 137.588 52.4838 137.727 52.0832 138.004C51.6869 138.277 51.4887 138.624 51.4887 139.046C51.4887 139.421 51.6251 139.717 51.8978 139.934C52.1705 140.152 52.5967 140.333 53.1762 140.478L54.6336 140.836C55.5115 141.049 56.1656 141.375 56.596 141.814C57.0264 142.248 57.2416 142.809 57.2416 143.495C57.2416 144.057 57.0796 144.56 56.7558 145.003C56.4362 145.446 55.9887 145.796 55.4134 146.051C54.8382 146.307 54.1691 146.435 53.4063 146.435C52.4049 146.435 51.5761 146.218 50.9198 145.783C50.2636 145.348 49.8481 144.713 49.6734 143.878L51.1052 143.52C51.2416 144.049 51.4994 144.445 51.8786 144.709C52.2622 144.973 52.7629 145.105 53.3808 145.105C54.0839 145.105 54.6421 144.956 55.0555 144.658C55.4731 144.355 55.6819 143.993 55.6819 143.571C55.6819 143.23 55.5626 142.945 55.324 142.715C55.0853 142.48 54.7188 142.306 54.2245 142.191L52.5882 141.807C51.689 141.594 51.0285 141.264 50.6066 140.816C50.189 140.365 49.9802 139.8 49.9802 139.122C49.9802 138.568 50.1357 138.078 50.4468 137.652C50.7622 137.226 51.1904 136.892 51.7316 136.649C52.2771 136.406 52.895 136.284 53.5853 136.284C54.5569 136.284 55.3197 136.497 55.8737 136.924C56.4319 137.35 56.8282 137.912 57.0626 138.611ZM59.1523 146.23V136.412H60.6609V146.23H59.1523ZM59.9194 134.776C59.6253 134.776 59.3718 134.676 59.1587 134.475C58.9499 134.275 58.8455 134.034 58.8455 133.753C58.8455 133.472 58.9499 133.231 59.1587 133.031C59.3718 132.831 59.6253 132.73 59.9194 132.73C60.2134 132.73 60.4648 132.831 60.6736 133.031C60.8867 133.231 60.9932 133.472 60.9932 133.753C60.9932 134.034 60.8867 134.275 60.6736 134.475C60.4648 134.676 60.2134 134.776 59.9194 134.776ZM64.5723 140.324V146.23H63.0638V136.412H64.5212V137.946H64.649C64.8792 137.448 65.2286 137.047 65.6973 136.745C66.1661 136.438 66.7712 136.284 67.5127 136.284C68.1775 136.284 68.7591 136.421 69.2577 136.693C69.7563 136.962 70.1441 137.371 70.4211 137.921C70.6981 138.466 70.8365 139.157 70.8365 139.992V146.23H69.328V140.094C69.328 139.323 69.1277 138.722 68.7272 138.291C68.3266 137.857 67.7769 137.639 67.078 137.639C66.5965 137.639 66.1661 137.744 65.7868 137.953C65.4118 138.162 65.1157 138.466 64.8983 138.867C64.681 139.267 64.5723 139.753 64.5723 140.324ZM77.3496 146.435C76.4036 146.435 75.5875 146.226 74.9014 145.809C74.2196 145.387 73.6933 144.799 73.3226 144.044C72.9561 143.286 72.7729 142.404 72.7729 141.398C72.7729 140.392 72.9561 139.506 73.3226 138.739C73.6933 137.968 74.209 137.367 74.8695 136.936C75.5343 136.502 76.3098 136.284 77.1962 136.284C77.7076 136.284 78.2125 136.37 78.7111 136.54C79.2097 136.711 79.6635 136.988 80.0726 137.371C80.4817 137.75 80.8077 138.253 81.0506 138.88C81.2935 139.506 81.4149 140.277 81.4149 141.193V141.833H73.8468V140.529H79.8808C79.8808 139.975 79.7701 139.48 79.5485 139.046C79.3311 138.611 79.0201 138.268 78.6152 138.017C78.2147 137.765 77.7416 137.639 77.1962 137.639C76.5953 137.639 76.0755 137.789 75.6365 138.087C75.2019 138.381 74.8674 138.764 74.633 139.238C74.3986 139.711 74.2814 140.218 74.2814 140.759V141.628C74.2814 142.37 74.4093 142.998 74.6649 143.514C74.9249 144.025 75.285 144.415 75.7452 144.684C76.2054 144.948 76.7402 145.08 77.3496 145.08C77.7459 145.08 78.1039 145.024 78.4235 144.914C78.7473 144.799 79.0264 144.628 79.2608 144.402C79.4952 144.172 79.6763 143.887 79.8041 143.546L81.2615 143.955C81.1081 144.449 80.8503 144.884 80.4881 145.259C80.1259 145.63 79.6784 145.919 79.1458 146.128C78.6131 146.333 78.0144 146.435 77.3496 146.435ZM90.3042 138.611L88.9491 138.995C88.8639 138.769 88.7382 138.549 88.572 138.336C88.4101 138.119 88.1885 137.94 87.9072 137.799C87.626 137.659 87.2659 137.588 86.827 137.588C86.2261 137.588 85.7254 137.727 85.3248 138.004C84.9285 138.277 84.7304 138.624 84.7304 139.046C84.7304 139.421 84.8667 139.717 85.1395 139.934C85.4122 140.152 85.8383 140.333 86.4179 140.478L87.8753 140.836C88.7531 141.049 89.4072 141.375 89.8376 141.814C90.268 142.248 90.4832 142.809 90.4832 143.495C90.4832 144.057 90.3213 144.56 89.9974 145.003C89.6778 145.446 89.2304 145.796 88.6551 146.051C88.0798 146.307 87.4108 146.435 86.648 146.435C85.6466 146.435 84.8177 146.218 84.1615 145.783C83.5052 145.348 83.0897 144.713 82.915 143.878L84.3468 143.52C84.4832 144.049 84.741 144.445 85.1203 144.709C85.5038 144.973 86.0045 145.105 86.6224 145.105C87.3255 145.105 87.8838 144.956 88.2971 144.658C88.7147 144.355 88.9235 143.993 88.9235 143.571C88.9235 143.23 88.8042 142.945 88.5656 142.715C88.327 142.48 87.9605 142.306 87.4662 142.191L85.8298 141.807C84.9306 141.594 84.2701 141.264 83.8483 140.816C83.4306 140.365 83.2218 139.8 83.2218 139.122C83.2218 138.568 83.3774 138.078 83.6885 137.652C84.0038 137.226 84.4321 136.892 84.9733 136.649C85.5187 136.406 86.1366 136.284 86.827 136.284C87.7985 136.284 88.5613 136.497 89.1153 136.924C89.6735 137.35 90.0699 137.912 90.3042 138.611ZM99.3485 138.611L97.9934 138.995C97.9082 138.769 97.7825 138.549 97.6163 138.336C97.4543 138.119 97.2328 137.94 96.9515 137.799C96.6703 137.659 96.3102 137.588 95.8713 137.588C95.2704 137.588 94.7697 137.727 94.3691 138.004C93.9728 138.277 93.7747 138.624 93.7747 139.046C93.7747 139.421 93.911 139.717 94.1838 139.934C94.4565 140.152 94.8826 140.333 95.4622 140.478L96.9195 140.836C97.7974 141.049 98.4515 141.375 98.8819 141.814C99.3123 142.248 99.5275 142.809 99.5275 143.495C99.5275 144.057 99.3656 144.56 99.0417 145.003C98.7221 145.446 98.2747 145.796 97.6994 146.051C97.1241 146.307 96.4551 146.435 95.6923 146.435C94.6909 146.435 93.862 146.218 93.2058 145.783C92.5495 145.348 92.134 144.713 91.9593 143.878L93.3911 143.52C93.5275 144.049 93.7853 144.445 94.1646 144.709C94.5481 144.973 95.0488 145.105 95.6667 145.105C96.3698 145.105 96.9281 144.956 97.3414 144.658C97.759 144.355 97.9678 143.993 97.9678 143.571C97.9678 143.23 97.8485 142.945 97.6099 142.715C97.3713 142.48 97.0048 142.306 96.5105 142.191L94.8741 141.807C93.9749 141.594 93.3144 141.264 92.8926 140.816C92.4749 140.365 92.2661 139.8 92.2661 139.122C92.2661 138.568 92.4217 138.078 92.7328 137.652C93.0481 137.226 93.4764 136.892 94.0176 136.649C94.563 136.406 95.1809 136.284 95.8713 136.284C96.8428 136.284 97.6056 136.497 98.1596 136.924C98.7178 137.35 99.1142 137.912 99.3485 138.611ZM105.555 146.435C104.609 146.435 103.793 146.226 103.107 145.809C102.425 145.387 101.899 144.799 101.528 144.044C101.161 143.286 100.978 142.404 100.978 141.398C100.978 140.392 101.161 139.506 101.528 138.739C101.899 137.968 102.414 137.367 103.075 136.936C103.739 136.502 104.515 136.284 105.401 136.284C105.913 136.284 106.418 136.37 106.916 136.54C107.415 136.711 107.869 136.988 108.278 137.371C108.687 137.75 109.013 138.253 109.256 138.88C109.499 139.506 109.62 140.277 109.62 141.193V141.833H102.052V140.529H108.086C108.086 139.975 107.975 139.48 107.754 139.046C107.536 138.611 107.225 138.268 106.82 138.017C106.42 137.765 105.947 137.639 105.401 137.639C104.8 137.639 104.281 137.789 103.842 138.087C103.407 138.381 103.073 138.764 102.838 139.238C102.604 139.711 102.487 140.218 102.487 140.759V141.628C102.487 142.37 102.614 142.998 102.87 143.514C103.13 144.025 103.49 144.415 103.95 144.684C104.411 144.948 104.945 145.08 105.555 145.08C105.951 145.08 106.309 145.024 106.629 144.914C106.952 144.799 107.232 144.628 107.466 144.402C107.7 144.172 107.881 143.887 108.009 143.546L109.467 143.955C109.313 144.449 109.055 144.884 108.693 145.259C108.331 145.63 107.884 145.919 107.351 146.128C106.818 146.333 106.22 146.435 105.555 146.435ZM118.509 138.611L117.154 138.995C117.069 138.769 116.943 138.549 116.777 138.336C116.615 138.119 116.394 137.94 116.112 137.799C115.831 137.659 115.471 137.588 115.032 137.588C114.431 137.588 113.931 137.727 113.53 138.004C113.134 138.277 112.936 138.624 112.936 139.046C112.936 139.421 113.072 139.717 113.345 139.934C113.617 140.152 114.043 140.333 114.623 140.478L116.08 140.836C116.958 141.049 117.612 141.375 118.043 141.814C118.473 142.248 118.688 142.809 118.688 143.495C118.688 144.057 118.526 144.56 118.203 145.003C117.883 145.446 117.436 145.796 116.86 146.051C116.285 146.307 115.616 146.435 114.853 146.435C113.852 146.435 113.023 146.218 112.367 145.783C111.71 145.348 111.295 144.713 111.12 143.878L112.552 143.52C112.688 144.049 112.946 144.445 113.325 144.709C113.709 144.973 114.21 145.105 114.828 145.105C115.531 145.105 116.089 144.956 116.502 144.658C116.92 144.355 117.129 143.993 117.129 143.571C117.129 143.23 117.009 142.945 116.771 142.715C116.532 142.48 116.166 142.306 115.671 142.191L114.035 141.807C113.136 141.594 112.475 141.264 112.053 140.816C111.636 140.365 111.427 139.8 111.427 139.122C111.427 138.568 111.583 138.078 111.894 137.652C112.209 137.226 112.637 136.892 113.178 136.649C113.724 136.406 114.342 136.284 115.032 136.284C116.004 136.284 116.766 136.497 117.32 136.924C117.879 137.35 118.275 137.912 118.509 138.611ZM129.572 136.412V137.691H124.483V136.412H129.572ZM125.966 134.06H127.475V143.418C127.475 143.844 127.537 144.164 127.66 144.377C127.788 144.586 127.95 144.726 128.146 144.799C128.346 144.867 128.557 144.901 128.779 144.901C128.945 144.901 129.081 144.892 129.188 144.875C129.295 144.854 129.38 144.837 129.444 144.824L129.75 146.179C129.648 146.218 129.505 146.256 129.322 146.294C129.139 146.337 128.907 146.358 128.625 146.358C128.199 146.358 127.782 146.267 127.373 146.083C126.968 145.9 126.631 145.621 126.363 145.246C126.099 144.871 125.966 144.398 125.966 143.827V134.06ZM133.2 140.324V146.23H131.692V133.139H133.2V137.946H133.328C133.558 137.439 133.903 137.037 134.364 136.738C134.828 136.436 135.446 136.284 136.217 136.284C136.886 136.284 137.472 136.419 137.975 136.687C138.478 136.951 138.868 137.358 139.145 137.908C139.426 138.453 139.567 139.148 139.567 139.992V146.23H138.058V140.094C138.058 139.314 137.856 138.711 137.451 138.285C137.05 137.855 136.494 137.639 135.783 137.639C135.288 137.639 134.845 137.744 134.453 137.953C134.065 138.162 133.758 138.466 133.533 138.867C133.311 139.267 133.2 139.753 133.2 140.324ZM144.856 146.461C144.233 146.461 143.669 146.343 143.162 146.109C142.655 145.87 142.252 145.527 141.954 145.08C141.655 144.628 141.506 144.083 141.506 143.443C141.506 142.881 141.617 142.425 141.839 142.076C142.06 141.722 142.356 141.445 142.727 141.245C143.098 141.044 143.507 140.895 143.954 140.797C144.406 140.695 144.86 140.614 145.316 140.554C145.912 140.478 146.396 140.42 146.767 140.382C147.142 140.339 147.415 140.269 147.585 140.171C147.76 140.073 147.847 139.902 147.847 139.659V139.608C147.847 138.978 147.675 138.488 147.329 138.138C146.988 137.789 146.471 137.614 145.776 137.614C145.056 137.614 144.491 137.772 144.082 138.087C143.673 138.402 143.385 138.739 143.219 139.097L141.787 138.586C142.043 137.989 142.384 137.524 142.81 137.192C143.241 136.855 143.709 136.621 144.216 136.489C144.728 136.353 145.231 136.284 145.725 136.284C146.04 136.284 146.402 136.323 146.812 136.399C147.225 136.472 147.623 136.623 148.007 136.853C148.395 137.083 148.716 137.431 148.972 137.895C149.228 138.36 149.356 138.982 149.356 139.762V146.23H147.847V144.901H147.77C147.668 145.114 147.498 145.342 147.259 145.585C147.02 145.828 146.703 146.034 146.307 146.205C145.91 146.375 145.427 146.461 144.856 146.461ZM145.086 145.105C145.682 145.105 146.185 144.988 146.594 144.754C147.008 144.519 147.319 144.217 147.527 143.846C147.741 143.475 147.847 143.086 147.847 142.676V141.296C147.783 141.372 147.643 141.443 147.425 141.507C147.212 141.566 146.965 141.62 146.684 141.666C146.407 141.709 146.136 141.747 145.872 141.782C145.612 141.811 145.401 141.837 145.239 141.858C144.847 141.909 144.481 141.992 144.14 142.108C143.803 142.218 143.53 142.387 143.322 142.613C143.117 142.834 143.015 143.137 143.015 143.52C143.015 144.044 143.209 144.441 143.596 144.709C143.988 144.973 144.485 145.105 145.086 145.105ZM156.019 136.412V137.691H150.931V136.412H156.019ZM152.414 134.06H153.922V143.418C153.922 143.844 153.984 144.164 154.108 144.377C154.235 144.586 154.397 144.726 154.593 144.799C154.794 144.867 155.005 144.901 155.226 144.901C155.392 144.901 155.529 144.892 155.635 144.875C155.742 144.854 155.827 144.837 155.891 144.824L156.198 146.179C156.096 146.218 155.953 146.256 155.77 146.294C155.586 146.337 155.354 146.358 155.073 146.358C154.647 146.358 154.229 146.267 153.82 146.083C153.415 145.9 153.079 145.621 152.81 145.246C152.546 144.871 152.414 144.398 152.414 143.827V134.06ZM162.631 146.23V136.412H164.139V146.23H162.631ZM163.398 134.776C163.104 134.776 162.85 134.676 162.637 134.475C162.428 134.275 162.324 134.034 162.324 133.753C162.324 133.472 162.428 133.231 162.637 133.031C162.85 132.831 163.104 132.73 163.398 132.73C163.692 132.73 163.943 132.831 164.152 133.031C164.365 133.231 164.471 133.472 164.471 133.753C164.471 134.034 164.365 134.275 164.152 134.475C163.943 134.676 163.692 134.776 163.398 134.776ZM173.497 138.611L172.141 138.995C172.056 138.769 171.931 138.549 171.764 138.336C171.602 138.119 171.381 137.94 171.1 137.799C170.818 137.659 170.458 137.588 170.019 137.588C169.418 137.588 168.918 137.727 168.517 138.004C168.121 138.277 167.923 138.624 167.923 139.046C167.923 139.421 168.059 139.717 168.332 139.934C168.605 140.152 169.031 140.333 169.61 140.478L171.068 140.836C171.945 141.049 172.6 141.375 173.03 141.814C173.46 142.248 173.676 142.809 173.676 143.495C173.676 144.057 173.514 144.56 173.19 145.003C172.87 145.446 172.423 145.796 171.847 146.051C171.272 146.307 170.603 146.435 169.84 146.435C168.839 146.435 168.01 146.218 167.354 145.783C166.698 145.348 166.282 144.713 166.107 143.878L167.539 143.52C167.676 144.049 167.933 144.445 168.313 144.709C168.696 144.973 169.197 145.105 169.815 145.105C170.518 145.105 171.076 144.956 171.489 144.658C171.907 144.355 172.116 143.993 172.116 143.571C172.116 143.23 171.997 142.945 171.758 142.715C171.519 142.48 171.153 142.306 170.659 142.191L169.022 141.807C168.123 141.594 167.462 141.264 167.041 140.816C166.623 140.365 166.414 139.8 166.414 139.122C166.414 138.568 166.57 138.078 166.881 137.652C167.196 137.226 167.624 136.892 168.166 136.649C168.711 136.406 169.329 136.284 170.019 136.284C170.991 136.284 171.754 136.497 172.308 136.924C172.866 137.35 173.262 137.912 173.497 138.611ZM183.178 146.461C182.556 146.461 181.991 146.343 181.484 146.109C180.977 145.87 180.574 145.527 180.276 145.08C179.978 144.628 179.829 144.083 179.829 143.443C179.829 142.881 179.939 142.425 180.161 142.076C180.383 141.722 180.679 141.445 181.049 141.245C181.42 141.044 181.829 140.895 182.277 140.797C182.728 140.695 183.182 140.614 183.638 140.554C184.235 140.478 184.719 140.42 185.089 140.382C185.464 140.339 185.737 140.269 185.907 140.171C186.082 140.073 186.17 139.902 186.17 139.659V139.608C186.17 138.978 185.997 138.488 185.652 138.138C185.311 137.789 184.793 137.614 184.098 137.614C183.378 137.614 182.814 137.772 182.405 138.087C181.996 138.402 181.708 138.739 181.542 139.097L180.11 138.586C180.366 137.989 180.706 137.524 181.133 137.192C181.563 136.855 182.032 136.621 182.539 136.489C183.05 136.353 183.553 136.284 184.047 136.284C184.363 136.284 184.725 136.323 185.134 136.399C185.547 136.472 185.946 136.623 186.329 136.853C186.717 137.083 187.039 137.431 187.295 137.895C187.55 138.36 187.678 138.982 187.678 139.762V146.23H186.17V144.901H186.093C185.991 145.114 185.82 145.342 185.581 145.585C185.343 145.828 185.025 146.034 184.629 146.205C184.233 146.375 183.749 146.461 183.178 146.461ZM183.408 145.105C184.005 145.105 184.508 144.988 184.917 144.754C185.33 144.519 185.641 144.217 185.85 143.846C186.063 143.475 186.17 143.086 186.17 142.676V141.296C186.106 141.372 185.965 141.443 185.748 141.507C185.535 141.566 185.287 141.62 185.006 141.666C184.729 141.709 184.459 141.747 184.194 141.782C183.934 141.811 183.723 141.837 183.562 141.858C183.17 141.909 182.803 141.992 182.462 142.108C182.125 142.218 181.853 142.387 181.644 142.613C181.439 142.834 181.337 143.137 181.337 143.52C181.337 144.044 181.531 144.441 181.919 144.709C182.311 144.973 182.807 145.105 183.408 145.105ZM199.146 136.412V137.691H193.853V136.412H199.146ZM195.439 146.23V135.057C195.439 134.495 195.571 134.026 195.835 133.651C196.099 133.276 196.442 132.995 196.864 132.807C197.286 132.62 197.731 132.526 198.2 132.526C198.571 132.526 198.873 132.556 199.108 132.615C199.342 132.675 199.517 132.73 199.632 132.782L199.197 134.086C199.12 134.06 199.014 134.028 198.878 133.99C198.745 133.951 198.571 133.932 198.353 133.932C197.855 133.932 197.495 134.058 197.273 134.309C197.056 134.561 196.947 134.929 196.947 135.415V146.23H195.439ZM207.088 142.216V136.412H208.596V146.23H207.088V144.568H206.985C206.755 145.067 206.397 145.491 205.912 145.84C205.426 146.186 204.812 146.358 204.071 146.358C203.457 146.358 202.912 146.224 202.434 145.956C201.957 145.683 201.582 145.274 201.309 144.728C201.037 144.179 200.9 143.486 200.9 142.651V136.412H202.409V142.549C202.409 143.264 202.609 143.836 203.01 144.262C203.414 144.688 203.93 144.901 204.556 144.901C204.931 144.901 205.313 144.805 205.701 144.613C206.093 144.421 206.421 144.127 206.685 143.731C206.953 143.335 207.088 142.83 207.088 142.216ZM212.508 133.139V146.23H210.999V133.139H212.508ZM216.419 133.139V146.23H214.911V133.139H216.419ZM223.525 149.912V136.412H224.982V137.972H225.161C225.272 137.801 225.425 137.584 225.621 137.32C225.822 137.051 226.107 136.813 226.478 136.604C226.853 136.391 227.36 136.284 227.999 136.284C228.826 136.284 229.555 136.491 230.185 136.904C230.816 137.318 231.308 137.904 231.662 138.662C232.015 139.421 232.192 140.316 232.192 141.347C232.192 142.387 232.015 143.288 231.662 144.051C231.308 144.809 230.818 145.397 230.192 145.815C229.565 146.228 228.843 146.435 228.025 146.435C227.394 146.435 226.889 146.331 226.51 146.122C226.131 145.909 225.839 145.668 225.634 145.399C225.43 145.127 225.272 144.901 225.161 144.722H225.033V149.912H223.525ZM225.008 141.321C225.008 142.063 225.116 142.717 225.334 143.284C225.551 143.846 225.868 144.287 226.286 144.607C226.704 144.922 227.215 145.08 227.82 145.08C228.451 145.08 228.977 144.914 229.399 144.581C229.825 144.245 230.145 143.793 230.358 143.226C230.575 142.655 230.684 142.02 230.684 141.321C230.684 140.631 230.577 140.009 230.364 139.455C230.155 138.897 229.838 138.456 229.412 138.132C228.99 137.804 228.459 137.639 227.82 137.639C227.206 137.639 226.691 137.795 226.273 138.106C225.856 138.413 225.54 138.843 225.327 139.397C225.114 139.947 225.008 140.588 225.008 141.321ZM234.133 146.23V136.412H235.591V137.895H235.693C235.872 137.409 236.196 137.015 236.665 136.713C237.133 136.41 237.662 136.259 238.25 136.259C238.361 136.259 238.499 136.261 238.665 136.265C238.832 136.269 238.957 136.276 239.043 136.284V137.818C238.991 137.806 238.874 137.787 238.691 137.761C238.512 137.731 238.322 137.716 238.122 137.716C237.645 137.716 237.219 137.816 236.844 138.017C236.473 138.213 236.179 138.485 235.962 138.835C235.748 139.18 235.642 139.574 235.642 140.017V146.23H234.133ZM244.161 146.435C243.274 146.435 242.496 146.224 241.827 145.802C241.163 145.38 240.643 144.79 240.268 144.032C239.897 143.273 239.712 142.387 239.712 141.372C239.712 140.35 239.897 139.457 240.268 138.694C240.643 137.931 241.163 137.339 241.827 136.917C242.496 136.495 243.274 136.284 244.161 136.284C245.047 136.284 245.822 136.495 246.487 136.917C247.156 137.339 247.676 137.931 248.047 138.694C248.422 139.457 248.609 140.35 248.609 141.372C248.609 142.387 248.422 143.273 248.047 144.032C247.676 144.79 247.156 145.38 246.487 145.802C245.822 146.224 245.047 146.435 244.161 146.435ZM244.161 145.08C244.834 145.08 245.388 144.907 245.822 144.562C246.257 144.217 246.579 143.763 246.788 143.201C246.996 142.638 247.101 142.029 247.101 141.372C247.101 140.716 246.996 140.105 246.788 139.538C246.579 138.971 246.257 138.513 245.822 138.164C245.388 137.814 244.834 137.639 244.161 137.639C243.487 137.639 242.933 137.814 242.499 138.164C242.064 138.513 241.742 138.971 241.533 139.538C241.325 140.105 241.22 140.716 241.22 141.372C241.22 142.029 241.325 142.638 241.533 143.201C241.742 143.763 242.064 144.217 242.499 144.562C242.933 144.907 243.487 145.08 244.161 145.08ZM250.552 136.412H252.061V146.946C252.061 147.551 251.956 148.076 251.747 148.519C251.543 148.962 251.232 149.305 250.814 149.548C250.401 149.791 249.879 149.912 249.248 149.912C249.197 149.912 249.146 149.912 249.095 149.912C249.044 149.912 248.992 149.912 248.941 149.912V148.506C248.992 148.506 249.039 148.506 249.082 148.506C249.125 148.506 249.171 148.506 249.223 148.506C249.683 148.506 250.019 148.37 250.232 148.097C250.446 147.828 250.552 147.445 250.552 146.946V136.412ZM251.294 134.776C251 134.776 250.746 134.676 250.533 134.475C250.324 134.275 250.22 134.034 250.22 133.753C250.22 133.472 250.324 133.231 250.533 133.031C250.746 132.831 251 132.73 251.294 132.73C251.588 132.73 251.839 132.831 252.048 133.031C252.261 133.231 252.367 133.472 252.367 133.753C252.367 134.034 252.261 134.275 252.048 134.475C251.839 134.676 251.588 134.776 251.294 134.776ZM258.58 146.435C257.634 146.435 256.818 146.226 256.132 145.809C255.45 145.387 254.924 144.799 254.553 144.044C254.187 143.286 254.003 142.404 254.003 141.398C254.003 140.392 254.187 139.506 254.553 138.739C254.924 137.968 255.439 137.367 256.1 136.936C256.765 136.502 257.54 136.284 258.427 136.284C258.938 136.284 259.443 136.37 259.942 136.54C260.44 136.711 260.894 136.988 261.303 137.371C261.712 137.75 262.038 138.253 262.281 138.88C262.524 139.506 262.645 140.277 262.645 141.193V141.833H255.077V140.529H261.111C261.111 139.975 261.001 139.48 260.779 139.046C260.562 138.611 260.251 138.268 259.846 138.017C259.445 137.765 258.972 137.639 258.427 137.639C257.826 137.639 257.306 137.789 256.867 138.087C256.432 138.381 256.098 138.764 255.863 139.238C255.629 139.711 255.512 140.218 255.512 140.759V141.628C255.512 142.37 255.64 142.998 255.895 143.514C256.155 144.025 256.515 144.415 256.976 144.684C257.436 144.948 257.971 145.08 258.58 145.08C258.976 145.08 259.334 145.024 259.654 144.914C259.978 144.799 260.257 144.628 260.491 144.402C260.726 144.172 260.907 143.887 261.035 143.546L262.492 143.955C262.339 144.449 262.081 144.884 261.719 145.259C261.356 145.63 260.909 145.919 260.376 146.128C259.844 146.333 259.245 146.435 258.58 146.435ZM268.569 146.435C267.648 146.435 266.856 146.218 266.191 145.783C265.526 145.348 265.015 144.75 264.657 143.987C264.299 143.224 264.12 142.353 264.12 141.372C264.12 140.375 264.303 139.495 264.67 138.733C265.04 137.965 265.556 137.367 266.217 136.936C266.881 136.502 267.657 136.284 268.543 136.284C269.234 136.284 269.856 136.412 270.41 136.668C270.964 136.924 271.418 137.282 271.771 137.742C272.125 138.202 272.344 138.739 272.43 139.353H270.921C270.806 138.905 270.55 138.509 270.154 138.164C269.762 137.814 269.234 137.639 268.569 137.639C267.981 137.639 267.465 137.793 267.022 138.1C266.583 138.402 266.24 138.831 265.993 139.385C265.75 139.934 265.628 140.58 265.628 141.321C265.628 142.08 265.748 142.74 265.986 143.303C266.229 143.865 266.57 144.302 267.009 144.613C267.452 144.924 267.972 145.08 268.569 145.08C268.961 145.08 269.317 145.012 269.636 144.875C269.956 144.739 270.226 144.543 270.448 144.287C270.67 144.032 270.827 143.725 270.921 143.367H272.43C272.344 143.946 272.133 144.468 271.797 144.933C271.464 145.393 271.023 145.76 270.474 146.032C269.928 146.301 269.293 146.435 268.569 146.435ZM278.545 136.412V137.691H273.457V136.412H278.545ZM274.94 134.06H276.448V143.418C276.448 143.844 276.51 144.164 276.634 144.377C276.761 144.586 276.923 144.726 277.119 144.799C277.32 144.867 277.531 144.901 277.752 144.901C277.918 144.901 278.055 144.892 278.161 144.875C278.268 144.854 278.353 144.837 278.417 144.824L278.724 146.179C278.621 146.218 278.479 146.256 278.295 146.294C278.112 146.337 277.88 146.358 277.599 146.358C277.173 146.358 276.755 146.267 276.346 146.083C275.941 145.9 275.604 145.621 275.336 145.246C275.072 144.871 274.94 144.398 274.94 143.827V134.06ZM285.156 146.23V136.412H286.614V137.946H286.742C286.946 137.422 287.276 137.015 287.732 136.725C288.188 136.431 288.736 136.284 289.375 136.284C290.023 136.284 290.562 136.431 290.992 136.725C291.427 137.015 291.766 137.422 292.009 137.946H292.111C292.362 137.439 292.74 137.037 293.242 136.738C293.745 136.436 294.348 136.284 295.051 136.284C295.929 136.284 296.647 136.559 297.205 137.109C297.764 137.654 298.043 138.505 298.043 139.659V146.23H296.534V139.659C296.534 138.935 296.336 138.417 295.94 138.106C295.543 137.795 295.077 137.639 294.54 137.639C293.85 137.639 293.315 137.848 292.936 138.266C292.556 138.679 292.367 139.203 292.367 139.838V146.23H290.833V139.506C290.833 138.948 290.651 138.498 290.289 138.157C289.927 137.812 289.46 137.639 288.889 137.639C288.497 137.639 288.131 137.744 287.79 137.953C287.453 138.162 287.181 138.451 286.972 138.822C286.767 139.189 286.665 139.613 286.665 140.094V146.23H285.156ZM303.33 146.461C302.708 146.461 302.143 146.343 301.636 146.109C301.129 145.87 300.726 145.527 300.428 145.08C300.13 144.628 299.981 144.083 299.981 143.443C299.981 142.881 300.091 142.425 300.313 142.076C300.535 141.722 300.831 141.445 301.202 141.245C301.572 141.044 301.981 140.895 302.429 140.797C302.881 140.695 303.334 140.614 303.79 140.554C304.387 140.478 304.871 140.42 305.241 140.382C305.616 140.339 305.889 140.269 306.06 140.171C306.234 140.073 306.322 139.902 306.322 139.659V139.608C306.322 138.978 306.149 138.488 305.804 138.138C305.463 137.789 304.945 137.614 304.251 137.614C303.53 137.614 302.966 137.772 302.557 138.087C302.148 138.402 301.86 138.739 301.694 139.097L300.262 138.586C300.518 137.989 300.859 137.524 301.285 137.192C301.715 136.855 302.184 136.621 302.691 136.489C303.202 136.353 303.705 136.284 304.199 136.284C304.515 136.284 304.877 136.323 305.286 136.399C305.699 136.472 306.098 136.623 306.481 136.853C306.869 137.083 307.191 137.431 307.447 137.895C307.702 138.36 307.83 138.982 307.83 139.762V146.23H306.322V144.901H306.245C306.143 145.114 305.972 145.342 305.734 145.585C305.495 145.828 305.177 146.034 304.781 146.205C304.385 146.375 303.901 146.461 303.33 146.461ZM303.56 145.105C304.157 145.105 304.66 144.988 305.069 144.754C305.482 144.519 305.793 144.217 306.002 143.846C306.215 143.475 306.322 143.086 306.322 142.676V141.296C306.258 141.372 306.117 141.443 305.9 141.507C305.687 141.566 305.44 141.62 305.158 141.666C304.881 141.709 304.611 141.747 304.346 141.782C304.087 141.811 303.876 141.837 303.714 141.858C303.322 141.909 302.955 141.992 302.614 142.108C302.278 142.218 302.005 142.387 301.796 142.613C301.591 142.834 301.489 143.137 301.489 143.52C301.489 144.044 301.683 144.441 302.071 144.709C302.463 144.973 302.959 145.105 303.56 145.105ZM311.732 140.324V146.23H310.224V136.412H311.681V137.946H311.809C312.039 137.448 312.388 137.047 312.857 136.745C313.326 136.438 313.931 136.284 314.672 136.284C315.337 136.284 315.919 136.421 316.417 136.693C316.916 136.962 317.304 137.371 317.581 137.921C317.858 138.466 317.996 139.157 317.996 139.992V146.23H316.488V140.094C316.488 139.323 316.287 138.722 315.887 138.291C315.486 137.857 314.937 137.639 314.238 137.639C313.756 137.639 313.326 137.744 312.947 137.953C312.572 138.162 312.275 138.466 312.058 138.867C311.841 139.267 311.732 139.753 311.732 140.324ZM323.282 146.461C322.66 146.461 322.095 146.343 321.588 146.109C321.081 145.87 320.678 145.527 320.38 145.08C320.082 144.628 319.933 144.083 319.933 143.443C319.933 142.881 320.043 142.425 320.265 142.076C320.487 141.722 320.783 141.445 321.153 141.245C321.524 141.044 321.933 140.895 322.381 140.797C322.832 140.695 323.286 140.614 323.742 140.554C324.339 140.478 324.822 140.42 325.193 140.382C325.568 140.339 325.841 140.269 326.011 140.171C326.186 140.073 326.273 139.902 326.273 139.659V139.608C326.273 138.978 326.101 138.488 325.756 138.138C325.415 137.789 324.897 137.614 324.202 137.614C323.482 137.614 322.918 137.772 322.509 138.087C322.099 138.402 321.812 138.739 321.646 139.097L320.214 138.586C320.47 137.989 320.81 137.524 321.237 137.192C321.667 136.855 322.136 136.621 322.643 136.489C323.154 136.353 323.657 136.284 324.151 136.284C324.467 136.284 324.829 136.323 325.238 136.399C325.651 136.472 326.05 136.623 326.433 136.853C326.821 137.083 327.143 137.431 327.398 137.895C327.654 138.36 327.782 138.982 327.782 139.762V146.23H326.273V144.901H326.197C326.095 145.114 325.924 145.342 325.685 145.585C325.447 145.828 325.129 146.034 324.733 146.205C324.337 146.375 323.853 146.461 323.282 146.461ZM323.512 145.105C324.109 145.105 324.612 144.988 325.021 144.754C325.434 144.519 325.745 144.217 325.954 143.846C326.167 143.475 326.273 143.086 326.273 142.676V141.296C326.21 141.372 326.069 141.443 325.852 141.507C325.639 141.566 325.391 141.62 325.11 141.666C324.833 141.709 324.563 141.747 324.298 141.782C324.038 141.811 323.827 141.837 323.666 141.858C323.273 141.909 322.907 141.992 322.566 142.108C322.229 142.218 321.957 142.387 321.748 142.613C321.543 142.834 321.441 143.137 321.441 143.52C321.441 144.044 321.635 144.441 322.023 144.709C322.415 144.973 322.911 145.105 323.512 145.105ZM334.138 150.117C333.41 150.117 332.783 150.023 332.259 149.836C331.735 149.652 331.298 149.409 330.949 149.107C330.604 148.809 330.329 148.489 330.124 148.148L331.326 147.304C331.462 147.483 331.635 147.688 331.844 147.918C332.053 148.152 332.338 148.355 332.7 148.525C333.067 148.7 333.546 148.787 334.138 148.787C334.931 148.787 335.585 148.595 336.101 148.212C336.616 147.828 336.874 147.228 336.874 146.409V144.415H336.746C336.636 144.594 336.478 144.816 336.273 145.08C336.073 145.34 335.783 145.572 335.404 145.777C335.029 145.977 334.522 146.077 333.883 146.077C333.09 146.077 332.379 145.889 331.748 145.514C331.121 145.139 330.625 144.594 330.258 143.878C329.896 143.162 329.715 142.293 329.715 141.27C329.715 140.264 329.892 139.389 330.246 138.643C330.599 137.893 331.092 137.314 331.722 136.904C332.353 136.491 333.082 136.284 333.908 136.284C334.548 136.284 335.055 136.391 335.43 136.604C335.809 136.813 336.099 137.051 336.299 137.32C336.504 137.584 336.661 137.801 336.772 137.972H336.925V136.412H338.383V146.512C338.383 147.355 338.191 148.041 337.807 148.57C337.428 149.103 336.917 149.492 336.273 149.74C335.634 149.991 334.923 150.117 334.138 150.117ZM334.087 144.722C334.692 144.722 335.204 144.583 335.621 144.306C336.039 144.029 336.356 143.631 336.574 143.111C336.791 142.591 336.9 141.969 336.9 141.245C336.9 140.537 336.793 139.913 336.58 139.372C336.367 138.831 336.052 138.407 335.634 138.1C335.217 137.793 334.701 137.639 334.087 137.639C333.448 137.639 332.915 137.801 332.489 138.125C332.067 138.449 331.75 138.884 331.537 139.429C331.328 139.975 331.224 140.58 331.224 141.245C331.224 141.926 331.33 142.529 331.543 143.054C331.761 143.573 332.08 143.983 332.502 144.281C332.928 144.575 333.457 144.722 334.087 144.722ZM344.901 146.435C343.955 146.435 343.139 146.226 342.452 145.809C341.771 145.387 341.244 144.799 340.874 144.044C340.507 143.286 340.324 142.404 340.324 141.398C340.324 140.392 340.507 139.506 340.874 138.739C341.244 137.968 341.76 137.367 342.42 136.936C343.085 136.502 343.861 136.284 344.747 136.284C345.259 136.284 345.764 136.37 346.262 136.54C346.761 136.711 347.215 136.988 347.624 137.371C348.033 137.75 348.359 138.253 348.602 138.88C348.844 139.506 348.966 140.277 348.966 141.193V141.833H341.398V140.529H347.432C347.432 139.975 347.321 139.48 347.099 139.046C346.882 138.611 346.571 138.268 346.166 138.017C345.766 137.765 345.293 137.639 344.747 137.639C344.146 137.639 343.626 137.789 343.188 138.087C342.753 138.381 342.418 138.764 342.184 139.238C341.95 139.711 341.832 140.218 341.832 140.759V141.628C341.832 142.37 341.96 142.998 342.216 143.514C342.476 144.025 342.836 144.415 343.296 144.684C343.756 144.948 344.291 145.08 344.901 145.08C345.297 145.08 345.655 145.024 345.974 144.914C346.298 144.799 346.577 144.628 346.812 144.402C347.046 144.172 347.227 143.887 347.355 143.546L348.813 143.955C348.659 144.449 348.401 144.884 348.039 145.259C347.677 145.63 347.229 145.919 346.697 146.128C346.164 146.333 345.565 146.435 344.901 146.435ZM350.901 146.23V136.412H352.358V137.946H352.486C352.69 137.422 353.021 137.015 353.477 136.725C353.933 136.431 354.48 136.284 355.119 136.284C355.767 136.284 356.306 136.431 356.737 136.725C357.171 137.015 357.51 137.422 357.753 137.946H357.855C358.107 137.439 358.484 137.037 358.987 136.738C359.489 136.436 360.092 136.284 360.796 136.284C361.673 136.284 362.391 136.559 362.95 137.109C363.508 137.654 363.787 138.505 363.787 139.659V146.23H362.279V139.659C362.279 138.935 362.08 138.417 361.684 138.106C361.288 137.795 360.821 137.639 360.284 137.639C359.594 137.639 359.059 137.848 358.68 138.266C358.301 138.679 358.111 139.203 358.111 139.838V146.23H356.577V139.506C356.577 138.948 356.396 138.498 356.034 138.157C355.671 137.812 355.205 137.639 354.634 137.639C354.242 137.639 353.875 137.744 353.534 137.953C353.198 138.162 352.925 138.451 352.716 138.822C352.511 139.189 352.409 139.613 352.409 140.094V146.23H350.901ZM370.302 146.435C369.356 146.435 368.54 146.226 367.854 145.809C367.172 145.387 366.645 144.799 366.275 144.044C365.908 143.286 365.725 142.404 365.725 141.398C365.725 140.392 365.908 139.506 366.275 138.739C366.645 137.968 367.161 137.367 367.822 136.936C368.486 136.502 369.262 136.284 370.148 136.284C370.66 136.284 371.165 136.37 371.663 136.54C372.162 136.711 372.616 136.988 373.025 137.371C373.434 137.75 373.76 138.253 374.003 138.88C374.246 139.506 374.367 140.277 374.367 141.193V141.833H366.799V140.529H372.833C372.833 139.975 372.722 139.48 372.501 139.046C372.283 138.611 371.972 138.268 371.567 138.017C371.167 137.765 370.694 137.639 370.148 137.639C369.547 137.639 369.028 137.789 368.589 138.087C368.154 138.381 367.819 138.764 367.585 139.238C367.351 139.711 367.234 140.218 367.234 140.759V141.628C367.234 142.37 367.361 142.998 367.617 143.514C367.877 144.025 368.237 144.415 368.697 144.684C369.158 144.948 369.692 145.08 370.302 145.08C370.698 145.08 371.056 145.024 371.376 144.914C371.699 144.799 371.979 144.628 372.213 144.402C372.447 144.172 372.628 143.887 372.756 143.546L374.214 143.955C374.06 144.449 373.802 144.884 373.44 145.259C373.078 145.63 372.631 145.919 372.098 146.128C371.565 146.333 370.966 146.435 370.302 146.435ZM377.81 140.324V146.23H376.302V136.412H377.759V137.946H377.887C378.117 137.448 378.467 137.047 378.935 136.745C379.404 136.438 380.009 136.284 380.751 136.284C381.415 136.284 381.997 136.421 382.496 136.693C382.994 136.962 383.382 137.371 383.659 137.921C383.936 138.466 384.075 139.157 384.075 139.992V146.23H382.566V140.094C382.566 139.323 382.366 138.722 381.965 138.291C381.565 137.857 381.015 137.639 380.316 137.639C379.834 137.639 379.404 137.744 379.025 137.953C378.65 138.162 378.354 138.466 378.136 138.867C377.919 139.267 377.81 139.753 377.81 140.324ZM390.741 136.412V137.691H385.653V136.412H390.741ZM387.136 134.06H388.644V143.418C388.644 143.844 388.706 144.164 388.83 144.377C388.958 144.586 389.12 144.726 389.316 144.799C389.516 144.867 389.727 144.901 389.948 144.901C390.115 144.901 390.251 144.892 390.357 144.875C390.464 144.854 390.549 144.837 390.613 144.824L390.92 146.179C390.818 146.218 390.675 146.256 390.492 146.294C390.308 146.337 390.076 146.358 389.795 146.358C389.369 146.358 388.951 146.267 388.542 146.083C388.137 145.9 387.801 145.621 387.532 145.246C387.268 144.871 387.136 144.398 387.136 143.827V134.06ZM9.00188 168.611L7.64677 168.995C7.56154 168.769 7.43583 168.549 7.26964 168.336C7.10771 168.119 6.88612 167.94 6.60487 167.799C6.32362 167.659 5.96353 167.588 5.52461 167.588C4.92376 167.588 4.42305 167.727 4.02248 168.004C3.62617 168.277 3.42802 168.624 3.42802 169.046C3.42802 169.421 3.56438 169.717 3.83711 169.934C4.10984 170.152 4.53597 170.333 5.11552 170.478L6.57291 170.836C7.45075 171.049 8.10487 171.375 8.53526 171.814C8.96566 172.248 9.18086 172.809 9.18086 173.495C9.18086 174.057 9.01893 174.56 8.69507 175.003C8.37546 175.446 7.92802 175.796 7.35274 176.051C6.77745 176.307 6.10842 176.435 5.34563 176.435C4.34421 176.435 3.51538 176.218 2.85913 175.783C2.20288 175.348 1.7874 174.713 1.61268 173.878L3.0445 173.52C3.18086 174.049 3.43867 174.445 3.81794 174.709C4.20146 174.973 4.70217 175.105 5.32007 175.105C6.02319 175.105 6.58143 174.956 6.99478 174.658C7.4124 174.355 7.6212 173.993 7.6212 173.571C7.6212 173.23 7.50188 172.945 7.26325 172.715C7.02461 172.48 6.65813 172.306 6.16382 172.191L4.52745 171.807C3.6283 171.594 2.96779 171.264 2.54592 170.816C2.1283 170.365 1.9195 169.8 1.9195 169.122C1.9195 168.568 2.07504 168.078 2.38612 167.652C2.70146 167.226 3.12972 166.892 3.67092 166.649C4.21637 166.406 4.83427 166.284 5.52461 166.284C6.4962 166.284 7.25899 166.497 7.81296 166.924C8.3712 167.35 8.76751 167.912 9.00188 168.611ZM15.0803 176.435C14.1939 176.435 13.4162 176.224 12.7472 175.802C12.0824 175.38 11.5625 174.79 11.1875 174.032C10.8168 173.273 10.6314 172.387 10.6314 171.372C10.6314 170.35 10.8168 169.457 11.1875 168.694C11.5625 167.931 12.0824 167.339 12.7472 166.917C13.4162 166.495 14.1939 166.284 15.0803 166.284C15.9666 166.284 16.7422 166.495 17.407 166.917C18.076 167.339 18.5959 167.931 18.9666 168.694C19.3416 169.457 19.5291 170.35 19.5291 171.372C19.5291 172.387 19.3416 173.273 18.9666 174.032C18.5959 174.79 18.076 175.38 17.407 175.802C16.7422 176.224 15.9666 176.435 15.0803 176.435ZM15.0803 175.08C15.7536 175.08 16.3075 174.907 16.7422 174.562C17.1769 174.217 17.4986 173.763 17.7074 173.201C17.9162 172.638 18.0206 172.029 18.0206 171.372C18.0206 170.716 17.9162 170.105 17.7074 169.538C17.4986 168.971 17.1769 168.513 16.7422 168.164C16.3075 167.814 15.7536 167.639 15.0803 167.639C14.407 167.639 13.853 167.814 13.4183 168.164C12.9837 168.513 12.6619 168.971 12.4531 169.538C12.2443 170.105 12.1399 170.716 12.1399 171.372C12.1399 172.029 12.2443 172.638 12.4531 173.201C12.6619 173.763 12.9837 174.217 13.4183 174.562C13.853 174.907 14.407 175.08 15.0803 175.08ZM22.9804 163.139V176.23H21.4719V163.139H22.9804ZM31.5709 172.216V166.412H33.0794V176.23H31.5709V174.568H31.4686C31.2385 175.067 30.8805 175.491 30.3947 175.84C29.9089 176.186 29.2953 176.358 28.5538 176.358C27.9402 176.358 27.3947 176.224 26.9174 175.956C26.4402 175.683 26.0652 175.274 25.7924 174.728C25.5197 174.179 25.3834 173.486 25.3834 172.651V166.412H26.8919V172.549C26.8919 173.264 27.0922 173.836 27.4927 174.262C27.8976 174.688 28.4132 174.901 29.0396 174.901C29.4146 174.901 29.796 174.805 30.1838 174.613C30.5758 174.421 30.904 174.127 31.1682 173.731C31.4366 173.335 31.5709 172.83 31.5709 172.216ZM39.7522 166.412V167.691H34.6642V166.412H39.7522ZM36.1471 164.06H37.6556V173.418C37.6556 173.844 37.7174 174.164 37.841 174.377C37.9688 174.586 38.1308 174.726 38.3268 174.799C38.5271 174.867 38.738 174.901 38.9596 174.901C39.1258 174.901 39.2622 174.892 39.3687 174.875C39.4752 174.854 39.5605 174.837 39.6244 174.824L39.9312 176.179C39.8289 176.218 39.6862 176.256 39.5029 176.294C39.3197 176.337 39.0875 176.358 38.8062 176.358C38.3801 176.358 37.9625 176.267 37.5534 176.083C37.1485 175.9 36.8119 175.621 36.5434 175.246C36.2792 174.871 36.1471 174.398 36.1471 173.827V164.06ZM41.6614 176.23V166.412H43.1699V176.23H41.6614ZM42.4284 164.776C42.1344 164.776 41.8809 164.676 41.6678 164.475C41.459 164.275 41.3546 164.034 41.3546 163.753C41.3546 163.472 41.459 163.231 41.6678 163.031C41.8809 162.831 42.1344 162.73 42.4284 162.73C42.7225 162.73 42.9739 162.831 43.1827 163.031C43.3958 163.231 43.5023 163.472 43.5023 163.753C43.5023 164.034 43.3958 164.275 43.1827 164.475C42.9739 164.676 42.7225 164.776 42.4284 164.776ZM49.5615 176.435C48.6752 176.435 47.8975 176.224 47.2284 175.802C46.5637 175.38 46.0438 174.79 45.6688 174.032C45.298 173.273 45.1127 172.387 45.1127 171.372C45.1127 170.35 45.298 169.457 45.6688 168.694C46.0438 167.931 46.5637 167.339 47.2284 166.917C47.8975 166.495 48.6752 166.284 49.5615 166.284C50.4479 166.284 51.2235 166.495 51.8882 166.917C52.5573 167.339 53.0771 167.931 53.4479 168.694C53.8229 169.457 54.0104 170.35 54.0104 171.372C54.0104 172.387 53.8229 173.273 53.4479 174.032C53.0771 174.79 52.5573 175.38 51.8882 175.802C51.2235 176.224 50.4479 176.435 49.5615 176.435ZM49.5615 175.08C50.2348 175.08 50.7888 174.907 51.2235 174.562C51.6581 174.217 51.9798 173.763 52.1887 173.201C52.3975 172.638 52.5019 172.029 52.5019 171.372C52.5019 170.716 52.3975 170.105 52.1887 169.538C51.9798 168.971 51.6581 168.513 51.2235 168.164C50.7888 167.814 50.2348 167.639 49.5615 167.639C48.8882 167.639 48.3342 167.814 47.8996 168.164C47.4649 168.513 47.1432 168.971 46.9344 169.538C46.7256 170.105 46.6212 170.716 46.6212 171.372C46.6212 172.029 46.7256 172.638 46.9344 173.201C47.1432 173.763 47.4649 174.217 47.8996 174.562C48.3342 174.907 48.8882 175.08 49.5615 175.08ZM57.4616 170.324V176.23H55.9531V166.412H57.4105V167.946H57.5383C57.7685 167.448 58.1179 167.047 58.5866 166.745C59.0554 166.438 59.6605 166.284 60.402 166.284C61.0668 166.284 61.6484 166.421 62.147 166.693C62.6456 166.962 63.0334 167.371 63.3104 167.921C63.5874 168.466 63.7258 169.157 63.7258 169.992V176.23H62.2173V170.094C62.2173 169.323 62.017 168.722 61.6165 168.291C61.2159 167.857 60.6662 167.639 59.9673 167.639C59.4858 167.639 59.0554 167.744 58.6761 167.953C58.3011 168.162 58.005 168.466 57.7876 168.867C57.5703 169.267 57.4616 169.753 57.4616 170.324ZM67.2219 176.333C66.9065 176.333 66.6359 176.22 66.4101 175.994C66.1842 175.768 66.0713 175.497 66.0713 175.182C66.0713 174.867 66.1842 174.596 66.4101 174.37C66.6359 174.144 66.9065 174.032 67.2219 174.032C67.5372 174.032 67.8078 174.144 68.0336 174.37C68.2595 174.596 68.3724 174.867 68.3724 175.182C68.3724 175.391 68.3192 175.583 68.2126 175.757C68.1103 175.932 67.9719 176.073 67.7971 176.179C67.6267 176.282 67.4349 176.333 67.2219 176.333Z" fill="white"/>
</svg>
