<svg width="399" height="32" viewBox="0 0 399 32" fill="none" xmlns="http://www.w3.org/2000/svg">
<path d="M375.304 16.9463C374.757 16.9726 374.205 16.9908 373.669 17.0303C373.32 17.055 373.171 16.9825 372.939 16.9447C372.862 16.9315 372.779 16.9052 372.707 16.9084C372.165 16.9348 371.624 16.9644 371.082 16.9941C370.916 17.0583 370.811 17.1438 370.557 17.1751C370.309 17.2048 370.016 17.2048 369.739 17.2196C369.375 17.2377 369.01 17.2558 368.645 17.2723C368.463 17.2805 368.314 17.3118 368.253 17.371C368.242 17.3809 368.363 17.4056 368.43 17.4204C368.651 17.4698 368.866 17.5257 369.109 17.5636C369.341 17.5998 369.629 17.5406 369.878 17.5867C370.436 17.6904 370.441 17.6887 370.867 17.669C371.232 17.6509 371.596 17.6311 371.961 17.6179C372.033 17.6147 372.116 17.6393 372.193 17.6525C372.425 17.6887 372.574 17.771 372.917 17.7398C373.177 17.7151 373.464 17.7101 373.735 17.697C373.961 17.7447 374.171 17.799 374.415 17.8369C374.641 17.8731 374.708 17.9011 374.586 17.9488C374.475 17.9933 374.321 18.0114 374.116 18.0147C373.934 18.0163 373.751 18.0311 373.569 18.0393C373.475 18.0443 373.387 18.0476 373.298 18.0525C372.95 18.0706 372.95 18.0706 372.315 17.9653C372.066 17.9241 371.784 17.9817 371.546 17.9422C371.386 17.9159 371.248 17.8764 371.093 17.8484C371.027 17.8369 370.922 17.8352 370.839 17.8385C370.563 17.85 370.286 17.8583 370.021 17.8797C369.833 17.8945 369.723 17.9406 369.745 17.9867C369.75 18.0048 369.883 18.0311 369.96 18.0328C370.137 18.0361 370.325 18.013 370.496 18.0245C370.662 18.0361 370.834 18.069 370.955 18.1052C371.204 18.1809 371.486 18.1134 371.723 18.1332C371.972 18.1546 372.176 18.2204 372.414 18.2599C372.475 18.2698 372.591 18.2533 372.685 18.2484C372.956 18.2369 373.227 18.227 373.497 18.2155C373.724 18.2632 373.967 18.306 374.172 18.3603C374.542 18.4591 374.94 18.497 375.42 18.4492C375.691 18.4229 375.956 18.4328 376.172 18.497C376.393 18.5628 376.647 18.5562 376.929 18.5431C377.189 18.5299 377.454 18.4937 377.719 18.5398C378.294 18.6418 378.3 18.6468 378.979 18.6073C379.184 18.5957 379.339 18.5925 379.493 18.6303C379.637 18.6649 379.792 18.6945 379.941 18.7274C380.212 18.7159 380.488 18.7044 380.759 18.6912C381.107 18.6731 381.3 18.6962 381.383 18.7883C381.433 18.8443 381.455 18.8953 381.577 18.9332C381.72 18.9793 381.875 18.9776 382.085 18.9645C382.284 18.9529 382.428 18.9349 382.511 18.8756C382.544 18.8509 382.61 18.8278 382.671 18.8081C382.721 18.7933 382.798 18.7702 382.842 18.7735C382.925 18.7801 383.036 18.7982 383.063 18.8196C383.334 19.0188 383.334 19.0204 383.61 19.0781C383.914 19.1423 384.229 19.1999 384.506 19.2723C384.754 19.3365 385.003 19.3085 385.274 19.3085C385.478 19.3085 385.611 19.3513 385.594 19.3941C385.583 19.4188 385.506 19.455 385.44 19.4583C384.898 19.4912 384.351 19.5192 383.804 19.5423C383.738 19.5456 383.655 19.5159 383.577 19.5011C383.423 19.4715 383.284 19.4254 383.119 19.4155C382.953 19.4056 382.759 19.4303 382.577 19.4386C382.395 19.4468 382.201 19.4682 382.035 19.455C381.87 19.4419 381.737 19.3941 381.582 19.3628C381.51 19.348 381.411 19.3266 381.35 19.3316C380.947 19.3711 380.648 19.3168 380.361 19.2443C380.3 19.2295 380.195 19.2196 380.118 19.2229C379.477 19.2509 378.841 19.2838 378.2 19.3151C377.94 19.3283 377.73 19.2707 377.675 19.1735C377.647 19.1192 377.592 19.0649 377.592 19.0106C377.592 18.9118 377.288 18.8575 377.067 18.869C376.703 18.8855 376.332 18.8986 375.973 18.9233C375.68 18.9431 375.431 18.9233 375.233 18.8641C375 18.7966 374.735 18.8097 374.47 18.8278C374.271 18.841 374.216 18.8953 374.227 19.032C374.238 19.1423 374.144 19.1768 373.785 19.1949C373.331 19.218 372.873 19.241 372.414 19.2591C372.342 19.2624 372.259 19.2344 372.188 19.2196C372.033 19.19 371.895 19.1423 371.729 19.1324C371.563 19.1209 371.37 19.1455 371.187 19.1554C371.005 19.1637 370.811 19.1867 370.646 19.1752C370.48 19.1637 370.342 19.1143 370.192 19.083C370.121 19.0682 370.032 19.0468 369.96 19.0501C369.596 19.0632 369.231 19.083 368.866 19.1011C368.457 19.1209 368.457 19.1209 367.877 19.0188C367.612 18.9727 367.346 19.0089 367.087 19.0221C366.81 19.0353 366.551 19.0418 366.335 18.976C366.191 18.9332 366.031 18.9069 365.86 18.9151C365.401 18.9349 364.948 18.9595 364.489 18.9793C364.412 18.9826 364.307 18.9744 364.246 18.9595C363.953 18.8904 363.666 18.8361 363.257 18.8706C362.903 18.9003 362.522 18.9019 362.168 18.9299C361.975 18.9447 361.886 18.9974 361.925 19.0386C361.947 19.06 362.063 19.0847 362.141 19.0847C362.318 19.0863 362.511 19.0616 362.677 19.0715C363.019 19.0912 363.191 19.2295 363.638 19.1916C363.904 19.1686 364.18 19.1604 364.456 19.1538C364.528 19.1521 364.605 19.1834 364.683 19.1999C364.904 19.2443 365.097 19.3019 365.418 19.2723C365.683 19.2492 365.965 19.2427 366.236 19.2295C366.667 19.2081 366.667 19.2098 367.225 19.3102C367.49 19.3579 367.755 19.32 368.015 19.3085C368.208 19.3003 368.391 19.2838 368.546 19.3069C368.783 19.3414 368.955 19.4204 369.247 19.4155C369.524 19.4106 369.795 19.3875 370.071 19.3793C370.242 19.3744 370.402 19.4007 370.541 19.4451C370.684 19.4896 370.839 19.5093 371.027 19.4995C371.298 19.4863 371.574 19.4698 371.85 19.4616C371.928 19.46 372.016 19.4748 372.088 19.4879C372.243 19.5176 372.392 19.5521 372.541 19.5834C372.812 19.5735 373.088 19.5703 373.354 19.5505C373.558 19.5357 373.702 19.5423 373.868 19.5752C374.078 19.6196 374.249 19.6987 374.591 19.6608C374.763 19.6427 374.962 19.6476 375.133 19.6312C375.343 19.6098 375.487 19.618 375.636 19.6674C375.918 19.7612 376.271 19.7628 376.636 19.7266C377.034 19.6871 377.333 19.7332 377.631 19.8057C377.946 19.8814 377.946 19.8797 378.189 20.0624C378.261 20.1151 378.465 20.1398 378.637 20.1299C378.924 20.1135 379.173 20.1217 379.383 20.1843C379.604 20.2517 379.869 20.2435 380.14 20.2254C380.499 20.2007 380.858 20.1793 381.151 20.2748C381.295 20.3209 381.45 20.3324 381.643 20.3209C382.19 20.2913 382.743 20.2732 383.279 20.2369C383.605 20.2139 383.793 20.2666 384.014 20.311C384.312 20.3719 384.638 20.4262 384.638 20.5563C384.638 20.5777 384.716 20.6024 384.782 20.6188C384.926 20.6534 385.08 20.683 385.23 20.716C385.451 20.7653 385.666 20.8065 385.97 20.7802C386.235 20.7588 386.517 20.7522 386.788 20.7374C387.059 20.7225 387.308 20.7143 387.551 20.7769C387.833 20.8476 388.131 20.9151 388.451 20.9678C388.678 21.0057 388.977 20.9415 389.22 20.9925C389.369 21.0238 389.512 21.06 389.673 21.0863C389.739 21.0979 389.844 21.0896 389.933 21.0863C390.115 21.0798 390.303 21.0748 390.48 21.0584C390.684 21.0403 390.839 21.0436 390.994 21.0814C391.137 21.116 391.281 21.1637 391.447 21.1736C391.695 21.1884 391.972 21.1226 392.22 21.1983C392.348 21.2361 392.508 21.2724 392.674 21.2839C392.839 21.2954 393.033 21.2707 393.21 21.2724C393.287 21.2724 393.381 21.2987 393.425 21.3201C393.453 21.3316 393.414 21.3629 393.376 21.3794C393.326 21.3991 393.254 21.4255 393.182 21.4287C392.635 21.4584 392.088 21.4831 391.541 21.5111C391.215 21.5275 391.215 21.5275 390.557 21.4238C390.402 21.3991 390.231 21.404 390.038 21.4156C389.778 21.4304 389.513 21.4584 389.242 21.4287C388.888 21.3168 388.452 21.3069 387.987 21.3497C387.794 21.3678 387.617 21.3678 387.473 21.3366C387.169 21.274 386.849 21.2164 386.578 21.1423C386.368 21.0847 386.269 21.0798 386.18 21.1588C386.153 21.1835 386.125 21.2098 386.13 21.2328C386.164 21.3152 386.224 21.3958 386.258 21.4781C386.269 21.5012 386.224 21.5275 386.197 21.5522C386.108 21.6213 385.992 21.6164 385.799 21.5588C385.605 21.5012 385.373 21.4633 385.064 21.4897C384.799 21.5127 384.511 21.5094 384.246 21.5341C383.837 21.5703 383.55 21.5176 383.257 21.4468C383.196 21.432 383.091 21.4238 383.014 21.4271C382.19 21.465 381.372 21.5078 380.549 21.5456C380.372 21.5538 380.212 21.5292 380.074 21.4847C379.93 21.4403 379.77 21.4172 379.593 21.4254C378.863 21.46 378.134 21.4913 377.404 21.5341C377.106 21.5522 376.868 21.5308 376.664 21.4732C376.509 21.4304 376.365 21.4172 376.172 21.4222C375.962 21.4271 375.813 21.4436 375.708 21.4913C375.608 21.5374 375.68 21.5654 375.901 21.6016C376.139 21.6411 376.36 21.6921 376.586 21.7382C376.769 21.7316 376.951 21.7184 377.128 21.7201C377.205 21.7201 377.277 21.7497 377.355 21.7662C377.576 21.8139 377.78 21.8617 378.095 21.8353C378.36 21.8123 378.642 21.8073 378.913 21.7925C379.289 21.7744 379.289 21.7744 379.897 21.8781C380.051 21.9045 380.217 21.9028 380.416 21.888C380.587 21.8765 380.764 21.8995 380.886 21.9489C380.936 21.9687 380.919 22.0016 380.814 22.1102C380.814 22.1909 380.93 22.1547 380.969 22.102C381.03 22.0263 380.914 22.0016 380.692 22.0427C380.538 22.0724 380.46 22.1152 380.499 22.1498C380.521 22.1679 380.626 22.1909 380.814 22.1102C381.3 22.0115 381.671 21.9999 382.024 21.9736C382.234 21.9588 382.367 21.9654 382.533 22.0082C382.732 22.0592 382.931 22.1135 383.257 22.0872C383.61 22.0576 383.986 22.0543 384.345 22.0296C384.677 22.0065 384.848 22.079 385.058 22.1218C385.313 22.1728 385.594 22.1152 385.826 22.1448C386.07 22.1744 386.241 22.2469 386.523 22.26C386.932 22.2156 387.191 22.2979 387.501 22.3522C387.744 22.3934 388.031 22.3571 388.291 22.339C388.584 22.3193 388.827 22.3374 389.032 22.3967C389.264 22.4642 389.524 22.4493 389.789 22.4345C390.408 22.4016 390.43 22.3967 390.789 22.4872C391.049 22.553 391.298 22.5234 391.557 22.5152C391.784 22.5596 392.005 22.6074 392.243 22.6469C392.303 22.6567 392.419 22.6403 392.513 22.6354C392.784 22.6222 393.06 22.609 393.331 22.5958C393.514 22.5876 393.707 22.5629 393.873 22.5728C394.039 22.5843 394.177 22.6321 394.326 22.6633C394.475 22.6946 394.63 22.7259 394.774 22.7588C394.995 22.8082 395.205 22.8494 395.514 22.8247C395.779 22.8033 396.056 22.7967 396.332 22.7819C396.68 22.7638 396.669 22.7687 397.316 22.8675C397.664 22.9218 398.023 22.8559 398.377 22.8494C398.554 22.8461 398.725 22.8642 398.847 22.9119C398.896 22.9317 398.88 22.9646 398.896 22.9926C397.984 23.037 397.067 23.0749 396.166 23.1292C395.818 23.1506 395.636 23.0913 395.448 23.0419C395.138 22.9629 394.729 23.0782 394.437 22.9761C394.26 22.9152 394.005 22.8806 393.701 22.9103C393.525 22.9267 393.337 22.9251 393.154 22.9399C392.69 22.9761 392.265 22.9778 391.894 22.8642C391.767 22.8247 391.585 22.8033 391.452 22.7654C391.298 22.7243 391.148 22.7012 390.966 22.7094C390.143 22.7489 389.325 22.7884 388.507 22.8312C388.435 22.8345 388.363 22.8592 388.302 22.8773C388.147 22.9234 388.197 22.9596 388.446 22.9893C388.529 22.9992 388.595 23.0205 388.673 23.037C388.822 23.0683 388.96 23.1177 389.126 23.1292C389.291 23.1407 389.485 23.1177 389.667 23.1094C389.85 23.1012 390.043 23.0765 390.209 23.0864C390.375 23.0979 390.513 23.1457 390.668 23.1753C390.739 23.1901 390.828 23.2148 390.9 23.2131C391.264 23.2033 391.624 23.1852 391.988 23.1703C392.215 23.2148 392.408 23.279 392.679 23.2938C392.85 23.3037 393.033 23.2856 393.21 23.2889C393.287 23.2905 393.386 23.3152 393.425 23.3366C393.447 23.3498 393.375 23.3827 393.32 23.3992C393.11 23.4617 392.823 23.4502 392.563 23.4699C392.281 23.4913 392.027 23.4848 391.812 23.4206C391.668 23.3778 391.508 23.3547 391.331 23.3629C390.872 23.3843 390.419 23.409 389.96 23.4272C389.883 23.4304 389.789 23.4156 389.717 23.4041C389.137 23.3037 389.137 23.3004 388.728 23.3218C388.125 23.3531 388.125 23.3531 387.722 23.2658C387.645 23.2494 387.562 23.2181 387.495 23.2197C386.854 23.2461 386.219 23.2724 385.583 23.3103C385.373 23.3218 385.23 23.3218 385.075 23.279C384.942 23.2428 384.788 23.2016 384.622 23.1917C384.45 23.1819 384.263 23.2066 384.08 23.2148C383.898 23.223 383.704 23.2444 383.544 23.2313C383.378 23.2181 383.235 23.172 383.091 23.1391C382.942 23.1045 382.781 23.1061 382.577 23.1193C381.947 23.1572 381.941 23.1522 381.317 23.0502C381.245 23.0387 381.151 23.0255 381.074 23.0288C380.615 23.0485 380.162 23.0732 379.703 23.093C379.527 23.1012 379.355 23.0798 379.234 23.0321C379.184 23.0123 379.2 22.9794 379.167 22.9152C379.129 22.9004 379.173 22.9267 379.184 22.9514C379.267 22.9481 379.366 22.9514 379.427 22.9382C379.582 22.907 379.659 22.8658 379.62 22.8312C379.598 22.8131 379.493 22.7901 379.427 22.7901C379.305 22.7901 379.2 22.8263 379.167 22.9152C378.819 22.9695 378.449 22.981 378.09 23.0074C377.88 23.0238 377.747 23.0156 377.581 22.9728C377.382 22.9201 377.178 22.8691 376.852 22.8954C376.498 22.9251 376.122 22.93 375.757 22.9531C375.337 22.9794 375.155 22.8312 374.801 22.8345C374.437 22.8378 374.072 22.8658 373.707 22.8856C373.387 22.902 373.387 22.902 372.724 22.795C372.48 22.7555 372.193 22.8131 371.955 22.772C371.795 22.7456 371.657 22.7061 371.502 22.6782C371.436 22.6666 371.331 22.6666 371.248 22.6699C370.789 22.6897 370.325 22.7028 369.883 22.7391C369.38 22.7819 368.999 22.7358 368.64 22.6386C368.186 22.6568 367.728 22.6666 367.28 22.6979C366.954 22.721 366.766 22.6666 366.545 22.6222C366.468 22.6074 366.401 22.5827 366.319 22.5761C366.236 22.5695 366.136 22.5827 366.048 22.5876C365.683 22.6057 365.307 22.614 364.953 22.6436C364.517 22.6815 364.351 22.5465 364.014 22.53C363.787 22.6107 363.666 22.7209 363.218 22.7292C362.854 22.7358 362.489 22.7621 362.124 22.7802C361.942 22.7884 361.759 22.7983 361.577 22.8066C361.284 22.8214 361.146 22.8856 361.207 22.9843C361.24 23.0387 361.267 23.093 361.295 23.1473C361.35 23.2444 361.212 23.3267 360.98 23.3383C360.339 23.3695 359.704 23.4024 359.062 23.4304C358.891 23.4387 358.725 23.4107 358.587 23.3662C358.443 23.3218 358.283 23.302 358.106 23.3103C357.465 23.3415 356.83 23.3745 356.189 23.4025C356.117 23.4057 356.023 23.3893 355.951 23.3761C355.796 23.3465 355.647 23.3119 355.498 23.2806C355.133 23.2955 354.774 23.3053 354.415 23.3251C353.835 23.3547 353.835 23.3564 353.409 23.2658C353.332 23.2494 353.254 23.2181 353.182 23.2197C352.906 23.2263 352.635 23.2428 352.359 23.2576C351.547 23.3004 351.547 23.3004 351.309 23.251C351.093 23.2049 350.9 23.149 350.574 23.1753C350.22 23.2049 349.844 23.2148 349.48 23.2313C349.209 23.2428 348.938 23.256 348.667 23.2592C348.596 23.2609 348.518 23.2296 348.441 23.2131C348.22 23.1621 348.004 23.121 347.7 23.1489C347.523 23.1654 347.336 23.1687 347.153 23.1769C346.678 23.2 346.678 23.2 345.899 23.1012C345.821 23.0913 345.727 23.0798 345.65 23.0847C345.009 23.1144 344.373 23.1473 343.732 23.1753C343.655 23.1786 343.561 23.1687 343.484 23.1605C342.611 23.065 342.611 23.065 341.682 23.1111C341.328 23.1275 341.317 23.1341 340.947 23.0469C340.781 23.009 340.643 22.9909 340.45 23.0024C339.72 23.0419 338.985 23.0683 338.261 23.1144C337.935 23.1341 337.747 23.0847 337.526 23.0403C337.449 23.0255 337.366 22.9926 337.3 22.9942C336.57 23.0255 335.841 23.0634 335.111 23.0946C335.045 23.0979 334.962 23.065 334.885 23.0502C334.736 23.0205 334.592 22.9761 334.426 22.9662C334.255 22.9564 334.067 22.981 333.879 22.9893C333.42 23.0107 333.42 23.009 332.89 22.9119C332.818 22.8987 332.724 22.8806 332.652 22.8839C331.923 22.9168 331.188 22.9448 330.464 22.9926C330.049 23.0189 329.767 22.9712 329.474 22.902C329.414 22.8872 329.309 22.8806 329.231 22.8839C328.408 22.9218 327.59 22.9646 326.767 23.0024C326.595 23.0107 326.429 22.9827 326.291 22.9399C326.07 22.8724 325.811 22.8806 325.534 22.8954C324.899 22.93 324.893 22.9284 324.517 22.8494C324.44 22.8329 324.374 22.8115 324.291 22.8033C324.213 22.795 324.114 22.8 324.031 22.8033C323.666 22.8197 323.302 22.8378 322.937 22.8559C322.572 22.874 322.202 22.8839 321.843 22.9119C321.4 22.9465 321.19 22.8395 320.881 22.7901C320.428 22.8115 319.964 22.8247 319.516 22.8592C319.173 22.8856 319.013 22.8131 318.787 22.7753C318.709 22.7621 318.626 22.7341 318.554 22.7374C317.731 22.7736 316.908 22.8131 316.09 22.8576C315.891 22.8675 315.758 22.8543 315.592 22.8148C315.222 22.7259 315.205 22.7292 314.587 22.7621C314.316 22.7769 314.056 22.7901 313.824 22.7226C313.619 22.6617 313.371 22.6469 313.078 22.6666C312.719 22.6913 312.348 22.7045 311.984 22.721C311.619 22.7391 311.254 22.7637 310.889 22.772C310.597 22.7802 310.42 22.7029 310.188 22.6633C310.116 22.6518 310.016 22.6502 309.933 22.6535C309.569 22.6683 309.193 22.6798 308.839 22.7078C308.408 22.7423 308.171 22.6518 307.867 22.5991C307.8 22.5876 307.69 22.5942 307.607 22.5991C306.966 22.6288 306.33 22.6617 305.689 22.693C305.462 22.6485 305.23 22.6057 305.004 22.5613C304.639 22.5777 304.274 22.5958 303.91 22.6123C303.633 22.6255 303.351 22.6304 303.092 22.6551C302.755 22.688 302.589 22.6107 302.362 22.5728C302.285 22.5596 302.202 22.5316 302.13 22.5349C301.671 22.553 301.213 22.5728 300.76 22.6008C300.329 22.6288 300.157 22.4806 299.804 22.4823C299.439 22.4839 299.063 22.5053 298.709 22.5349C298.3 22.5695 298.013 22.5168 297.72 22.446C297.659 22.4312 297.554 22.423 297.477 22.4263C297.018 22.446 296.565 22.4707 296.107 22.4905C296.029 22.4938 295.935 22.4856 295.858 22.4757C294.985 22.3786 294.985 22.3769 294.603 22.3967C294.333 22.4098 294.056 22.4263 293.78 22.4345C293.703 22.4378 293.609 22.423 293.537 22.4098C292.962 22.3094 292.962 22.3078 292.547 22.3275C292.183 22.3456 291.818 22.3637 291.453 22.3818C291.227 22.3374 290.995 22.2946 290.768 22.2502C290.315 22.2716 289.851 22.288 289.403 22.3176C289.193 22.3308 289.055 22.3259 288.895 22.2847C288.696 22.2353 288.497 22.1777 288.165 22.2057C287.811 22.2353 287.436 22.2386 287.076 22.2633C286.645 22.293 286.469 22.1432 286.12 22.1448C285.756 22.1465 285.38 22.1678 285.026 22.1975C284.617 22.232 284.33 22.1794 284.037 22.1086C283.976 22.0938 283.871 22.0856 283.794 22.0888C282.788 22.1366 281.788 22.1843 280.782 22.2353C280.163 22.2666 280.163 22.2683 278.986 22.1777C278.903 22.1711 278.815 22.1646 278.732 22.1679C278.367 22.1827 277.991 22.1942 277.637 22.2222C277.206 22.2567 276.969 22.1678 276.665 22.1135C276.598 22.102 276.493 22.1086 276.405 22.1119C276.129 22.1234 275.858 22.1382 275.582 22.1514C275.217 22.1695 274.852 22.1876 274.487 22.2057C274.261 22.1629 274.029 22.1185 273.802 22.0757C273.349 22.0971 272.885 22.1086 272.437 22.1432C272.095 22.1695 271.934 22.1004 271.708 22.0609C271.63 22.0477 271.547 22.0197 271.476 22.0213C270.652 22.0576 269.829 22.0954 269.011 22.1415C268.674 22.1613 268.519 22.0872 268.292 22.0493C268.215 22.0378 268.127 22.0164 268.055 22.0197C267.508 22.0427 266.961 22.0707 266.414 22.0987C266.104 22.1152 266.104 22.1152 265.43 22.0131C265.352 22.0016 265.264 21.9901 265.187 21.9934C263.451 22.0757 261.722 22.1629 259.986 22.2452C259.809 22.2535 259.649 22.2288 259.511 22.1843C259.367 22.1399 259.207 22.1168 259.03 22.1251C258.301 22.1596 257.566 22.1909 256.842 22.2337C256.543 22.2518 256.306 22.2304 256.101 22.1728C255.947 22.13 255.803 22.1135 255.61 22.1234C255.245 22.1432 254.88 22.1596 254.515 22.1777C254.151 22.1958 253.786 22.214 253.421 22.2321C253.056 22.2502 252.686 22.26 252.327 22.288C251.885 22.3226 251.669 22.2205 251.365 22.1695C250.818 22.1942 250.271 22.2189 249.729 22.2452C249 22.2798 248.27 22.3177 247.541 22.3506C247.475 22.3539 247.392 22.3242 247.314 22.3094C247.088 22.2683 246.922 22.2107 246.585 22.2288C244.949 22.316 243.302 22.3901 241.661 22.4757C241.318 22.4938 241.169 22.423 240.937 22.3851C240.86 22.3736 240.771 22.3506 240.699 22.3539C239.788 22.395 238.876 22.4411 237.964 22.4855C237.594 22.5037 237.594 22.5037 236.975 22.4016C236.903 22.3901 236.809 22.3753 236.731 22.3785C235.543 22.4345 234.361 22.4938 233.173 22.5514C232.996 22.5596 232.836 22.5366 232.692 22.4921C232.554 22.4477 232.388 22.423 232.217 22.4312C231.122 22.4839 230.023 22.5349 228.934 22.5926C228.641 22.609 228.398 22.5942 228.188 22.5349C228.039 22.4921 227.889 22.474 227.702 22.4839C226.06 22.5646 224.419 22.6419 222.777 22.7275C222.462 22.744 222.242 22.7127 222.043 22.6584C221.882 22.6156 221.744 22.6074 221.545 22.614C221.335 22.6222 221.208 22.6403 221.092 22.6897C220.943 22.7539 220.849 22.8345 220.495 22.8395C220.13 22.8444 219.76 22.8642 219.401 22.8922C219.058 22.9201 218.898 22.8461 218.683 22.8016C218.522 22.7703 218.373 22.7654 218.169 22.7802C217.981 22.7934 217.865 22.8214 217.754 22.874C217.511 22.986 217.489 22.986 217.19 22.9152C217.03 22.8773 216.886 22.8477 216.71 22.8543C215.98 22.8872 215.251 22.9234 214.521 22.9613C214.101 22.9827 214.096 22.986 213.781 22.9037C213.626 22.8625 213.477 22.8428 213.294 22.8526C211.288 22.9514 209.282 23.0469 207.276 23.1506C206.967 23.1671 206.757 23.1325 206.536 23.0831C206.464 23.0666 206.392 23.0436 206.309 23.037C206.226 23.0304 206.132 23.037 206.044 23.0403C204.585 23.1111 203.12 23.1786 201.667 23.2576C201.335 23.2757 201.159 23.223 200.932 23.1802C200.855 23.1654 200.788 23.1424 200.705 23.1358C200.622 23.1308 200.523 23.1424 200.435 23.1473C198.976 23.2181 197.511 23.2856 196.058 23.3646C195.71 23.3827 195.56 23.3136 195.334 23.2773C195.256 23.2642 195.174 23.2395 195.102 23.2428C194.643 23.2609 194.19 23.2856 193.731 23.307C192.637 23.3613 191.543 23.4123 190.448 23.4683C190.028 23.4897 189.846 23.3432 189.492 23.3498C189.034 23.358 188.581 23.3909 188.122 23.414C187.757 23.4321 187.392 23.4486 187.028 23.4683C186.668 23.4864 186.668 23.4864 185.773 23.3909C185.696 23.3827 185.602 23.3712 185.525 23.3745C184.248 23.4354 182.966 23.4963 181.695 23.5621C181.402 23.5769 181.159 23.5687 180.949 23.5078C180.799 23.465 180.645 23.4436 180.462 23.4535C178.545 23.5473 176.633 23.6411 174.715 23.7333C174.643 23.7366 174.549 23.7202 174.477 23.707C174.323 23.6774 174.173 23.6428 174.024 23.6115C173.914 23.6494 173.77 23.6839 173.698 23.7267C173.599 23.7844 173.466 23.8008 173.256 23.8107C173.046 23.8206 172.913 23.8173 172.748 23.7745C172.549 23.7218 172.344 23.6806 172.018 23.6971C170.012 23.8008 168.006 23.8946 166 23.9967C165.668 24.0132 165.514 23.9407 165.282 23.9029C165.204 23.8913 165.116 23.8733 165.044 23.8765C164.22 23.9144 163.403 23.9556 162.579 23.9951C160.297 24.107 158.014 24.214 155.738 24.3325C155.323 24.3539 155.041 24.3128 154.748 24.242C154.688 24.2272 154.583 24.2189 154.505 24.2222C151.311 24.377 148.117 24.5333 144.928 24.6897C144.757 24.698 144.591 24.6716 144.453 24.6288C144.309 24.5844 144.149 24.563 143.972 24.5712C142.513 24.642 141.054 24.7128 139.595 24.7852C139.23 24.8033 139.225 24.8049 138.849 24.7259C138.772 24.7095 138.689 24.6782 138.628 24.6815C138.501 24.6897 138.379 24.7309 138.291 24.7868C138.203 24.8461 138.064 24.8626 137.86 24.8741C137.65 24.8856 137.512 24.8807 137.352 24.8412C137.147 24.7918 136.959 24.7441 136.628 24.7605C132.433 24.9712 128.239 25.1737 124.044 25.3827C123.707 25.3992 123.552 25.3301 123.32 25.2922C123.243 25.2807 123.165 25.2642 123.082 25.2609C122.994 25.2576 122.9 25.2675 122.812 25.2725C115.97 25.6066 109.129 25.9424 102.287 26.2766C101.878 26.2964 101.884 26.2964 101.436 26.4478C101.381 26.4659 101.309 26.4906 101.231 26.4939C99.1369 26.5992 97.0369 26.7013 94.9369 26.8034C94.0251 26.8478 93.1132 26.8939 92.2014 26.9367C91.8753 26.9515 91.8753 26.9515 91.0961 27.1293C91.0298 27.1441 90.9524 27.1639 90.875 27.1672C87.2276 27.3466 83.5802 27.526 79.9273 27.7022C79.6399 27.7153 79.4079 27.745 79.2752 27.824C79.1813 27.8799 79.0597 27.9129 78.8773 27.9227C76.3242 28.0478 73.7711 28.1746 71.2124 28.2964C70.9084 28.3112 70.726 28.3573 70.5768 28.4265C70.527 28.4495 70.4828 28.4758 70.411 28.4923C70.3447 28.5071 70.2452 28.512 70.1623 28.517C67.9739 28.624 65.7855 28.7343 63.5916 28.8363C63.2655 28.8512 63.1328 28.9121 62.9725 28.9763C62.9173 28.9977 62.8786 29.0273 62.8067 29.0421C62.7349 29.0553 62.6299 29.0553 62.5415 29.0586C60.7178 29.1475 58.8941 29.238 57.0705 29.3269C56.7168 29.3187 56.6394 29.4141 56.468 29.4717C56.4072 29.4915 56.3631 29.5178 56.2913 29.531C56.2139 29.5442 56.1143 29.5425 56.0204 29.5458C54.5614 29.6166 53.1025 29.6923 51.638 29.7582C51.3009 29.773 51.2346 29.8569 51.0522 29.9145C50.9914 29.9327 50.9307 29.9606 50.8589 29.9656C49.947 30.0133 49.0352 30.0578 48.1234 30.1006C47.8194 30.1154 47.8194 30.1137 47.2833 30.2767C47.2226 30.2948 47.1506 30.3146 47.0733 30.3195C45.7083 30.3886 44.3378 30.4545 42.9672 30.522C42.7904 30.5302 42.6688 30.5697 42.5804 30.6257C42.492 30.6817 42.3649 30.7179 42.1881 30.7261C41.0939 30.7804 39.9995 30.8364 38.9053 30.8858C38.6014 30.8989 38.4025 30.9401 38.2699 31.0142C38.1704 31.0701 38.0488 31.0981 37.8554 31.108C36.7612 31.1607 35.667 31.2183 34.5672 31.2644C34.2467 31.2776 34.0809 31.3335 33.9482 31.4027C33.8432 31.4586 33.7216 31.4784 33.5172 31.4883C31.5111 31.5837 29.4996 31.6792 27.499 31.7846C27.1619 31.8027 26.9906 31.745 26.7695 31.7039C26.4545 31.6463 26.1617 31.5837 26.1617 31.4553C26.1617 31.4356 26.0677 31.4125 26.0014 31.3961C25.5096 31.2726 25.5096 31.2726 25.4322 31.1409C25.388 31.0603 25.3383 30.978 25.2996 30.8957C25.2277 30.7607 25.0508 30.7261 24.5424 30.7508C24.36 30.759 24.1777 30.7705 23.9953 30.7771C23.7245 30.7886 23.5201 30.7343 23.4703 30.6356C23.4427 30.5812 23.4096 30.5269 23.3819 30.4726C23.6583 30.4594 23.6527 30.4578 24.139 30.2586C24.3435 30.1747 24.3435 30.1746 23.9512 30.0907C23.802 30.0594 23.6582 30.0248 23.498 29.9952C23.4261 29.982 23.3322 29.9738 23.2549 29.9771C22.7962 29.9969 22.343 30.0199 21.8899 30.0429C21.1604 30.0792 21.1603 30.0792 20.4198 29.9113C20.359 29.8981 20.265 29.8734 20.2761 29.8602C20.3369 29.7993 20.4861 29.773 20.674 29.7664C20.9503 29.7565 21.2211 29.7401 21.4919 29.7269C21.6742 29.7187 21.8566 29.7088 22.039 29.7006C22.2103 29.638 22.3872 29.5771 22.5475 29.5129C22.8017 29.4141 22.8016 29.4108 22.4534 29.3417C22.2324 29.2956 21.9947 29.2544 21.7682 29.2116C21.4974 29.2248 21.2211 29.2396 20.9503 29.2512C20.6076 29.266 20.4695 29.2347 20.3811 29.1277C20.3037 29.0339 20.3976 28.9532 20.6629 28.9335C20.9337 28.9137 21.188 28.9005 21.3262 28.8166C21.4588 28.7359 21.6909 28.7046 21.9782 28.6981C22.1606 28.6931 22.343 28.6816 22.5253 28.6717C22.763 28.6586 22.8901 28.5746 22.8404 28.4808C22.8127 28.4199 22.7575 28.3688 22.5419 28.3557C21.5859 28.298 21.5748 28.2997 21.0995 28.1878C21.0553 28.1779 21.0222 28.1483 21.0388 28.1334C21.0664 28.1087 21.1272 28.0725 21.1935 28.0676C21.8291 28.0314 22.4646 27.9985 23.1001 27.9738C23.3101 27.9655 23.4649 27.954 23.5367 27.8931C23.6362 27.8091 23.592 27.7318 23.3985 27.6742C23.3378 27.6561 23.2382 27.633 23.1719 27.6347C22.4424 27.6643 21.7185 27.7021 20.989 27.7318C20.9227 27.7351 20.8012 27.7071 20.7735 27.6857C20.7183 27.6462 20.8011 27.5935 20.9945 27.5754C21.2487 27.5507 21.5085 27.5491 21.6798 27.4667C21.9174 27.3499 22.2103 27.2429 22.4756 27.131C22.5198 27.1112 22.5917 27.0733 22.5751 27.07C22.437 27.0338 22.2767 27.0058 22.133 26.9713C21.8898 26.9136 21.8898 26.833 21.945 26.7556C21.9893 26.6931 22.155 26.6684 22.3595 26.6684C22.4479 26.6684 22.5585 26.6684 22.6303 26.6536C22.8182 26.6174 22.879 26.5712 22.7851 26.5367C22.7298 26.5169 22.6304 26.489 22.5641 26.4923C21.3814 26.5466 20.1932 26.5992 19.0161 26.6667C18.6679 26.6865 18.5077 26.6239 18.2977 26.5795C18.1375 26.5449 17.9882 26.5317 17.7892 26.5564C17.6013 26.5795 17.419 26.5663 17.303 26.512C17.209 26.4676 17.3748 26.4297 17.8224 26.3869C17.9053 26.3787 17.9992 26.3737 18.06 26.3573C18.7011 26.1795 18.7011 26.1778 19.1432 26.1548C19.5742 26.1334 19.5743 26.1317 19.8009 26.0363C19.9059 25.9918 20.0219 25.9474 20.1213 25.9013C20.16 25.8832 20.2264 25.8502 20.2043 25.8404C20.0827 25.7893 19.9169 25.7778 19.7235 25.7893C19.2924 25.8173 18.784 25.7943 18.5575 25.9507C18.469 26.0099 18.3309 26.0264 18.1319 26.0363C16.1314 26.1317 14.1308 26.2338 12.1247 26.326C11.7987 26.3408 11.6496 26.4017 11.5225 26.4692C11.4119 26.5252 11.2903 26.5416 11.0803 26.5515C10.8703 26.5614 10.7045 26.5663 10.5829 26.512C10.511 26.4791 10.5718 26.433 10.7376 26.3869C10.9753 26.3211 10.931 26.2387 10.8537 26.1614C10.7984 26.1103 10.6271 26.0741 10.4447 26.0774C10.1739 26.084 9.91426 26.1021 9.68768 26.0363C9.55505 25.9984 9.38922 25.9721 9.24001 25.9391C8.95264 25.8716 8.66526 25.8025 8.26184 25.847C7.98552 25.8305 7.7921 25.7712 7.57105 25.7251C7.20079 25.6494 7.16763 25.6379 7.43289 25.5572C7.73131 25.4667 7.49916 25.3482 7.66495 25.2593C7.8418 25.1638 8.08504 25.0799 8.30056 24.991C8.35583 24.9679 8.40559 24.9465 8.46085 24.9235C8.33374 24.8906 8.21771 24.8494 8.0685 24.8264C7.87508 24.7967 7.7756 24.7605 7.78665 24.6585C7.74797 24.6436 7.76443 24.6815 7.80864 24.6914C7.85838 24.7012 7.98005 24.693 8.04084 24.6815C8.19558 24.6502 8.27287 24.6091 8.23418 24.5745C8.21208 24.5564 8.10716 24.5333 8.04084 24.5333C7.91926 24.5333 7.81428 24.5696 7.78112 24.6585C7.16217 24.7259 6.52101 24.7589 5.87996 24.7852C5.81364 24.7885 5.7308 24.7556 5.65343 24.7391C5.39922 24.6831 5.39918 24.6848 4.65313 24.6683C4.57576 24.6667 4.47081 24.6436 4.43213 24.6206C4.27187 24.5202 4.27744 24.4099 4.20007 24.3029C4.34375 24.2337 4.48732 24.1663 4.63653 24.0988C4.93496 23.9621 5.32189 23.842 5.55399 23.6922C5.50426 23.6115 5.43793 23.5309 5.68109 23.465C6.37188 23.3827 6.3664 23.3827 6.55429 23.3037C7.09035 23.0798 7.62084 22.8543 8.179 22.6337C8.32821 22.5761 8.32823 22.5448 8.06297 22.5201C7.98007 22.5135 7.89153 22.5119 7.80311 22.5152C7.5268 22.5267 7.25048 22.5563 6.97969 22.5497C6.7089 22.5448 6.50996 22.4724 6.2889 22.4279C6.06232 22.3818 5.83575 22.3341 5.60917 22.2864C5.34944 22.2913 5.08975 22.3374 4.83001 22.2633C4.63106 22.2057 4.38239 22.1646 4.15581 22.1168C4.32713 21.9917 4.64771 21.8962 4.89639 21.7859C5.12297 21.6855 5.12837 21.6872 5.73627 21.6098C6.02364 21.5736 6.12312 21.3876 5.87996 21.3333C5.58706 21.2674 5.27765 21.2065 4.97923 21.1439C4.71949 21.1489 4.45428 21.1933 4.2056 21.1193C4.01218 21.0633 3.79108 21.0254 3.47055 21.0468C2.92897 21.083 2.37636 21.1012 1.82925 21.1308C1.64135 21.1407 1.43682 21.1341 1.35392 21.0781C1.29866 21.0386 1.45894 20.9843 1.6413 20.9728C1.91762 20.9563 2.16628 20.9366 2.30444 20.8542C2.43707 20.7719 2.6802 20.7472 2.96757 20.7357C3.04494 20.7324 3.13343 20.7127 3.17211 20.6929C3.37106 20.5974 3.59213 20.5151 4.01766 20.5184C4.1945 20.4855 4.28839 20.4443 4.23312 20.4048C4.19997 20.3834 4.08397 20.3555 4.01766 20.3588C3.55897 20.3752 3.1003 20.3917 2.65267 20.4213C2.44267 20.4345 2.28232 20.4378 2.14968 20.3884C2.05574 20.3555 2.10547 20.311 2.28231 20.2633C2.43705 20.2221 2.48131 20.1744 2.47025 20.1184C2.44262 19.9884 2.2768 19.9505 1.74627 19.9587C1.36496 19.9653 1.271 19.9439 1.18811 19.832C1.166 19.8056 1.11084 19.7694 1.14952 19.7513C1.38715 19.6394 1.5419 19.5011 1.98953 19.4484C2.16638 19.4287 2.3542 19.4287 2.46472 19.3859C2.57525 19.3431 2.67477 19.2937 2.79083 19.2525C2.93451 19.2032 3.03389 19.1571 2.96757 19.1258C2.85704 19.0698 2.68026 19.0649 2.47579 19.0847C2.29894 19.1011 2.11105 19.1027 1.92868 19.1126C1.60263 19.1307 1.33743 19.0879 1.29874 19.0155C1.19374 18.8246 1.08318 18.6353 0.989235 18.4443C0.978183 18.4213 1.00574 18.3916 1.04995 18.3719C1.20469 18.3027 1.37054 18.2369 1.53081 18.1694C1.7187 18.092 2.01717 18.1068 2.27138 18.092C2.63059 18.0706 2.63047 18.0723 3.11126 17.9142C3.29916 17.8517 3.62523 17.8764 3.81865 17.8204C3.87944 17.8023 3.97339 17.7727 3.95681 17.7562C3.9347 17.7348 3.82423 17.7183 3.74134 17.7085C3.66397 17.6986 3.57004 17.6937 3.48715 17.6986C2.48136 17.7463 1.48112 17.7974 0.475324 17.8435C0.304008 17.8517 0.116107 17.8155 0.0553173 17.7645C-0.00547236 17.7167 0.0110527 17.6591 0 17.6048C0.160264 17.5373 0.342563 17.4747 0.480721 17.4023C0.585721 17.3463 0.707322 17.3216 0.917323 17.3183C1.19364 17.3134 1.46446 17.2936 1.77393 17.2788C2.34867 17.0385 2.91232 16.7866 3.53127 16.5463C3.77995 16.4492 3.71926 16.3504 3.769 16.2467C3.81873 16.1512 4.18898 16.1661 4.43766 16.1381C4.63661 16.115 4.70284 16.0623 4.62547 16.0261C4.58126 16.0047 4.48184 15.98 4.40447 15.98C4.2221 15.98 4.03974 15.9948 3.85737 16.0031C3.675 16.0113 3.46501 16.0064 3.3158 16.0344C3.17212 16.0607 3.07811 16.1167 2.98417 16.1644C2.87917 16.2171 2.7411 16.2352 2.5311 16.2385C2.26031 16.2418 1.98954 16.2566 1.71875 16.2681C1.42033 16.2039 1.11079 16.1414 0.823418 16.0739C0.768155 16.0607 0.757043 16.0228 0.762569 15.9982C0.773622 15.934 0.690749 15.8944 0.50838 15.8632C0.353642 15.8368 0.226526 15.799 0.082841 15.766C0.193368 15.7216 0.31499 15.6788 0.403412 15.631C0.596833 15.5306 0.840019 15.4582 1.26002 15.4615C1.42581 15.3973 1.5584 15.3183 1.77393 15.2739C1.97841 15.2311 2.32658 15.2738 2.48132 15.1767C2.55869 15.129 2.6748 15.0747 2.82402 15.0549C3.06165 15.0236 3.37112 15.0401 3.50928 14.9479C3.59217 14.8952 3.7137 14.8475 3.87397 14.8343C4.05633 14.8195 4.24418 14.8162 4.37681 14.785C4.44866 14.7685 4.52603 14.7422 4.52603 14.7191C4.52603 14.7043 4.41559 14.6812 4.33823 14.6714C4.26638 14.6598 4.17233 14.6516 4.08943 14.6549C3.81312 14.6648 3.54233 14.6829 3.26601 14.6928C3.18865 14.6961 3.10025 14.6845 3.01736 14.6747C2.7742 14.6483 2.79074 14.6154 2.98417 14.5561C3.17759 14.4985 3.31582 14.4244 3.47609 14.3569C3.65293 14.3454 3.87395 14.3504 3.99553 14.3191C4.2 14.2681 4.34365 14.194 4.50944 14.1298C4.69181 14.1199 4.87969 14.1166 5.05101 14.0985C5.12285 14.0919 5.15604 14.0557 5.21683 14.0343C5.32735 13.9932 5.42138 13.9339 5.57059 13.9141C5.81375 13.8845 6.11216 13.896 6.25585 13.8055C6.33874 13.7528 6.4658 13.6969 6.62054 13.6936C7.05159 13.687 7.23396 13.5964 7.45502 13.5108C7.62081 13.4466 7.9745 13.4796 8.15687 13.4154C8.27845 13.3742 8.36693 13.3232 8.48851 13.2837C8.53824 13.2672 8.64321 13.259 8.7261 13.254C9.17926 13.2294 9.63793 13.2112 10.0911 13.1849C10.1629 13.18 10.2293 13.1553 10.2846 13.1355C10.4006 13.0927 10.4724 13.0335 10.6161 13.0055C10.7597 12.9775 10.9642 12.9775 11.141 12.9693C11.7103 12.9446 11.7545 12.9511 12.0142 12.8112C12.2242 12.6976 12.7383 12.7783 12.9096 12.6532C13.009 12.5808 13.1913 12.5215 13.5174 12.5133C13.9761 12.5018 14.4292 12.4705 14.8879 12.4491C15.2969 12.4293 15.2913 12.4293 15.7335 12.2762C15.9324 12.2071 16.2254 12.217 16.4851 12.2038C16.7614 12.1906 17.0156 12.1709 17.1482 12.0886C17.2809 12.0079 17.524 11.9816 17.8058 11.9701C18.0656 11.9585 18.3585 11.9668 18.563 11.9009C19.0604 11.7429 19.0549 11.7412 19.403 11.7248C19.9501 11.6984 20.4972 11.6721 21.0443 11.6441C21.4091 11.626 21.7904 11.6227 22.133 11.5865C22.3817 11.5602 22.4922 11.468 22.6524 11.4038C23.1056 11.3791 23.5587 11.3544 24.0119 11.3314C24.6474 11.2984 25.2885 11.2688 25.9295 11.2375C26.2058 11.175 26.2446 11.0367 26.7088 11.0301C26.9851 11.0268 27.2559 11.0054 27.5322 10.9923C27.9909 10.9692 28.4441 10.9396 28.9028 10.9281C29.2509 10.9198 29.3116 10.8309 29.494 10.775C29.5548 10.7552 29.6101 10.7272 29.6819 10.7223C30.4003 10.6762 31.1408 10.6663 31.8427 10.5988C31.9145 10.5922 31.9808 10.5577 31.9974 10.533C32.0085 10.5198 31.9145 10.4951 31.8537 10.4836C31.7819 10.4704 31.688 10.4573 31.6106 10.4606C29.3282 10.5709 27.0459 10.6828 24.7635 10.7931C24.443 10.8095 24.443 10.8079 23.6638 10.989C23.5975 11.0038 23.52 11.0202 23.4371 11.0252C23.0724 11.0449 22.7021 11.0565 22.3429 11.0812C22.05 11.1009 21.807 11.0811 21.597 11.0219C21.4477 10.9791 21.2929 10.9659 21.105 10.9692C20.895 10.9741 20.757 10.9923 20.6354 11.0367C20.4751 11.0976 20.3922 11.1766 20.0551 11.1931C18.5022 11.2639 16.9492 11.3429 15.4018 11.4186C15.1863 11.3956 15.0813 11.361 15.1366 11.3198C15.1697 11.2951 15.2361 11.2622 15.3024 11.2589C15.9379 11.2244 16.5789 11.1947 17.2145 11.1618C17.3029 11.1569 17.4245 11.1602 17.4742 11.1437C17.7174 11.0696 17.8059 10.9494 18.2646 10.9412C18.5298 10.9363 18.8006 10.9116 19.0548 10.8886C19.1266 10.882 19.193 10.8474 19.2095 10.8227C19.2151 10.8095 19.1266 10.7848 19.0603 10.7733C18.8172 10.7256 18.5354 10.7832 18.2922 10.7503C18.2093 10.7388 18.0932 10.7223 18.0766 10.7025C18.0656 10.6844 18.1595 10.6548 18.2258 10.6367C18.2866 10.6202 18.3695 10.6054 18.4524 10.6005C19.1818 10.5626 19.9114 10.5231 20.6409 10.4935C20.9393 10.482 21.1493 10.4408 21.2819 10.3651C21.3814 10.3091 21.503 10.2795 21.6909 10.2713C22.9674 10.2103 24.244 10.1429 25.5261 10.0869C25.8466 10.0737 26.0125 10.0194 26.1451 9.94862C26.2501 9.89265 26.3717 9.87289 26.5762 9.86301C28.4054 9.77742 30.2235 9.68194 32.0527 9.59964C32.3898 9.58482 32.4894 9.51404 32.6607 9.45313C32.7215 9.43173 32.7601 9.40539 32.8374 9.39222C32.9148 9.37905 33.0143 9.38069 33.1082 9.37739C34.5672 9.30661 36.0262 9.2309 37.4907 9.16506C37.8333 9.15024 37.8995 9.06792 38.0764 9.01031C38.1372 8.9922 38.1925 8.96258 38.2643 8.95764C39.3585 8.90167 40.4527 8.849 41.5469 8.79468C42.2764 8.75846 43.0059 8.72224 43.7353 8.68767C44.0946 8.67121 44.0946 8.66956 44.5809 8.51317C44.6362 8.49507 44.7136 8.47366 44.7854 8.46873C46.8854 8.36337 48.9799 8.26298 51.0799 8.15927C51.2567 8.15104 51.3838 8.11316 51.4722 8.05719C51.5606 8.00122 51.6878 7.96336 51.8592 7.95513C53.5005 7.87283 55.1418 7.79217 56.7886 7.7148C57.087 7.70163 57.297 7.66212 57.4296 7.58805C57.5291 7.53208 57.6507 7.50246 57.8386 7.49423C59.4799 7.41521 61.1213 7.33125 62.7681 7.25553C63.0831 7.24071 63.2378 7.18475 63.3925 7.1189C63.4478 7.09586 63.4921 7.05799 63.5584 7.0547C64.3763 7.00861 65.1886 6.96087 66.012 6.92959C66.3547 6.91643 66.4708 6.84728 66.6089 6.78144C66.7194 6.72876 66.8466 6.71066 67.0566 6.70408C67.5153 6.68926 67.9684 6.66129 68.416 6.6333C68.4824 6.62836 68.5653 6.59215 68.5708 6.5691C68.5818 6.5263 68.4547 6.49667 68.2447 6.48185C66.0563 6.58885 63.8624 6.69584 61.6739 6.80284C61.3147 6.82095 61.3147 6.82096 60.8284 6.97734C60.7731 6.99545 60.6957 7.01685 60.6183 7.02179C58.5183 7.12549 56.4239 7.22756 54.3239 7.33126C54.147 7.33949 54.02 7.37735 53.9315 7.43332C53.8431 7.48929 53.7159 7.52715 53.5446 7.53538C51.5385 7.63415 49.5325 7.73457 47.5209 7.8284C47.2225 7.84157 47.0126 7.87941 46.8799 7.95513C46.7805 8.0111 46.6589 8.04074 46.471 8.04897C44.5533 8.14116 42.6412 8.23827 40.718 8.32716C40.5246 8.33539 40.381 8.28765 40.392 8.24321C40.3975 8.22016 40.4803 8.18232 40.5466 8.17902C41.5469 8.1247 42.5417 8.06873 43.5475 8.02757C43.8846 8.0144 43.984 7.94197 44.1553 7.88106C44.2106 7.85966 44.2549 7.83168 44.3267 7.82016C44.4041 7.80699 44.5035 7.80864 44.5975 7.80535C46.9683 7.68847 49.3391 7.56996 51.7155 7.45966C52.0581 7.4432 52.1243 7.36253 52.3012 7.30492C52.3619 7.28516 52.4173 7.25554 52.4891 7.25225C53.2186 7.21274 53.948 7.17817 54.6775 7.1436C55.9541 7.08105 57.2306 7.01849 58.5128 6.95594C58.883 6.93783 58.883 6.93782 59.3583 6.78309C59.4136 6.76498 59.491 6.74195 59.5628 6.73866C62.9394 6.5724 66.3161 6.40614 69.6926 6.24152C69.8695 6.23329 69.9966 6.19543 70.085 6.13946C70.1734 6.08514 70.3005 6.04563 70.4718 6.03576C75.0366 5.81188 79.5958 5.588 84.1606 5.36742C84.459 5.3526 84.6689 5.31803 84.8016 5.24066C84.8955 5.18469 85.0226 5.15507 85.2105 5.14519C90.2284 4.89992 95.2463 4.65465 100.27 4.40773C103.646 4.24311 107.023 4.07521 110.4 3.91389C110.709 3.89907 110.875 3.84803 111.03 3.78054C111.079 3.7575 111.129 3.71963 111.195 3.71634C111.919 3.67519 112.643 3.63733 113.367 3.59947C113.594 3.64392 113.82 3.68672 114.047 3.73117C114.218 3.66862 114.384 3.60441 114.555 3.54186C115.65 3.49412 116.727 3.42005 117.832 3.397C117.904 3.39535 117.982 3.42664 118.059 3.4431C118.573 3.5468 118.866 3.53857 119.192 3.4003C119.308 3.35091 119.407 3.30647 119.584 3.29824C120.131 3.26861 120.684 3.24885 121.226 3.21428C121.519 3.19617 121.762 3.21263 121.972 3.27189C122.121 3.31469 122.276 3.33281 122.458 3.32293C123.464 3.27355 124.464 3.2258 125.47 3.17313C125.542 3.16984 125.608 3.14184 125.663 3.12209C125.779 3.07929 125.879 3.03321 125.989 2.98876C126.139 3.01675 126.304 3.03815 126.426 3.07436C126.581 3.11716 126.724 3.11715 126.934 3.10563C130.946 2.90645 134.964 2.71221 138.976 2.51138C139.319 2.49492 139.468 2.56406 139.7 2.60028C139.778 2.61345 139.855 2.6299 139.938 2.63319C140.026 2.63648 140.12 2.62662 140.209 2.62168C143.22 2.47353 146.232 2.32701 149.244 2.17886C149.642 2.1591 149.642 2.1591 150.233 2.26116C150.305 2.27433 150.399 2.28915 150.477 2.28421C151.847 2.22001 153.218 2.15088 154.583 2.08504C154.759 2.07681 154.909 2.10314 155.069 2.141C155.384 2.21508 155.406 2.21508 155.638 2.10644C155.749 2.05541 155.865 2.02412 156.047 2.0093C156.246 1.99284 156.406 1.9978 156.561 2.02743C156.782 2.06858 156.942 2.13771 157.28 2.1196C158.738 2.04223 160.203 1.97804 161.656 1.89902C161.988 1.88092 162.165 1.93688 162.386 1.97803C162.463 1.99285 162.535 2.0159 162.618 2.02084C162.701 2.02577 162.8 2.01424 162.889 2.0093C164.712 1.92041 166.542 1.83318 168.36 1.73771C168.702 1.7196 168.852 1.79037 169.084 1.82658C169.161 1.83975 169.249 1.86281 169.321 1.85952C170.415 1.80849 171.515 1.75415 172.61 1.69983C173.002 1.68007 173.002 1.68172 173.599 1.78213C173.67 1.7953 173.765 1.80847 173.842 1.80518C175.118 1.74428 176.401 1.68172 177.677 1.61917C178.07 1.59942 178.07 1.59942 179.202 1.68502C179.285 1.6916 179.374 1.70149 179.457 1.6982C180.916 1.62742 182.38 1.55827 183.839 1.48255C184.132 1.46773 184.375 1.4809 184.585 1.54016C184.734 1.58296 184.889 1.60107 185.071 1.5912C186.713 1.51054 188.36 1.43317 189.995 1.34757C190.31 1.33111 190.515 1.36731 190.736 1.41505C190.808 1.43151 190.88 1.45456 190.962 1.46115C191.045 1.46773 191.139 1.46114 191.228 1.4562C192.869 1.37554 194.516 1.29982 196.152 1.21258C196.483 1.19447 196.66 1.25044 196.881 1.29159C196.959 1.30641 197.041 1.33604 197.108 1.33439C197.749 1.30641 198.39 1.28172 199.025 1.24057C199.368 1.21752 199.517 1.29323 199.749 1.32945C199.827 1.34097 199.915 1.36567 199.987 1.36238C201.357 1.29818 202.728 1.2307 204.093 1.16156C204.286 1.15168 204.43 1.16648 204.585 1.20928C204.789 1.2669 205.027 1.28994 205.325 1.27184C205.961 1.23398 206.602 1.20765 207.243 1.17637C207.619 1.15826 207.619 1.15827 208.768 1.24387C208.851 1.25045 208.94 1.26032 209.023 1.25703C210.117 1.20435 211.216 1.15332 212.305 1.09571C212.598 1.07925 212.841 1.09406 213.051 1.15332C213.2 1.19612 213.35 1.21424 213.537 1.20436C214.543 1.15498 215.544 1.10559 216.549 1.0562C216.914 1.0381 217.279 1.00681 217.644 1.00681C217.909 1.00846 218.102 1.08747 218.34 1.12698C218.406 1.1385 218.517 1.12535 218.605 1.12205C219.882 1.0595 221.164 1.00188 222.435 0.931096C222.766 0.912989 222.943 0.968954 223.164 1.01011C223.242 1.02492 223.325 1.05455 223.391 1.05291C223.85 1.0348 224.303 1.01011 224.761 0.988707C225.309 0.962369 225.861 0.942615 226.403 0.9064C226.845 0.87677 227.011 1.01998 227.364 1.02492C227.635 1.02986 227.911 1.00188 228.182 0.988707C228.729 0.962369 229.276 0.932742 229.824 0.909696C230.017 0.901465 230.166 0.875116 230.227 0.815855C230.238 0.804332 230.144 0.779651 230.083 0.764835C229.348 0.59693 229.348 0.596922 228.608 0.633137C228.149 0.656183 227.696 0.679233 227.237 0.698986C227.16 0.702278 227.072 0.68911 226.994 0.679233C226.773 0.651249 226.795 0.61833 226.983 0.559069C227.171 0.499808 227.315 0.427385 227.475 0.359893C227.701 0.402693 227.923 0.445477 228.149 0.488276C228.332 0.480046 228.514 0.470183 228.696 0.461953C229.608 0.419153 230.52 0.374704 231.432 0.335197C231.498 0.331905 231.581 0.364832 231.658 0.381294C231.879 0.429032 232.078 0.470174 232.399 0.452066C233.217 0.404328 234.04 0.36976 234.858 0.328606C235.217 0.310499 235.217 0.3105 235.847 0.412561C235.919 0.424084 236.013 0.437253 236.09 0.433961C236.914 0.3961 237.732 0.354952 238.555 0.315444C238.732 0.307214 238.903 0.328613 239.031 0.37635C239.08 0.396104 239.069 0.42902 239.279 0.698986C239.931 0.917922 240.379 0.894887 240.832 0.875134C241.026 0.866903 241.197 0.858664 241.324 0.825742C241.39 0.807634 241.473 0.781292 241.473 0.759892C241.473 0.743431 241.352 0.717088 241.274 0.713796C240.727 0.680873 240.208 0.75002 239.672 0.764835C239.423 0.77142 239.207 0.713804 239.163 0.619975C239.152 0.593637 239.135 0.565654 239.119 0.539316C239.102 0.512978 239.091 0.484995 239.075 0.458657C238.859 0.450426 238.732 0.480052 238.638 0.536021C238.561 0.582112 238.45 0.634789 238.301 0.659481C238.152 0.685819 237.947 0.680889 237.765 0.68912C237.588 0.69735 237.395 0.718748 237.229 0.707225C237.063 0.694056 236.93 0.64631 236.776 0.616679C236.704 0.601864 236.616 0.580473 236.544 0.583765C235.908 0.611749 235.278 0.639723 234.648 0.675938C234.317 0.695691 234.151 0.626564 233.941 0.583765C233.775 0.550842 233.609 0.559062 233.581 0.634784C233.51 0.815859 233.764 0.891577 234.328 0.857008C234.792 0.827378 235.212 0.822455 235.577 0.934392C235.626 0.949207 235.742 0.955789 235.814 0.952497C236.267 0.932743 236.715 0.908049 237.168 0.888295C237.251 0.885003 237.34 0.891577 237.417 0.898162C238.544 0.987053 238.544 0.988708 238.926 0.968954C239.108 0.959077 239.285 0.950846 239.268 0.700634C239.616 0.432314 240.169 0.41421 240.705 0.374703C241.053 0.350011 241.202 0.422444 241.429 0.460305C241.506 0.473474 241.589 0.499807 241.661 0.496515C242.849 0.442193 244.032 0.38457 245.214 0.323663C245.413 0.313786 245.557 0.323665 245.712 0.366464C245.911 0.420786 246.132 0.455362 246.447 0.435609C247.077 0.396102 247.718 0.371415 248.359 0.338493C248.685 0.322031 248.685 0.322014 249.343 0.424075C249.414 0.435598 249.508 0.448767 249.586 0.445475C250.227 0.417491 250.862 0.382933 251.498 0.353302C251.675 0.345072 251.835 0.368115 251.973 0.412561C252.111 0.457006 252.277 0.48005 252.448 0.471819C253.09 0.442189 253.725 0.409276 254.361 0.379646C254.438 0.376354 254.532 0.387876 254.604 0.399399C255.278 0.501459 255.278 0.501442 255.587 0.484981C256.041 0.460289 256.505 0.448779 256.952 0.415856C257.389 0.382933 257.616 0.478401 257.914 0.531077C258.732 0.493216 259.555 0.461948 260.368 0.415856C260.699 0.396102 260.876 0.45042 261.097 0.493219C261.174 0.508035 261.252 0.539314 261.324 0.537668C261.6 0.531084 261.871 0.51298 262.142 0.49981C262.412 0.486641 262.689 0.473474 262.96 0.460305C263.269 0.508043 263.474 0.619978 263.916 0.582117C264.181 0.559071 264.463 0.554133 264.733 0.540964C265.004 0.527795 265.281 0.514627 265.551 0.501458C265.734 0.493228 265.922 0.488282 266.098 0.473467C266.425 0.448775 266.585 0.529445 266.817 0.56566C266.894 0.577183 266.983 0.596923 267.055 0.593631C267.602 0.570585 268.154 0.550833 268.69 0.512972C269.105 0.483342 269.387 0.532732 269.68 0.60187C269.74 0.616685 269.845 0.624915 269.923 0.621623C270.564 0.593638 271.199 0.55906 271.835 0.52943C272.006 0.521199 272.172 0.547536 272.31 0.590336C272.454 0.634781 272.614 0.656197 272.791 0.647966C273.426 0.618336 274.068 0.585404 274.703 0.555773C274.78 0.552481 274.874 0.565653 274.946 0.578822C275.565 0.680882 275.565 0.68253 275.93 0.662776C276.018 0.657838 276.112 0.654532 276.201 0.649594C276.654 0.626548 277.124 0.618329 277.566 0.578822C278.074 0.534376 278.444 0.590347 278.804 0.684177C279.257 0.664423 279.721 0.652898 280.163 0.619975C280.495 0.595283 280.671 0.657833 280.892 0.698986C280.97 0.713801 281.053 0.743432 281.119 0.740139C281.76 0.712155 282.401 0.687472 283.031 0.646319C283.374 0.623273 283.523 0.697335 283.755 0.735196C283.832 0.748365 283.915 0.771423 283.987 0.768131C284.352 0.754962 284.717 0.735199 285.081 0.717091C285.507 0.695691 285.507 0.697336 286.071 0.79775C286.336 0.845488 286.601 0.807625 286.861 0.796102C287.137 0.782933 287.397 0.77306 287.618 0.840551C287.756 0.883351 287.922 0.909689 288.093 0.903105C288.458 0.88829 288.828 0.873482 289.188 0.84879C289.475 0.829036 289.724 0.842198 289.934 0.903105C290.083 0.945904 290.238 0.967317 290.42 0.95744C291.238 0.917933 292.061 0.876764 292.879 0.838903C292.951 0.835611 293.05 0.850432 293.117 0.865247C293.271 0.894877 293.421 0.927793 293.57 0.960716C293.929 0.9459 294.299 0.939333 294.653 0.916287C295.029 0.893241 295.371 0.885008 295.664 0.975545C295.725 0.995299 295.814 1.02327 295.885 1.02162C296.162 1.01504 296.432 0.998581 296.703 0.985412C296.974 0.972243 297.25 0.959075 297.521 0.945906C297.836 0.987059 298.035 1.10558 298.477 1.06772C298.743 1.04467 299.024 1.03973 299.295 1.02656C299.566 1.0134 299.842 0.998582 300.113 0.987059C300.202 0.983767 300.301 0.975532 300.378 0.982116C300.461 0.988701 300.533 1.01175 300.605 1.02821C300.826 1.07595 301.03 1.12369 301.345 1.09571C301.611 1.07266 301.893 1.06772 302.163 1.05291C302.534 1.0348 302.534 1.0348 303.147 1.13851C303.396 1.18131 303.678 1.12534 303.915 1.16156C304.075 1.18625 304.214 1.2274 304.368 1.25538C304.435 1.2669 304.54 1.27183 304.617 1.26854C304.982 1.25373 305.352 1.23892 305.711 1.21423C306.004 1.19447 306.247 1.21422 306.452 1.27348C306.601 1.31628 306.75 1.3344 306.938 1.32452C307.85 1.27843 308.762 1.23891 309.668 1.18788C309.978 1.16978 310.226 1.19777 310.398 1.25703C310.69 1.35909 311.105 1.23892 311.409 1.32123C311.597 1.37226 311.785 1.43152 312.127 1.40683C312.757 1.36403 313.398 1.34097 314.034 1.31134C314.26 1.35579 314.487 1.40024 314.719 1.44469C315.084 1.42658 315.449 1.40846 315.813 1.392C316.084 1.37883 316.36 1.36402 316.631 1.3525C316.72 1.3492 316.814 1.34262 316.897 1.35085C316.979 1.35908 317.046 1.38048 317.123 1.39694C317.504 1.47761 317.504 1.47926 318.134 1.44634C318.405 1.43152 318.665 1.42164 318.892 1.48749C319.102 1.5484 319.35 1.55991 319.638 1.54181C320.179 1.50888 320.726 1.48419 321.279 1.46115C321.45 1.45292 321.61 1.4809 321.754 1.5237C321.97 1.59119 322.235 1.58461 322.506 1.5665C322.865 1.54346 323.219 1.52041 323.523 1.6126C323.583 1.63235 323.677 1.66032 323.744 1.65867C324.197 1.64551 324.656 1.63564 325.098 1.60436C325.54 1.57308 325.755 1.67514 326.059 1.72452C326.512 1.70312 326.971 1.68172 327.424 1.66032C327.513 1.65538 327.618 1.64058 327.695 1.64881C328.021 1.68338 328.209 1.80683 328.657 1.76897C328.916 1.74757 329.198 1.741 329.469 1.73606C329.541 1.73441 329.635 1.76238 329.685 1.78378C329.712 1.7953 329.684 1.82658 329.651 1.84304C329.552 1.88913 329.43 1.93194 329.342 1.97968C329.331 1.98627 329.436 2.01589 329.497 2.02905C329.646 2.05868 329.817 2.05376 330.016 2.04059C330.187 2.02907 330.364 2.05211 330.486 2.10149C330.536 2.12125 330.519 2.15417 330.414 2.26281C330.414 2.34347 330.53 2.30725 330.569 2.25457C330.629 2.17885 330.513 2.15416 330.292 2.19532C330.138 2.22495 330.06 2.26775 330.099 2.30232C330.121 2.32043 330.226 2.34347 330.414 2.26281C330.9 2.16404 331.265 2.14595 331.63 2.12784C331.724 2.1229 331.834 2.10643 331.901 2.1163C332.138 2.15581 332.359 2.20356 332.591 2.248C332.857 2.23813 333.105 2.21342 333.365 2.27762C333.73 2.36816 333.746 2.35993 334.1 2.34182C334.282 2.33195 334.465 2.32373 334.647 2.3155C334.83 2.30727 334.973 2.33195 335.133 2.36981C335.459 2.44718 335.487 2.44718 335.703 2.34182C335.83 2.27762 335.918 2.25623 336.078 2.28586C336.609 2.38627 336.614 2.39285 337.068 2.36322C337.443 2.33853 337.797 2.33195 338.073 2.42578C338.261 2.49162 338.322 2.47681 338.471 2.40767C338.869 2.22495 339.052 2.22824 339.798 2.35993C340.146 2.42248 340.505 2.355 340.859 2.34677C341.157 2.34018 341.367 2.37968 341.389 2.48339C341.406 2.54759 341.456 2.59369 341.655 2.61509C341.732 2.62332 341.826 2.63484 341.903 2.63154C342.362 2.61179 342.815 2.58874 343.274 2.5657C343.506 2.55417 343.633 2.47682 343.589 2.37476C343.539 2.26611 343.627 2.22659 343.959 2.19532C344.158 2.17721 344.318 2.18051 344.479 2.21014C344.655 2.24307 344.606 2.2727 344.451 2.33196C344.081 2.47682 344.125 2.56569 344.6 2.66611C344.766 2.70068 344.898 2.73197 344.937 2.783C344.959 2.80933 344.937 2.8439 344.987 2.86365C345.258 2.97395 345.633 3.04474 346.053 3.09741C346.457 3.05297 346.733 3.12703 347.043 3.18629C347.286 3.23238 347.573 3.19289 347.833 3.17642C348.126 3.15832 348.369 3.17148 348.579 3.23239C348.728 3.27519 348.883 3.29493 349.065 3.2867C349.43 3.26859 349.8 3.25708 350.159 3.23074C350.469 3.20769 350.701 3.24062 350.895 3.29659C351.138 3.36737 351.409 3.31963 351.663 3.3295C352.005 3.34103 352.177 3.48753 352.624 3.44802C352.89 3.42497 353.166 3.41675 353.442 3.41016C353.514 3.40852 353.602 3.4365 353.663 3.45626C353.956 3.5468 354.299 3.54186 354.675 3.51552C354.934 3.49741 355.188 3.48096 355.443 3.54351C355.863 3.64886 356.327 3.74105 356.769 3.83817C356.83 3.91389 356.786 4.00277 357.101 4.04721C357.266 4.07026 357.421 4.10484 357.548 4.1427C357.703 4.18715 357.847 4.19867 358.046 4.18715C358.405 4.16411 358.781 4.15915 359.134 4.12952C359.46 4.10318 359.665 4.15752 359.864 4.20855C360.024 4.24971 360.173 4.26945 360.367 4.23982C360.566 4.21184 360.709 4.22994 360.87 4.27438C361.096 4.33529 361.113 4.32871 361.864 4.34682C361.942 4.34847 362.036 4.37315 362.08 4.39455C362.102 4.40607 362.052 4.43901 362.014 4.45547C361.964 4.47523 361.886 4.49826 361.815 4.5032C360.997 4.546 360.173 4.58386 359.355 4.62666C359.272 4.63159 359.184 4.64313 359.123 4.65959C359.057 4.6777 358.974 4.70237 358.974 4.72542C358.974 4.74188 359.085 4.76164 359.162 4.77316C359.405 4.81103 359.693 4.75341 359.93 4.79621C360.09 4.8242 360.223 4.8637 360.383 4.89003C360.449 4.90156 360.555 4.89992 360.638 4.89662C360.914 4.8851 361.185 4.86864 361.461 4.85877C361.538 4.85712 361.627 4.87359 361.699 4.88676C362.229 4.98553 362.229 4.98552 362.688 4.96412C362.87 4.95589 363.064 4.9312 363.235 4.94107C363.401 4.95095 363.544 4.9954 363.694 5.02338C364.003 5.08264 364.296 5.14025 364.318 5.26865C364.329 5.31804 364.511 5.36083 364.694 5.36412C364.871 5.36741 365.058 5.34932 365.241 5.33944C365.672 5.31969 365.672 5.31969 366.23 5.4201C366.385 5.44809 366.551 5.45137 366.75 5.43491C366.827 5.42833 366.921 5.43492 367.004 5.44315C367.275 5.46784 367.275 5.49911 367.098 5.55837C366.849 5.64562 366.871 5.65385 367.567 5.72793C367.833 5.75591 368.037 5.80859 368.258 5.85469C368.617 5.92876 368.612 5.92875 368.374 6.02587C368.319 6.04727 368.269 6.07032 368.214 6.09337C368.054 6.15757 367.927 6.2267 367.595 6.23328C367.23 6.23987 366.866 6.26622 366.501 6.28432C366.147 6.30243 366.053 6.34192 366.086 6.45386C366.125 6.58884 366.197 6.60366 366.833 6.60202C367.015 6.60202 367.175 6.61518 367.313 6.65963C367.247 6.7123 367.125 6.75346 366.949 6.76333C366.495 6.78803 366.037 6.80943 365.584 6.83083C365.219 6.84894 364.854 6.86704 364.489 6.88515C364.263 6.89667 364.119 6.98228 364.18 7.07775C364.213 7.13207 364.241 7.18639 364.268 7.24072C364.329 7.34936 364.445 7.37735 364.815 7.37241C364.909 7.37077 364.998 7.35759 365.086 7.36088C365.445 7.3724 365.617 7.50903 366.048 7.48105C366.407 7.458 366.783 7.45306 367.136 7.42343C367.463 7.3971 367.645 7.45637 367.871 7.50082C367.949 7.51563 368.032 7.54689 368.098 7.54525C368.557 7.52714 369.015 7.50905 369.463 7.47777C369.673 7.4646 369.8 7.47447 369.966 7.51398C370.364 7.60946 370.375 7.60452 370.966 7.57489C371.397 7.55184 371.403 7.55513 371.955 7.65554C372.11 7.68353 372.276 7.68352 372.475 7.67035C372.735 7.65389 373.005 7.62756 373.276 7.65225C373.359 7.65883 373.464 7.67859 373.492 7.69999C373.508 7.71481 373.431 7.75102 373.365 7.76255C372.878 7.84815 372.309 7.83333 371.779 7.8679C371.613 7.87778 371.447 7.8465 371.309 7.80205C371.165 7.75761 371.01 7.73951 370.823 7.74774C370.458 7.76585 370.088 7.77736 369.728 7.8037C369.419 7.82675 369.203 7.78888 368.988 7.73785C368.916 7.72139 368.833 7.69011 368.761 7.69175C367.943 7.72468 367.12 7.75761 366.308 7.8037C365.981 7.82345 365.794 7.77078 365.572 7.72634C365.495 7.71152 365.418 7.68024 365.346 7.68189C365.07 7.68847 364.799 7.70658 364.523 7.71975C363.517 7.76913 362.516 7.81852 361.511 7.86461C361.444 7.8679 361.361 7.83333 361.284 7.81851C361.135 7.78888 360.98 7.76089 360.825 7.73291C360.549 7.74608 360.278 7.76254 360.002 7.77241C359.803 7.779 359.626 7.80205 359.598 7.86461C359.582 7.90576 359.764 7.94361 359.958 7.94032C360.146 7.93703 360.334 7.91727 360.488 7.93867C361.256 8.04403 361.256 8.04568 361.737 8.02428C362.157 8.00452 362.113 7.98805 362.483 8.07859C362.643 8.1181 362.787 8.14116 362.97 8.13128C363.423 8.10823 363.881 8.08518 364.34 8.06543C364.412 8.06214 364.506 8.07861 364.578 8.09177C365.119 8.19054 365.119 8.19383 365.567 8.16914C366.153 8.13951 366.175 8.13128 366.567 8.23169C366.838 8.30083 367.087 8.25309 367.346 8.2498C367.645 8.314 367.971 8.37162 368.242 8.44405C368.562 8.52965 368.899 8.51482 369.264 8.49013C369.535 8.47202 369.8 8.46544 370.021 8.53293C370.231 8.59548 370.485 8.60208 370.773 8.58561C371.032 8.5708 371.298 8.53951 371.569 8.57573C371.64 8.5856 371.751 8.6103 371.745 8.62512C371.74 8.64817 371.668 8.68109 371.596 8.69097C371.088 8.75846 370.53 8.75681 369.994 8.78808C369.922 8.79302 369.828 8.77491 369.756 8.76174C369.601 8.73211 369.452 8.69755 369.303 8.66627C369.032 8.67615 368.756 8.67943 368.49 8.69919C368.286 8.714 368.131 8.71237 367.982 8.67286C367.844 8.63665 367.695 8.59219 367.529 8.58067C367.363 8.56915 367.17 8.59384 366.987 8.60372C366.805 8.6136 366.595 8.60865 366.451 8.63499C366.308 8.66132 366.219 8.71894 366.125 8.76504C366.02 8.81607 365.876 8.83254 365.666 8.83748C365.473 8.84242 365.318 8.83582 365.175 8.78973C365.114 8.76998 365.031 8.75516 364.948 8.74199C364.871 8.73047 364.782 8.71235 364.71 8.71564C363.887 8.75351 363.069 8.79467 362.246 8.83418C361.837 8.85394 361.842 8.85392 360.991 8.7568C360.914 8.74857 360.82 8.73705 360.742 8.74034C360.284 8.76009 359.831 8.78314 359.372 8.80619C358.908 8.82924 358.913 8.82594 358.123 8.72224C357.979 8.70248 357.769 8.72882 357.598 8.72553C357.239 8.7173 357.062 8.57903 356.642 8.60537C356.283 8.62841 355.907 8.63335 355.548 8.66298C355.222 8.68932 355.034 8.63171 354.813 8.58726C354.735 8.57245 354.652 8.53952 354.586 8.54281C353.763 8.57903 352.945 8.62018 351.851 8.62512C351.58 8.62512 351.701 8.65969 351.878 8.67122C352.132 8.68932 352.215 8.65475 352.077 8.58891C351.978 8.54282 351.834 8.51976 351.718 8.53128C351.657 8.53786 351.58 8.56915 351.851 8.62512C352.138 8.68767 352.121 8.72223 352.171 8.74199C352.293 8.78973 352.464 8.80948 352.641 8.80289C352.917 8.79137 353.188 8.77491 353.464 8.76504C353.542 8.76174 353.636 8.77327 353.707 8.78644C354.315 8.8885 354.321 8.89509 354.967 8.85558C355.172 8.84406 355.321 8.84406 355.481 8.87533C355.702 8.91813 355.863 8.99055 356.2 8.96751C356.647 8.93623 357.106 8.91814 357.565 8.90003C357.637 8.89674 357.714 8.92637 357.797 8.93954C358.023 8.97904 358.189 9.05312 358.526 9.02184C358.786 8.99715 359.068 8.99055 359.344 8.98561C359.416 8.98397 359.527 9.01031 359.56 9.03171C359.626 9.06957 359.543 9.11403 359.355 9.1453C359.278 9.15847 359.173 9.15517 359.085 9.16011C358.72 9.17822 358.355 9.19796 357.99 9.21278C357.797 9.22101 357.615 9.24571 357.592 9.30662C357.576 9.34777 357.775 9.38398 357.963 9.38069C358.239 9.37575 358.515 9.36258 358.781 9.34118C359.25 9.30497 359.659 9.31484 360.041 9.41855C360.311 9.49098 360.295 9.46465 360.582 9.67865C360.654 9.73297 360.87 9.7379 361.058 9.73461C361.511 9.72638 361.721 9.75108 361.682 9.80211C361.632 9.86466 361.472 9.8844 361.267 9.89263C360.903 9.9058 360.538 9.92721 360.173 9.94532C360.085 9.95026 359.985 9.96013 359.902 9.95683C359.82 9.95354 359.742 9.93379 359.67 9.91898C359.516 9.8877 359.383 9.83996 359.217 9.82843C359.051 9.81691 358.858 9.8416 358.676 9.85148C358.493 9.85971 358.3 9.8844 358.134 9.87288C357.968 9.86136 357.83 9.81199 357.681 9.78236C357.609 9.76754 357.521 9.74448 357.449 9.74613C357.084 9.75929 356.719 9.7807 356.355 9.79716C355.907 9.81856 355.907 9.81857 355.365 9.71651C355.211 9.68688 355.05 9.68853 354.846 9.7017C354.404 9.72803 354.398 9.72308 353.591 9.62761C353.514 9.61773 353.42 9.60621 353.343 9.61115C352.519 9.64901 351.701 9.69016 350.883 9.72967C350.182 9.76424 350.182 9.76425 349.795 9.92886C349.507 10.0507 349.502 10.0507 349.784 10.1066C350.01 10.1527 350.215 10.2202 350.463 10.2449C350.696 10.268 350.983 10.1939 351.237 10.2696C351.364 10.3075 351.53 10.3486 351.69 10.3552C351.944 10.3634 352.215 10.3157 352.458 10.3881C352.58 10.4243 352.763 10.4622 352.917 10.4639C353.188 10.4671 353.464 10.4408 353.735 10.4293C353.818 10.426 353.912 10.426 353.989 10.4342C354.072 10.4441 354.144 10.4639 354.216 10.4803C354.437 10.5363 354.675 10.5626 354.962 10.5346C355.432 10.4885 355.852 10.5116 356.216 10.6169C356.266 10.6318 356.388 10.6334 356.465 10.6268C356.664 10.6104 356.835 10.6087 356.985 10.64C357.045 10.6532 357.134 10.6762 357.123 10.691C357.106 10.7157 357.04 10.7486 356.968 10.7569C356.448 10.8128 355.89 10.8194 355.354 10.849C355.282 10.8523 355.194 10.8309 355.122 10.8161C354.967 10.7865 354.835 10.7371 354.669 10.7256C354.503 10.7141 354.31 10.7355 354.127 10.7437C353.945 10.7519 353.752 10.7766 353.586 10.7667C353.42 10.7552 353.265 10.7141 353.133 10.6778C352.978 10.6367 352.829 10.6318 352.624 10.6482C352.359 10.6696 352.083 10.6729 351.812 10.6844C351.663 10.6532 351.514 10.6186 351.359 10.5889C351.287 10.5741 351.199 10.556 351.121 10.5577C350.756 10.5708 350.392 10.5906 350.027 10.6087C349.662 10.6268 349.662 10.6268 349.043 10.5248C348.971 10.5132 348.877 10.5001 348.8 10.5034C348.341 10.5231 347.888 10.5478 347.43 10.5675C347.253 10.5758 347.092 10.5527 346.949 10.5083C346.811 10.4638 346.645 10.4391 346.473 10.4474C345.744 10.4819 345.015 10.5149 344.285 10.556C343.992 10.5725 343.743 10.5577 343.544 10.4984C343.312 10.4309 343.053 10.4474 342.782 10.4606C342.168 10.4935 342.163 10.4918 341.771 10.4079C341.693 10.3914 341.616 10.3601 341.544 10.3618C340.908 10.3865 340.267 10.4095 339.637 10.449C339.306 10.4704 339.129 10.4128 338.908 10.37C338.831 10.3552 338.748 10.3239 338.681 10.3272C338.223 10.3453 337.764 10.3618 337.316 10.3947C336.869 10.4276 336.697 10.2745 336.36 10.2762C335.902 10.2778 335.448 10.3157 334.995 10.3387C334.63 10.3569 334.266 10.375 333.901 10.3931C333.536 10.4112 333.172 10.426 332.807 10.4474C332.613 10.4589 332.47 10.4441 332.31 10.4029C332.105 10.3486 331.862 10.3058 331.641 10.2564C331.304 10.1857 331.304 10.1856 330.895 10.2054C330.806 10.2103 330.712 10.2136 330.624 10.2186C329.955 10.2548 329.955 10.2515 329.104 10.1478C329.066 10.1429 328.966 10.161 328.927 10.1741C328.811 10.2169 328.706 10.263 328.601 10.3075C328.452 10.2811 328.27 10.2663 328.17 10.2285C327.888 10.1215 327.446 10.268 327.159 10.1626C327.054 10.1231 326.872 10.0885 326.706 10.0786C326.534 10.0688 326.341 10.0918 326.164 10.1017C325.705 10.1264 325.705 10.1247 325.313 10.2713C325.114 10.3437 324.827 10.3305 324.567 10.347C324.296 10.3651 324.037 10.375 323.81 10.3075C323.605 10.2466 323.357 10.2317 323.064 10.2515C322.705 10.2762 322.335 10.291 321.97 10.3058C321.892 10.3091 321.798 10.3009 321.721 10.291C320.875 10.1939 320.875 10.1922 320.466 10.2136C320.284 10.2235 320.096 10.2268 319.919 10.2416C319.621 10.268 319.394 10.2334 319.179 10.1807C319.107 10.1642 319.024 10.133 318.952 10.1346C318.588 10.1429 318.228 10.1577 317.869 10.1725C317.593 10.184 317.317 10.1906 317.051 10.2136C316.609 10.2515 316.394 10.1445 316.09 10.0951C315.637 10.1165 315.178 10.1313 314.725 10.161C314.515 10.1741 314.377 10.1692 314.216 10.1297C314.012 10.0803 313.824 10.0243 313.492 10.049C313.05 10.082 312.586 10.0935 312.133 10.1132C311.829 10.0622 311.608 9.95848 311.171 9.99634C310.906 10.0194 310.624 10.0243 310.353 10.0375C309.989 10.0556 309.624 10.0721 309.259 10.0918C308.867 10.1116 308.872 10.1066 308.27 10.0095C307.922 9.95191 307.562 10.0161 307.209 10.026C306.932 10.0342 306.794 10.1099 306.861 10.2071C306.927 10.3042 306.778 10.3799 306.524 10.3931C305.888 10.4243 305.247 10.4573 304.611 10.4852C304.534 10.4885 304.44 10.477 304.368 10.4655C303.689 10.3618 303.689 10.3634 303.385 10.3783C302.931 10.4029 302.467 10.4161 302.02 10.4474C301.71 10.4688 301.484 10.4342 301.285 10.3783C301.13 10.3355 300.986 10.3256 300.787 10.3355C298.599 10.4457 296.41 10.5478 294.227 10.6614C293.901 10.6778 293.714 10.6301 293.493 10.5857C293.415 10.5709 293.343 10.5396 293.266 10.5396C293.084 10.5396 292.901 10.5544 292.719 10.5643C291.901 10.6038 291.083 10.6515 290.26 10.6811C289.911 10.6943 289.817 10.77 289.668 10.8326C289.552 10.8803 289.42 10.9001 289.215 10.9067C289.016 10.9132 288.872 10.905 288.718 10.8622C288.519 10.8062 288.292 10.7717 287.983 10.7947C287.624 10.821 287.259 10.8326 286.888 10.8507C286.701 10.8589 286.557 10.8885 286.496 10.9478C286.485 10.9577 286.601 10.9824 286.667 10.9972C286.889 11.0466 287.099 11.1042 287.347 11.1388C287.601 11.1733 287.878 11.1338 288.143 11.1239C288.237 11.1206 288.325 11.1108 288.414 11.1124C288.497 11.1141 288.596 11.1223 288.657 11.1371C288.944 11.2112 289.248 11.2622 289.646 11.2178C289.989 11.2392 290.166 11.3758 290.602 11.3396C290.868 11.3182 291.144 11.3083 291.42 11.3001C291.492 11.2984 291.569 11.3281 291.647 11.3429C291.868 11.384 292.045 11.4499 292.376 11.4219C292.73 11.3923 293.106 11.3873 293.465 11.3643C293.664 11.3511 293.807 11.3626 293.962 11.4054C294.161 11.4598 294.388 11.5009 294.697 11.4746C294.963 11.4515 295.244 11.4466 295.515 11.4318C295.869 11.4137 295.869 11.4153 296.499 11.5174C296.571 11.5289 296.665 11.5421 296.742 11.5388C297.201 11.519 297.654 11.4943 298.112 11.4746C298.289 11.4663 298.461 11.4877 298.582 11.5355C298.632 11.5552 298.615 11.5882 298.632 11.6161C297.72 11.6606 296.808 11.6984 295.902 11.7528C295.559 11.7742 295.405 11.7067 295.178 11.6688C295.101 11.6556 295.018 11.6277 294.946 11.631C294.305 11.6589 293.669 11.6886 293.034 11.7248C292.835 11.7363 292.686 11.7297 292.537 11.682C292.155 11.5552 291.691 11.6244 291.26 11.6425C290.928 11.6556 290.823 11.7067 290.862 11.8153C290.912 11.9437 291.111 11.9832 291.619 11.9602C291.801 11.952 291.984 11.9404 292.166 11.9338C292.343 11.9273 292.503 11.9487 292.647 11.9931C292.785 12.0375 292.951 12.0606 293.122 12.054C293.487 12.0392 293.857 12.0244 294.211 11.9997C294.504 11.9799 294.747 11.9964 294.951 12.0573C295.178 12.1248 295.443 12.11 295.709 12.0952C296.328 12.0622 296.333 12.0639 296.72 12.1462C296.797 12.1627 296.875 12.1939 296.947 12.1923C297.582 12.1676 298.223 12.1462 298.848 12.1067C299.174 12.0869 299.362 12.1396 299.577 12.1824C299.654 12.1972 299.732 12.2302 299.804 12.2269C300.262 12.2088 300.721 12.1906 301.169 12.1594C301.379 12.1445 301.506 12.1544 301.677 12.1939C302.086 12.291 302.097 12.2878 302.677 12.2565C302.854 12.2466 303.048 12.2285 303.213 12.2417C303.379 12.2548 303.512 12.3026 303.667 12.3322C303.738 12.3454 303.827 12.3635 303.904 12.3602C304.269 12.347 304.634 12.3273 304.998 12.3092C305.341 12.2911 305.341 12.2927 305.982 12.3948C306.242 12.4376 306.513 12.4013 306.772 12.3882C307.054 12.3734 307.308 12.3734 307.524 12.4376C307.739 12.5018 307.999 12.4985 308.276 12.4853C308.535 12.4721 308.8 12.4359 309.066 12.4804C309.674 12.5824 309.674 12.5841 310.049 12.5643C310.597 12.5363 311.138 12.51 311.691 12.4853C311.763 12.482 311.856 12.5018 311.928 12.5149C312.083 12.5446 312.216 12.5939 312.382 12.6055C312.547 12.6186 312.741 12.5989 312.918 12.589C313.487 12.5577 313.525 12.5462 313.907 12.6548C314.227 12.7437 314.625 12.6153 314.924 12.7174C315.095 12.775 315.327 12.8211 315.648 12.7931C315.913 12.7701 316.189 12.7635 316.465 12.7503C316.902 12.7289 316.902 12.7306 317.455 12.8293C317.527 12.8425 317.62 12.859 317.692 12.8557C318.057 12.8425 318.427 12.831 318.781 12.8014C319.196 12.7668 319.461 12.8293 319.77 12.8903C320.013 12.938 320.301 12.8985 320.561 12.882C320.842 12.8656 321.096 12.8705 321.307 12.9347C321.528 13.0005 321.787 12.9923 322.064 12.9791C322.323 12.9676 322.589 12.9297 322.854 12.9758C323.423 13.0779 323.423 13.0779 323.838 13.0581C324.202 13.04 324.567 13.0203 324.932 13.0071C325.004 13.0038 325.092 13.0252 325.164 13.04C325.319 13.0697 325.451 13.1191 325.617 13.1306C325.783 13.1421 325.976 13.1207 326.159 13.1125C326.341 13.1042 326.534 13.0796 326.7 13.0894C326.866 13.0993 327.021 13.1405 327.153 13.1767C327.308 13.2195 327.452 13.2244 327.662 13.2079C327.927 13.1865 328.203 13.1816 328.474 13.1701C328.623 13.2014 328.778 13.2326 328.922 13.2672C329.071 13.3034 329.231 13.3001 329.436 13.2886C330.115 13.2491 330.121 13.254 330.69 13.3561C330.95 13.4022 331.221 13.3643 331.481 13.3528C331.757 13.3396 332.017 13.3331 332.232 13.3989C332.442 13.4615 332.702 13.4697 332.978 13.4499C333.155 13.4368 333.343 13.4285 333.525 13.4236C333.608 13.422 333.708 13.4285 333.768 13.4417C334.061 13.5108 334.349 13.5734 334.752 13.529C335.106 13.5421 335.283 13.6771 335.708 13.6508C336.067 13.6277 336.443 13.6228 336.797 13.5931C337.123 13.5668 337.355 13.6129 337.521 13.6705C337.819 13.7726 338.239 13.6343 338.538 13.7347C338.709 13.7923 338.93 13.8384 339.262 13.8137C339.626 13.7874 339.742 13.822 339.847 13.9257C339.908 13.9849 339.897 14.0327 339.787 14.0788C339.676 14.1265 339.555 14.1183 339.378 14.0639C339.173 14.003 338.93 13.9915 338.637 14.0047C338.35 14.0178 338.173 13.9323 337.935 13.8993C337.698 13.8648 337.416 13.9224 337.167 13.8779C336.581 13.7742 336.581 13.7742 336.183 13.794C335.913 13.8071 335.631 13.8137 335.366 13.8368C335.051 13.8648 334.846 13.8137 334.631 13.7676C334.553 13.7512 334.476 13.7199 334.409 13.7215C333.774 13.7462 333.133 13.7693 332.503 13.8104C332.171 13.8318 331.995 13.7726 331.773 13.7314C331.696 13.7166 331.613 13.687 331.547 13.6903C331 13.7133 330.458 13.7429 329.911 13.7709C329.806 13.8154 329.69 13.8582 329.59 13.9059C329.485 13.9553 329.342 13.9767 329.132 13.975C328.784 13.975 328.441 14.0442 328.093 13.9569C327.734 13.8681 327.706 13.873 327.358 13.8944C326.916 13.9224 326.446 13.9158 326.032 13.98C325.96 13.9915 325.882 14.0228 325.882 14.0458C325.877 14.0606 325.993 14.082 326.065 14.0952C326.308 14.1347 326.59 14.0771 326.833 14.1183C326.993 14.1446 327.126 14.1841 327.286 14.2121C327.352 14.2236 327.452 14.222 327.54 14.2203C327.634 14.2187 327.723 14.2072 327.811 14.2088C327.894 14.2105 327.982 14.2203 328.049 14.2351C328.353 14.2977 328.673 14.3553 328.944 14.4294C329.209 14.5018 329.458 14.4524 329.723 14.4491C330.784 14.5644 330.784 14.566 331.497 14.5298C331.674 14.5216 331.856 14.5117 332.039 14.5133C332.116 14.5133 332.188 14.543 332.265 14.5594C332.486 14.6088 332.696 14.6533 333.006 14.6269C333.271 14.6039 333.553 14.5989 333.824 14.5841C334.188 14.566 334.188 14.566 334.807 14.6697C334.962 14.6961 335.128 14.6928 335.327 14.6796C335.498 14.6681 335.675 14.6928 335.797 14.7405C335.846 14.7603 335.83 14.7932 335.846 14.8212C335.299 14.8475 334.747 14.8656 334.216 14.9051C333.873 14.9298 333.719 14.859 333.492 14.8212C333.415 14.808 333.332 14.78 333.26 14.7833C332.718 14.808 332.177 14.836 331.635 14.8689C331.569 14.8722 331.486 14.91 331.481 14.9331C331.47 14.9759 331.608 15.017 331.807 15.0154C332.072 15.0138 332.332 14.9858 332.569 15.0533C332.768 15.1125 333.017 15.1389 333.31 15.1125C333.487 15.0977 333.675 15.0977 333.851 15.0845C334.321 15.045 334.747 15.0533 335.1 15.1652C335.371 15.1948 335.636 15.1669 335.896 15.152C336.09 15.1405 336.277 15.129 336.416 15.1603C336.708 15.2261 336.996 15.292 337.399 15.2475C337.836 15.2936 338.167 15.3907 338.532 15.4697C338.703 15.5076 338.836 15.529 339.035 15.5043C339.118 15.4944 339.217 15.4944 339.306 15.4895C339.488 15.4813 339.682 15.4566 339.847 15.4664C340.013 15.478 340.151 15.5257 340.301 15.5553C340.372 15.5701 340.455 15.5948 340.527 15.5932C340.803 15.585 341.074 15.5685 341.345 15.5553C341.616 15.5438 341.887 15.5323 342.157 15.5208C342.384 15.5636 342.616 15.6064 342.843 15.6492C343.207 15.6311 343.572 15.6129 343.931 15.5965C344.335 15.5767 344.335 15.5784 344.915 15.6804C345.175 15.7265 345.451 15.6969 345.7 15.6755C346.114 15.6409 346.391 15.7035 346.684 15.7693C346.744 15.7825 346.855 15.7907 346.927 15.7841C347.214 15.7611 347.463 15.7792 347.673 15.8401C347.822 15.8829 347.971 15.9027 348.153 15.8944C348.789 15.8632 349.424 15.8302 350.06 15.8023C350.137 15.799 350.226 15.8138 350.298 15.827C350.861 15.9274 350.867 15.9323 351.281 15.906C351.652 15.8829 351.994 15.873 352.287 15.9636C352.348 15.9833 352.442 16.0113 352.508 16.0097C352.961 15.9932 353.42 15.9751 353.868 15.9471C354.072 15.9339 354.216 15.9389 354.376 15.9768C354.581 16.0245 354.763 16.0821 355.1 16.0607C356.034 15.9998 356.04 16.0097 357.145 16.1232C357.222 16.1315 357.327 16.1183 357.416 16.1117C357.604 16.0953 357.742 16.1183 357.907 16.1562C358.278 16.2418 358.289 16.2368 358.642 16.2187C358.913 16.2039 359.195 16.2006 359.46 16.1759C359.869 16.1397 360.14 16.2039 360.444 16.2648C360.687 16.3126 360.969 16.2731 361.229 16.2582C361.511 16.2418 361.765 16.2467 361.975 16.3093C362.119 16.3521 362.273 16.3751 362.456 16.3669C363.091 16.3373 363.727 16.3043 364.362 16.2747C364.44 16.2714 364.534 16.2846 364.605 16.2961C365.235 16.3982 365.235 16.4031 365.86 16.3652C366.059 16.3537 366.225 16.3504 366.374 16.385C366.517 16.4179 366.672 16.4492 366.821 16.4805C367.092 16.4689 367.369 16.4657 367.634 16.4459C367.838 16.4311 367.982 16.4377 368.142 16.4722C368.352 16.5167 368.529 16.594 368.861 16.5562C369.032 16.5381 369.231 16.543 369.402 16.5266C369.607 16.5052 369.745 16.5183 369.905 16.5611C370.104 16.6121 370.309 16.6648 370.629 16.6385C370.983 16.6089 371.358 16.6039 371.718 16.5809C371.917 16.5677 372.055 16.5809 372.215 16.6237C372.414 16.678 372.641 16.7126 372.95 16.6912C373.58 16.65 373.586 16.6582 374.199 16.7619C374.354 16.7883 374.52 16.785 374.719 16.7718C374.89 16.7603 375.067 16.785 375.188 16.8327C375.304 16.8854 375.293 16.9183 375.304 16.9463ZM326.059 2.09985C325.877 2.10808 325.694 2.11795 325.429 1.97474C325.413 1.95005 325.424 1.92042 325.385 1.89902C325.297 1.85458 325.158 1.8233 324.993 1.81836C324.694 1.81178 324.335 1.86774 324.34 1.91054C324.346 1.94675 324.44 1.97802 324.622 2.00765C324.7 2.01918 324.761 2.03893 324.832 2.0521C325.042 2.08996 325.208 2.16405 325.512 2.12619C325.457 2.02413 325.484 2.07516 325.512 2.12619C325.484 2.18874 325.567 2.23319 325.766 2.2513C325.822 2.25624 325.904 2.25294 325.949 2.24306C326.12 2.20684 326.148 2.15747 326.02 2.02743C325.998 2.04883 326.015 2.08667 326.065 2.09655C326.114 2.10643 326.236 2.09821 326.297 2.08668C326.452 2.05541 326.529 2.01425 326.49 1.97968C326.468 1.96157 326.363 1.93853 326.297 1.93853C326.181 1.93853 326.076 1.97474 326.059 2.09985ZM370.745 21.19C370.342 21.2213 369.878 21.2098 369.474 21.274C369.402 21.2855 369.33 21.3152 369.325 21.3382C369.319 21.353 369.43 21.3744 369.496 21.3859C369.645 21.4123 369.811 21.404 370.005 21.3958C370.298 21.3843 370.469 21.46 370.695 21.4979C370.767 21.5094 370.861 21.5176 370.939 21.5143C371.386 21.4946 371.828 21.4732 372.276 21.4501C372.353 21.4452 372.436 21.4337 372.503 21.4189C372.724 21.3711 372.701 21.3399 372.486 21.3036C372.248 21.2641 372.06 21.1983 371.817 21.167C371.469 21.1225 371.115 21.1818 370.745 21.19ZM339.361 22.3917C339.09 22.4049 338.825 22.4181 338.554 22.4312C338.466 22.4362 338.372 22.4378 338.289 22.4444C338.118 22.4559 337.991 22.4905 337.908 22.5448C338.035 22.5876 338.19 22.6123 338.361 22.6074C338.632 22.5975 338.897 22.5761 339.168 22.5711C339.461 22.5646 339.632 22.6386 339.858 22.6765C339.93 22.688 340.019 22.6897 340.102 22.6913C340.511 22.6979 340.759 22.6123 340.682 22.4921C340.627 22.3983 340.417 22.3423 340.162 22.3539C339.897 22.3654 339.626 22.3786 339.361 22.3917ZM372.635 18.7571C372.701 18.7291 372.773 18.7093 372.807 18.6846C372.906 18.6007 372.867 18.5381 372.685 18.4723C372.464 18.3916 372.193 18.4459 371.944 18.4542C371.884 18.4558 371.817 18.4904 371.784 18.5118C371.762 18.5266 371.762 18.5579 371.795 18.5661C372.066 18.632 372.353 18.6929 372.635 18.7571ZM324.694 13.8944C324.429 13.9076 324.158 13.9174 323.893 13.9355C323.827 13.9405 323.766 13.9718 323.727 13.9932C323.655 14.0327 323.733 14.087 323.959 14.0919C324.219 14.0985 324.49 14.0705 324.76 14.0574C325.103 14.0409 325.308 13.98 325.18 13.9273C325.059 13.8763 324.893 13.8664 324.694 13.8944ZM33.7935 10.3766C33.9703 10.3684 34.1527 10.3618 34.3295 10.3503C34.4953 10.3387 34.6225 10.3025 34.7054 10.2482C34.5672 10.2054 34.4125 10.1824 34.2411 10.1873C33.9703 10.1972 33.7051 10.2103 33.4398 10.2268C33.2741 10.2367 33.1138 10.2729 33.0752 10.3289C33.0365 10.3717 33.4066 10.3964 33.7935 10.3766ZM301.323 10.1231C301.395 10.1379 301.467 10.1675 301.539 10.1675C301.716 10.1675 301.898 10.1577 302.064 10.1412C302.136 10.1346 302.191 10.105 302.224 10.0819C302.246 10.0671 302.241 10.0408 302.208 10.0276C302.047 9.94861 301.406 9.9766 301.301 10.0671C301.29 10.0836 301.318 10.105 301.323 10.1231ZM283.888 1.10887C283.904 1.13521 283.91 1.16154 283.932 1.18788C283.976 1.23727 284.098 1.27349 284.275 1.29818C284.413 1.25703 284.485 1.21094 284.479 1.16156C284.474 1.13522 284.457 1.10887 284.435 1.08253C284.391 1.03314 284.269 0.996942 284.092 0.97225C283.954 1.01176 283.888 1.05784 283.888 1.10887ZM385.406 22.6782C385.357 22.6996 385.307 22.721 385.252 22.7407C385.401 22.7884 385.539 22.8033 385.644 22.7769C385.71 22.7605 385.749 22.7358 385.799 22.7144C385.65 22.6666 385.517 22.6535 385.406 22.6782ZM381.969 22.902C382.041 22.9168 382.107 22.9366 382.185 22.9465C382.312 22.9629 382.428 22.9349 382.516 22.8757C382.444 22.8609 382.378 22.8411 382.301 22.8312C382.174 22.8148 382.057 22.8428 381.969 22.902ZM384.146 22.6008C384.108 22.6403 384.185 22.6732 384.39 22.7012C384.439 22.6798 384.506 22.66 384.539 22.637C384.594 22.5991 384.5 22.5646 384.301 22.5382C384.246 22.558 384.196 22.5794 384.146 22.6008ZM372.48 20.8263C372.442 20.8658 372.519 20.8987 372.724 20.9267C372.773 20.9053 372.84 20.8855 372.873 20.8625C372.928 20.8246 372.834 20.79 372.635 20.7637C372.58 20.7835 372.53 20.8049 372.48 20.8263ZM356.587 9.17822C356.537 9.19962 356.487 9.22102 356.432 9.24077C356.581 9.28851 356.719 9.30332 356.824 9.27698C356.891 9.26052 356.929 9.23583 356.979 9.21443C356.83 9.16669 356.697 9.15353 356.587 9.17822ZM341.362 2.99863C341.494 3.01015 341.605 2.98712 341.699 2.92621C341.627 2.91139 341.561 2.89164 341.483 2.88176C341.356 2.8653 341.24 2.89329 341.152 2.95255C341.224 2.96901 341.295 2.98381 341.362 2.99863ZM333.277 2.61179C333.227 2.63319 333.177 2.65459 333.122 2.67435C333.271 2.72208 333.409 2.73689 333.514 2.71056C333.581 2.69409 333.619 2.6694 333.669 2.648C333.52 2.60026 333.387 2.58875 333.277 2.61179ZM278.45 1.10722C278.4 1.12862 278.35 1.15002 278.295 1.16978C278.444 1.21752 278.582 1.23233 278.688 1.20599C278.754 1.18953 278.793 1.16483 278.842 1.14343C278.693 1.0957 278.56 1.08418 278.45 1.10722ZM5.45442 14.5002C5.38258 14.4853 5.3108 14.4705 5.24448 14.4541C5.08422 14.4985 5.0345 14.5397 5.12292 14.5709C5.17819 14.5907 5.26102 14.6022 5.33286 14.617C5.49865 14.5726 5.53732 14.5331 5.45442 14.5002Z" fill="#FFE492"/>
</svg>
